<?xml version="1.0" encoding="UTF-8"?>
<!-- Created with Inkscape (http://www.inkscape.org/) -->
<svg width="1122.5" height="793.7" version="1.1" viewBox="0 0 297 210" xmlns="http://www.w3.org/2000/svg">
 <path d="m121.39 9.583-0.66072 0.34608c-0.36346 0.19032-1.7092 0.95369-2.9907 1.6961-1.9692 1.1407-2.46 1.3452-3.1683 1.3198-1.2266-0.04409-2.897 0.29484-3.4533 0.70127-0.26673 0.19489-1.2825 0.61828-2.2569 0.94056-0.9744 0.32228-4.2131 1.3927-7.1972 2.3785-2.9841 0.98577-9.5591 2.9608-14.611 4.3893-11.503 3.2527-12.962 3.7715-16.681 5.93-4.9731 2.8862-5.6682 3.4309-8.8065 6.9043-4.1906 4.6379-8.1264 8.6261-11.39 11.54-9.9157 8.8538-13.202 11.711-15.641 13.598-1.5074 1.1666-4.2355 3.3427-6.0625 4.8364-1.827 1.4937-4.6921 3.8326-6.3669 5.1973-2.0483 1.6692-3.045 2.6118-3.045 2.8799 0 0.54963 2.1006 2.9611 4.5166 5.1853 5.6412 5.1934 13.885 13.428 18.107 18.085 4.5891 5.0622 7.2509 7.6945 7.9322 7.8437 0.31175 0.0683 0.88529-0.16714 1.8349-0.7521 1.4106-0.86897 5.9903-3.9081 8.5786-5.693 2.9526-2.0361 7.8937-5.2295 11.277-7.2886l1.5693-0.95484-0.0069 1.7646-0.11193 5.1259c-0.10621 4.872-0.04818 9.4818 0.19645 15.629 0.45004 11.308 0.57508 74.093 0.15705 78.836-0.14386 1.6324-0.31766 4.5729-0.38605 6.5348l-0.12392 3.5669 0.58535 0.18674c2.0059 0.63881 13.967 1.0254 37.889 1.225 2.7118 0.0227 7.4786 0.0272 11.382 0.04 2.2958 0.12893 4.6181 0.1565 7.8848 0.0862 0.93167-0.0201 3.0809-0.033 4.48-0.0508 16.869 0.0126 36.563-0.0282 48.772-0.10222 0.56273 8e-3 1.8247 8e-3 2.2226 0.0171 0.80812 0.0181 2.505-0.0166 4.2733-0.0685 2.8441-0.0295 4.9299-0.061 4.9946-0.0959 0.0518-0.028 0.28868-0.044 0.64475-0.0532 0.25547-2e-3 0.54611-6.8e-4 0.81606-1e-3 2.0176 6e-3 6.5041 0.14414 15.846 0.48255 6.6594 0.24121 6.5988 0.24254 6.8574-0.16218 0.14664-0.22958 0.2297-2.9514 0.23014-7.5587 3.9e-4 -3.9601 0.10222-9.1621 0.22672-11.56 0.34622-6.6699 0.34945-8.7751 0.0292-22.167-0.45575-19.053-0.32841-45.401 0.31639-65.34 0.08-2.474 0.20792-4.496 0.28439-4.4932 0.0765 0.0033 0.37967 0.27372 0.6733 0.60249 0.29364 0.32876 1.1383 1.0152 1.8771 1.5253 6.6466 4.5893 12.284 8.8212 14.417 10.824 1.3209 1.2396 2.4908 2.254 2.6001 2.254 0.1093 0 2.1612-1.4398 4.56-3.1997 8.124-5.96 9.8841-7.1591 15.652-10.661 5.8054-3.5251 15.997-9.3783 17.329-9.9526 0.39584-0.17066 0.71954-0.39734 0.71954-0.50369 0-0.02785-0.0839-0.14599-0.21586-0.3158-9e-3 -0.1249-0.0723-0.23612-0.21187-0.30838-0.0154-0.0077-0.16948-0.17592-0.21929-0.22329-1.2163-1.4561-3.8322-4.378-4.9929-5.5348-0.51181-0.51011-1.6595-1.8456-2.551-2.9679-0.89149-1.1222-2.124-2.5828-2.7383-3.246-3.3858-3.655-5.4432-5.7518-9.1406-9.3136-5.109-4.9216-9.9613-10.281-12.814-14.152-1.2028-1.6324-2.9782-3.9616-3.9455-5.1762-0.96737-1.2146-1.9996-2.6637-2.2934-3.2203-0.18895-0.35786-0.60036-0.87039-1.0987-1.4391-0.0707-0.08962-0.12961-0.15731-0.17647-0.20102-2.2762-2.5313-6.8672-6.5285-10.304-8.8316-3.3508-2.2456-5.2131-2.8586-16.732-5.5068-3.5322-0.8121-9.4121-2.309-13.066-3.3265-3.654-1.0175-6.9886-1.9098-7.4102-1.9833-0.42165-0.07349-1.1311-0.33603-1.5767-0.58307-0.618-0.34256-1.3032-0.49134-2.8873-0.6276-2.1296-0.18319-3.8664-0.56863-4.8456-1.0748-0.3045-0.15741-1.119-0.72897-1.8103-1.2701-1.5434-1.208-1.9832-1.2381-4.612-0.31923-7.4944 2.6196-8.2109 2.8078-13.288 3.4927-8.3238 1.1227-15.157 1.1337-21.452 0.03426-2.096-0.36606-8.115-1.8706-10.215-2.5533-0.91352-0.29689-3.127-1.13-4.9186-1.852zm18.431 16.503 1.904 0.11422c5.9578 0.35841 10.042 0.50063 11.288 0.3929l1.354-0.11707 5.6e-4 0.8863-0.0782 1.213c-0.0747 1.1572-0.19952 3.3771-0.27754 4.9329l-0.14219 2.8268-0.0993-0.0011-0.81321-0.02343c-1.0864-0.03127-13.217-0.49188-13.536-0.51397-0.1371-0.0099-0.19478-0.75076-0.1519-1.9462 0.0674-1.8807 0.0833-1.9341 0.61904-2.0467 0.30249-0.06354 0.65596-0.06067 0.78523 0.0066 0.12927 0.06697 1.9064 0.1557 3.9495 0.19702 1.6042 0.03249 2.5358 0.04022 3.0832 0.0099 0.01-9.61e-4 0.0185-0.0022 0.0285-0.0033 0.50786-0.03127 0.6787-0.09747 0.73268-0.21529 0.12123-0.26461 0.38159-0.33768 0.51055-0.21758l0.0571 0.08907c7.1e-4 0.0011 1e-3 0.0022 2e-3 0.0033 0.01 0.03127 0.0171 0.06619 0.0171 0.1073 0 0.28417 0.40193 0.4142 1.3923 0.45058 0.44359 0.01624 0.66588-0.08929 0.79265-0.37633l0.13876-0.31467c0.0518 0.0099 0.1073 0.03713 0.16333 0.06564l0.20045 0.23986c0.0905 0.1083 0.1945 0.18062 0.31181 0.23756 0.15152 0.14661 0.27827 0.17532 0.38089 0.10509 0.12974 0.01392 0.27411 0.01912 0.45115 0.01138 0.84093-0.03669 1.074-0.24367 0.48713-0.4323-0.21396-0.06874-0.33237-0.35561-0.33237-0.80579 0-1.1134-0.24363-1.8583-0.60818-1.8583-0.25719 0-0.27486 0.05791-0.0777 0.25698 0.17911 0.1808 0.16881 0.26537-0.0314 0.34264-2e-3 4.19e-4 -3e-3 0.0022-4e-3 0.0022-0.0175 0.0066-0.027 0.01337-0.0474 0.02-0.18581 0.05967-0.34051 0.2574-0.34493 0.43916-7e-3 0.28729-0.0618 0.27606-0.42316-0.08675-0.13985-0.14042-0.3409-0.25947-0.5351-0.33522-0.10178-0.04995-0.19644-0.07857-0.27583-0.07194-0.022-0.0022-0.0476-0.0099-0.068-0.0099-0.36653 0-0.46256 0.11544-0.46256 0.55622 0 0.74944-0.39211 0.70359-0.78922-0.09249-0.38382-0.76944-0.60136-0.81233-0.94228-0.18561-0.24469 0.44986-0.7047 0.63988-0.7047 0.29125 0-0.3806-0.69292-0.7193-1.4756-0.74525-0.0202-8.51e-4 -0.0411-0.0099-0.0611-0.0099-8e-3 0-0.01 0.0011-0.0177 0.0011-4e-3 -2.3e-5 -8e-3 -0.0011-0.0114-0.0011-0.78039 0-0.86975 0.04774-0.86975 0.4637 0 0.28856-0.12567 0.46371-0.33236 0.46371s-0.33236-0.17515-0.33236-0.46371c0-0.25505-0.0249-0.47252-0.0554-0.48313-0.0305-0.01105-0.86104-0.0505-1.8457-0.08907-0.46259-0.01812-0.8097-0.01691-1.1227-0.0044-0.2018-0.0231-0.3921-0.0077-0.56536 0.04564-0.68251 0.11872-0.88172 0.4388-0.99481 1.145-0.0693 0.43251-0.2122 0.83119-0.31752 0.88574-0.2238 0.11587-0.25832-3.1733-0.0468-4.4658zm1.8925 3.9912c-0.0149 0.03282-0.0553 0.08708-0.18161 0.23129-0.17868 0.20404-0.35328 0.40577-0.38776 0.44828-6e-3 0.0077-0.01-0.0022-0.0155-5.63e-4 -7e-3 -0.04277-0.0163-0.05039-0.0211-0.12906-8.7e-4 -0.01426 3e-3 -0.02564 3e-3 -0.03945 0.0361-0.11189 0.17198-0.27314 0.35863-0.39575 0.12148-0.07979 0.14691-0.08719 0.18902-0.10741 0.02 2.1e-4 0.0347-0.0088 0.0554-0.0077zm0.14619 2.6389c-0.10443 0.01978-0.23071 0.14481-0.34435 0.39518-0.42383 0.93374-0.23765 1.0894 1.3409 1.121 0.7901 0.0158 1.561-0.0568 1.7132-0.16162 0.19018-0.13096 0.27697-0.1297 0.27697 0.0044 0 0.10697 0.17459 0.2251 0.38775 0.26269 0.4395 0.07747 0.71061-0.16652 0.71613-0.6436 2e-3 -0.25553-0.18501-0.32494-0.88231-0.32494-0.48719 0-0.88573-0.06354-0.88573-0.14106 0-0.07747-0.20188-0.2463-0.44829-0.37519-0.56396-0.29501-1.3238-0.0011-1.3238 0.51168 0 0.19444-0.11502 0.41365-0.25583 0.48655-0.18275 0.09459-0.21668-0.03337-0.11822-0.44601 0.11028-0.46189-2e-3 -0.72162-0.17646-0.68872zm5.5411 0.28211c-0.4956 0-0.77177 0.39764-0.77951 1.1227-2e-3 0.24376 0.36515 0.28672 2.3774 0.2781 2.3095-0.0099 2.3829-0.02243 2.4528-0.43516 0.0551-0.32546 0.17246-0.39906 0.49854-0.31237 0.32083 0.08531 0.42603 0.02453 0.42603-0.24671 0-0.26065-0.15284-0.36034-0.55337-0.36034-0.30451 0-0.55394 0.10587-0.55394 0.23528 0 0.35382-0.51375 0.44976-1.4557 0.27183-0.46482-0.08785-0.92522-0.11816-1.0234-0.06741-0.0981 0.05083-0.17819-0.0379-0.17819-0.19701 0-0.34164-0.43532-0.39558-0.46084-0.05713-0.014 0.1855-0.0397 0.1855-0.12907 0-0.0614-0.12753-0.34061-0.23186-0.62076-0.23186z" stroke="#4d4d4d" stroke-width=".20268"/>
 <g transform="matrix(.34698 0 0 .34698 76.736 -6.4193)" fill="#fff" stroke="#000">
  <path d="m220.55 215.06c-9.31 0-17.925 1.1055-25.846 3.3135v11.071c7.5098-3.2354 15.81-4.8552 24.902-4.8552 5.4028 0 10.786 0.54734 16.148 1.6413-0.73289-2.9869-2.1612-5.5134-4.3467-7.7403a3.004 3.004 0 0 1-0.0219-0.0203c-1.246-1.2955-2.6187-2.3488-4.1256-3.1959-2.211-0.1371-4.4455-0.21376-6.7094-0.21376zm30.508 4.6086c0.79597 3.2803 1.2056 6.8396 1.2056 10.658 0 0.35403-0.0231 0.69241-0.0293 1.0422 4.3922 1.8661 8.3803 3.9825 11.957 6.3542v-13.006c-4.3284-1.9847-8.7061-3.6676-13.133-5.049zm-72.535 5.2753c-2.929 1.616-5.7352 3.4273-8.4148 5.4398-13.35 10.13-20.026 22.535-20.026 37.214 0 15.109 7.1787 27.685 21.537 37.729 2.2387 1.5691 4.541 3.0032 6.9037 4.3092v-15.49c-8.3782-7.7299-12.571-16.75-12.571-27.064 0-5.6659 1.2596-10.988 3.7785-15.967 2.0978-3.9492 5.031-7.6544 8.7927-11.118zm85.668 72.657c-7.6828 4.0348-15.24 7.0395-22.67 9.0139-7.305 1.8886-14.484 2.8328-21.537 2.8328-9.2996 0-17.726-1.6043-25.28-4.8102v11.624c7.373 2.0672 15.233 3.1013 23.579 3.1013 13.728 0 29.031-3.0901 45.908-9.2711z" stroke-width=".81236"/>
  <path d="m181.53 198.51v128.58h10.173v-59.206h14.937c7.7262 0 13.263 1.9683 16.611 5.9044 3.8631 4.1548 7.5544 12.956 11.074 26.405l1.2752 5.1221c1.7472-0.34128 3.503-0.73627 5.269-1.1927 1.5077-0.40076 3.0228-0.84973 4.5441-1.3392l-5.8087-19.975c-1.7169-6.3416-4.078-11.152-7.0826-14.433-0.68677-0.8747-1.5879-1.6399-2.7039-2.2959-1.116-0.76536-2.4039-1.5309-3.8633-2.2963 8.1554-3.1708 14.079-7.4349 17.77-12.792 3.6914-5.3575 5.5371-12.246 5.5371-20.665 0-12.246-4.0778-20.993-12.233-26.241-5.8376-3.7175-13.22-5.5762-22.148-5.5762zm10.173 11.316h25.11c6.9536 0 12.534 2.1867 16.74 6.5602 3.8631 3.9361 5.7946 8.911 5.7946 14.925 0 3.1708-0.60125 6.287-1.8031 9.3484-1.116 3.0615-2.5752 5.6309-4.378 7.7083-2.6612 3.2801-6.1378 5.6856-10.43 7.2163-4.2065 1.4214-9.4002 2.1321-15.581 2.1321h-15.453zm57.965 107.59c-3.5564 0.955-7.0421 1.7628-10.454 2.4155l1.8078 7.2612h11.461z" stroke-width=".75689"/>
 </g>
</svg>
