<?xml version="1.0" encoding="UTF-8"?>
<!-- Created with Inkscape (http://www.inkscape.org/) -->
<svg width="1122.5" height="793.7" version="1.1" viewBox="0 0 297 210" xmlns="http://www.w3.org/2000/svg">
 <path d="m53.566 14.976h195.96c24.053 0 43.417 19.364 43.417 43.417v101.06c0 24.053-19.364 43.417-43.417 43.417h-195.96c-24.053 0-43.417-19.364-43.417-43.417v-101.06c0-24.053 19.364-43.417 43.417-43.417z" fill-rule="evenodd" stroke-width=".24909"/>
 <g transform="matrix(.69266 0 0 .69266 3.1904 38.644)" stroke-width=".26458">
  <path d="m47.801 88.05v103.98a1.1456 1.1456 0 0 0 1.95 0.81227l54.142-52.8-54.142-52.806a1.1456 1.1456 0 0 0-1.95 0.81227z" fill="#3fafbb"/>
  <path d="m126.59 118.35-67.887-37.402-0.04233-0.02381c-1.1695-0.635-2.2807 0.94721-1.3229 1.868l53.216 50.885z" fill="#a7e7ac"/>
  <path d="m57.347 197.3c-0.96308 0.92075 0.14817 2.503 1.3229 1.868l0.04233-0.0238 67.882-37.402-16.036-15.333z" fill="#cf3f67"/>
  <path d="m154 133.43-18.957-10.44-17.825 17.055 17.825 17.047 18.957-10.433c5.1567-2.8496 5.1567-10.38 0-13.229z" fill="#fdb476"/>
 </g>
 <g transform="matrix(.99998 0 0 .99998 16.914 -8.4554)" fill="#fff" stroke="#fff" stroke-width=".53205" aria-label="GET IT ON">
  <path d="m115.73 61.849c2.0431 0 3.7683-0.43131 4.9714-0.93073v-7.0599h-5.4255v1.8615h3.0873v3.8137c-0.61292 0.24971-1.6344 0.38591-2.6106 0.38591-3.8818 0-4.858-2.429-4.858-5.7887v-0.72642c0-2.9738 1.2031-5.6752 4.9488-5.6752 2.0885 0 3.2689 0.52212 4.2223 0.93073v-1.9523c-0.93073-0.47672-2.202-0.93073-4.1769-0.93073-3.9272 0-7.4912 1.975-7.4912 7.9225v0.45401c0 5.4028 2.883 7.6955 7.3323 7.6955z"/>
  <path d="m123.85 61.6h9.5343v-1.9523h-7.1961v-5.085h5.5163v-1.9296h-5.5163v-4.6309h7.1053v-1.9523h-9.4435z"/>
  <path d="m139.76 61.6h2.3382v-13.598h4.5174v-1.9523h-11.418v1.9523h4.5628z"/>
  <path d="m155 61.6h2.3609v-15.55h-2.3609z"/>
  <path d="m164.32 61.6h2.3382v-13.598h4.5174v-1.9523h-11.418v1.9523h4.5628z"/>
  <path d="m185.53 61.849c4.2677 0 6.9691-2.883 6.9691-7.7863v-0.45401c0-5.1304-2.656-7.8317-6.8783-7.8317-4.2677 0-6.9918 2.9057-6.9918 7.809v0.45401c0 5.1077 2.6787 7.809 6.901 7.809zm0.0681-1.8615c-3.2462 0-4.4493-2.4063-4.4493-5.9703v-0.79452c0-3.2008 1.3847-5.5617 4.3585-5.5617 3.3143 0.0227 4.472 2.3836 4.472 5.9703v0.74912c0 3.2462-1.4074 5.6071-4.3812 5.6071z"/>
  <path d="m195.28 61.6h2.1112v-12.326h0.0908l7.1734 12.326h2.3609v-15.55h-2.1112v11.645h-0.0681l-6.8556-11.645h-2.7014z"/>
 </g>
 <g transform="matrix(1.006 0 0 .99398 16.914 -8.4554)" fill="#fff" stroke="#fff" stroke-width=".52493" aria-label="Google play">
  <path d="m112.9 149.49q-1.8919 1.3889-4.1885 1.3889-3.0074 0-4.5603-2.0341-1.5529-2.045-1.5529-5.9711 0-3.7948 1.4982-5.9054 1.5092-2.1107 4.615-2.1107 1.1155 0 2.2091 0.28434 1.0936 0.28433 1.7607 0.75458l-0.59055 1.4108q-1.542-0.87488-3.3792-0.87488-2.1216 0-3.1714 1.5529-1.0389 1.5529-1.0389 4.8884 0 6.4304 4.2104 6.4304 1.5857 0 2.395-0.6671v-3.8057h-2.7778v-1.5529h4.5713z"/>
  <path d="m121.36 138.91q2.3512 0 3.7401 1.6404t1.3889 4.3197q0 2.7012-1.3889 4.3525t-3.7401 1.6513q-2.3622 0-3.7511-1.6404-1.3779-1.6513-1.3779-4.3635 0-2.6903 1.3889-4.3197 1.3889-1.6404 3.7401-1.6404zm0 10.477q1.5529 0 2.4497-1.3123 0.89675-1.3123 0.89675-3.1824 0-1.9685-0.88582-3.2371t-2.4606-1.2686q-1.5857 0-2.4606 1.2576-0.87489 1.2467-0.87489 3.248 0 1.9029 0.88582 3.2043 0.88582 1.2904 2.4497 1.2904z"/>
  <path d="m134.79 138.91q2.3512 0 3.7401 1.6404t1.3889 4.3197q0 2.7012-1.3889 4.3525t-3.7401 1.6513q-2.3622 0-3.7511-1.6404-1.3779-1.6513-1.3779-4.3635 0-2.6903 1.3889-4.3197 1.3889-1.6404 3.7401-1.6404zm0 10.477q1.5529 0 2.4497-1.3123 0.89675-1.3123 0.89675-3.1824 0-1.9685-0.88582-3.2371-0.88581-1.2686-2.4606-1.2686-1.5857 0-2.4606 1.2576-0.87488 1.2467-0.87488 3.248 0 1.9029 0.88581 3.2043 0.88582 1.2904 2.4497 1.2904z"/>
  <path d="m147.01 146.28q-1.5967 0.77646-1.5967 1.367 0 0.31715 0.36089 0.53587 0.37183 0.21872 1.0061 0.21872l3.8386-0.10936q1.367 0 2.1216 0.6671 0.76552 0.66709 0.76552 1.8919 0 1.9357-1.7279 3.084t-4.0354 1.1483q-1.8919 0-3.0949-0.79834-1.203-0.78739-1.203-2.045 0-1.367 1.8591-2.3075-1.542-0.72178-1.542-1.7716 0-1.203 1.9904-2.2419-0.91863-0.55774-1.4108-1.4436t-0.49212-1.8701q0-1.6076 1.0936-2.6356 1.0936-1.0389 2.734-1.0389 1.1811 0 2.1325 0.49212l3.3792-0.51399v1.6623h-2.1763q0.49212 0.86394 0.49212 2.0341 0 1.5529-1.0827 2.6246t-2.745 1.0717q-0.34995 0-0.6671-0.0219zm0.6671-1.3014q0.9405 0 1.531-0.64523 0.60148-0.65616 0.60148-1.706 0-1.1045-0.57961-1.7279-0.57961-0.62336-1.5529-0.62336-0.90769 0-1.531 0.65617-0.61242 0.64522-0.61242 1.6951 0 1.028 0.61242 1.6951 0.62335 0.65616 1.531 0.65616zm0.0656 8.7816q1.6842 0 2.8652-0.75459 1.192-0.74365 1.192-1.8482 0-1.1374-1.6842-1.1374-0.55774 0-1.9247 0.0656-0.86395 0.0437-1.3561 0.0437-0.2406 0-0.75459 0.3937-0.50306 0.3937-0.77646 0.78739-0.26246 0.40464-0.26246 0.83114 0 0.6671 0.74365 1.1374 0.74365 0.48119 1.9576 0.48119z"/>
  <path d="m165.23 150.58h-4.6588v-13.954h-2.9746v-1.4764h4.6806v13.954h2.9527z"/>
  <path d="m179.83 144.94h-7.8193q0 1.9357 1.1155 3.1933 1.1264 1.2576 2.7559 1.2576 1.5529 0 3.2042-0.55774l0.29528 1.367q-1.5092 0.67803-3.5214 0.67803-2.5372 0-4.0901-1.6295t-1.5529-4.3963q0-2.7121 1.3889-4.3197 1.3998-1.6185 3.6089-1.6185 1.9685 0 3.2917 1.4982 1.3233 1.4982 1.3233 3.9916zm-1.8591-1.3889q0-1.3342-0.83114-2.2419-0.83114-0.91863-1.8591-0.91863-1.3233 0-2.1981 0.87489-0.86395 0.87488-0.96237 2.2856z"/>
  <path d="m199.28 140.66q0.56868-0.7874 1.531-1.2686 0.97331-0.48119 2.045-0.48119 1.9685 0 3.084 1.6295 1.1264 1.6185 1.1264 4.2213 0 2.6246-1.1811 4.3744-1.1702 1.7388-3.1605 1.7388-1.0608 0-1.9904-0.52493-0.91863-0.53586-1.4545-1.4108v6.1461h-1.706v-15.901h1.706zm0 1.6951v4.7353q0.48119 0.96238 1.3014 1.6076 0.82021 0.64523 1.6951 0.64523 1.3779 0 2.1872-1.2904 0.8202-1.2905 0.8202-3.2043 0-1.9685-0.77646-3.2152t-2.1653-1.2467q-1.8044 0-3.0621 1.9685z"/>
  <path d="m218.95 150.58h-4.6588v-13.954h-2.9746v-1.4764h4.6806v13.954h2.9527z"/>
  <path d="m233.49 150.58h-1.6951q-0.20778-0.68897-0.20778-1.8372-1.4545 2.1325-3.9588 2.1325-1.2686 0-2.2419-0.89675-0.96237-0.90769-0.96237-2.3294 0-0.84207 0.33901-1.4873 0.33902-0.64523 0.99518-1.0827 0.65616-0.44837 1.5967-0.6999 0.9405-0.26247 2.231-0.36089l1.9138-0.15311v-0.5468q0-2.9309-2.734-2.9309-0.64522 0-1.6404 0.28434-0.98425 0.2734-1.6951 0.65616l-0.44838-1.2248q2.3294-1.192 4.3307-1.192 3.8932 0 3.8932 4.1229v4.8993q0 1.4873 0.28434 2.6465zm-1.9904-3.3792v-2.0669q-2.3075 0.20779-3.1714 0.3937-0.85301 0.17498-1.4873 0.6671-0.62335 0.49212-0.62335 1.3342 0 0.76552 0.53586 1.2358 0.53587 0.47025 1.367 0.47025 0.90769 0 1.8044-0.53587 0.89676-0.5468 1.5748-1.4982z"/>
  <path d="m247.15 139.19-4.3197 11.395q-0.9405 2.5153-1.8701 3.5105-0.91863 0.99518-2.0997 0.99518-1.0499 0-2.0778-0.38277l0.28434-1.367q0.83114 0.26246 1.4873 0.26246 0.91863 0 1.5092-0.71084 0.59054-0.71084 1.192-2.3294l-4.276-11.373h1.8591l3.2261 9.0878 3.2261-9.0878z"/>
 </g>
</svg>
