<?xml version="1.0" encoding="UTF-8" standalone="no"?>
<!-- Created with Inkscape (http://www.inkscape.org/) -->

<svg
   width="1122.5197"
   height="793.70081"
   viewBox="0 0 297 210"
   version="1.1"
   id="svg5"
   inkscape:version="1.1.2 (b8e25be8, 2022-02-05)"
   sodipodi:docname="apple.svg"
   xmlns:inkscape="http://www.inkscape.org/namespaces/inkscape"
   xmlns:sodipodi="http://sodipodi.sourceforge.net/DTD/sodipodi-0.dtd"
   xmlns="http://www.w3.org/2000/svg"
   xmlns:svg="http://www.w3.org/2000/svg">
  <sodipodi:namedview
     id="namedview7"
     pagecolor="#ffffff"
     bordercolor="#cccccc"
     borderopacity="1"
     inkscape:pageshadow="0"
     inkscape:pageopacity="1"
     inkscape:pagecheckerboard="0"
     inkscape:document-units="px"
     showgrid="false"
     units="px"
     inkscape:zoom="0.39108446"
     inkscape:cx="653.31157"
     inkscape:cy="484.55007"
     inkscape:window-width="1280"
     inkscape:window-height="703"
     inkscape:window-x="0"
     inkscape:window-y="25"
     inkscape:window-maximized="0"
     inkscape:current-layer="layer1" />
  <defs
     id="defs2" />
  <g
     inkscape:label="Layer 1"
     inkscape:groupmode="layer"
     id="layer1">
    <g
       id="g1529">
      <path
         id="rect3811"
         style="fill-rule:evenodd;stroke-width:0.249089"
         d="M 49.506413,14.976774 H 245.46397 c 24.05334,0 43.41758,19.36424 43.41758,43.41758 V 159.45075 c 0,24.05334 -19.36424,43.41758 -43.41758,43.41758 H 49.506413 c -24.053339,0 -43.4175796,-19.36424 -43.4175796,-43.41758 V 58.394354 c 0,-24.05334 19.3642406,-43.41758 43.4175796,-43.41758 z" />
      <g
         aria-label="Google play"
         transform="matrix(1.006034,0,0,0.9940022,1.353071,178.9442)"
         id="text2268"
         style="font-size:22.397px;line-height:1.25;font-family:'Andale Mono';-inkscape-font-specification:'Andale Mono, Normal';stroke:#ffffff;stroke-width:0.524928" />
      <g
         id="text5398"
         style="font-size:22.397px;line-height:1.25;font-family:'Andale Mono';-inkscape-font-specification:'Andale Mono, Normal';stroke-width:0.264583" />
      <g
         aria-label="GET IT ON"
         id="text1760"
         style="font-weight:600;font-size:22.7007px;line-height:1.25;font-family:'Apple SD Gothic Neo';-inkscape-font-specification:'Apple SD Gothic Neo, Semi-Bold';stroke:#ffffff;stroke-width:0.532047;fill:#ffffff"
         transform="translate(12.177672,0.33828)">
        <path
           d="m 115.73375,61.849459 c 2.04306,0 3.76831,-0.431313 4.97145,-0.930729 v -7.059918 h -5.42547 v 1.861458 h 3.0873 v 3.813717 c -0.61292,0.249708 -1.63445,0.385912 -2.61058,0.385912 -3.88182,0 -4.85795,-2.428975 -4.85795,-5.788678 v -0.726423 c 0,-2.973792 1.20313,-5.675175 4.94875,-5.675175 2.08846,0 3.2689,0.522116 4.22233,0.930729 v -1.95226 c -0.93073,-0.476715 -2.20197,-0.930729 -4.17693,-0.930729 -3.92722,0 -7.49123,1.974961 -7.49123,7.922544 v 0.454014 c 0,5.402767 2.88299,7.695538 7.33233,7.695538 z"
           id="path3661"
           style="stroke:#ffffff;fill:#ffffff" />
        <path
           d="m 123.85102,61.599751 h 9.53429 v -1.95226 h -7.19612 v -5.084957 h 5.51627 v -1.92956 h -5.51627 v -4.630942 h 7.10532 v -1.952261 h -9.44349 z"
           id="path3663"
           style="stroke:#ffffff;fill:#ffffff" />
        <path
           d="m 139.75605,61.599751 h 2.33818 V 48.002032 h 4.51744 v -1.952261 h -11.41846 v 1.952261 h 4.56284 z"
           id="path3665"
           style="stroke:#ffffff;fill:#ffffff" />
        <path
           d="m 154.99958,61.599751 h 2.36087 v -15.54998 h -2.36087 z"
           id="path3667"
           style="stroke:#ffffff;fill:#ffffff" />
        <path
           d="m 164.31892,61.599751 h 2.33817 V 48.002032 h 4.51744 v -1.952261 h -11.41845 v 1.952261 h 4.56284 z"
           id="path3669"
           style="stroke:#ffffff;fill:#ffffff" />
        <path
           d="m 185.53273,61.849459 c 4.26773,0 6.96911,-2.882989 6.96911,-7.78634 v -0.454014 c 0,-5.130359 -2.65598,-7.831742 -6.87831,-7.831742 -4.26773,0 -6.99182,2.90569 -6.99182,7.809041 v 0.454014 c 0,5.107658 2.67869,7.809041 6.90102,7.809041 z m 0.0681,-1.861457 c -3.2462,0 -4.44934,-2.406275 -4.44934,-5.970285 v -0.794524 c 0,-3.200799 1.38474,-5.561672 4.35854,-5.561672 3.3143,0.0227 4.47203,2.383574 4.47203,5.970284 v 0.749123 c 0,3.246201 -1.40744,5.607074 -4.38123,5.607074 z"
           id="path3671"
           style="stroke:#ffffff;fill:#ffffff" />
        <path
           d="m 195.27842,61.599751 h 2.11117 v -12.32648 h 0.0908 l 7.17342,12.32648 h 2.36087 v -15.54998 h -2.11116 v 11.64546 h -0.0681 l -6.85562,-11.64546 h -2.70138 z"
           id="path3673"
           style="stroke:#ffffff;fill:#ffffff" />
      </g>
      <g
         id="g4338"
         transform="matrix(0.17096163,0,0,0.17096163,21.191591,76.99322)"
         style="fill:#ffffff;stroke:#000000">
        <path
           d="m 349.13,136.86 c -40.32,0 -57.36,19.24 -85.44,19.24 -28.79,0 -50.75,-19.1 -85.69,-19.1 -34.2,0 -70.67,20.88 -93.83,56.45 -32.52,50.16 -27,144.63 25.67,225.11 18.84,28.81 44,61.12 77,61.47 h 0.6 c 28.68,0 37.2,-18.78 76.67,-19 h 0.6 c 38.88,0 46.68,18.89 75.24,18.89 h 0.6 c 33,-0.35 59.51,-36.15 78.35,-64.85 13.56,-20.64 18.6,-31 29,-54.35 -76.19,-28.92 -88.43,-136.93 -13.08,-178.34 -23,-28.8 -55.32,-45.48 -85.79,-45.48 z"
           id="path4326"
           style="fill:#ffffff;stroke:#000000" />
        <path
           d="m 340.25,32 c -24,1.63 -52,16.91 -68.4,36.86 -14.88,18.08 -27.12,44.9 -22.32,70.91 h 1.92 c 25.56,0 51.72,-15.39 67,-35.11 14.72,-18.77 25.88,-45.37 21.8,-72.66 z"
           id="path4328"
           style="fill:#ffffff;stroke:#000000" />
      </g>
      <g
         aria-label="AppStore"
         id="text6473"
         style="font-size:22.397px;line-height:1.25;font-family:'Andale Mono';-inkscape-font-specification:'Andale Mono, Normal';stroke:#ffffff;stroke-width:0.264583;fill:#ffffff"
         transform="translate(-27.061509,-174.20842)">
        <path
           d="m 154.25714,301.93106 h -1.881 l -1.70602,-5.4024 h -5.06338 l -1.7279,5.4024 h -1.85912 l 5.04151,-15.43074 h 2.1544 z m -4.10101,-6.96625 -2.02317,-6.38665 -2.01223,6.38665 z"
           id="path8396"
           style="fill:#ffffff" />
        <path
           d="m 158.88308,292.01208 q 0.56868,-0.7874 1.53105,-1.26858 0.9733,-0.48119 2.04504,-0.48119 1.96848,0 3.08396,1.62947 1.12641,1.61853 1.12641,4.22131 0,2.62465 -1.18109,4.37441 -1.17016,1.73883 -3.16052,1.73883 -1.06079,0 -1.99036,-0.52493 -0.91862,-0.53586 -1.45449,-1.41074 v 6.14605 h -1.70602 v -15.901 h 1.70602 z m 0,1.69508 v 4.73531 q 0.48119,0.96237 1.30139,1.60759 0.8202,0.64523 1.69509,0.64523 1.37794,0 2.1872,-1.29045 0.82021,-1.29046 0.82021,-3.20426 0,-1.96849 -0.77646,-3.2152 -0.77646,-1.2467 -2.16534,-1.2467 -1.80444,0 -3.06209,1.96848 z"
           id="path8398"
           style="fill:#ffffff" />
        <path
           d="m 172.31253,292.01208 q 0.56868,-0.7874 1.53105,-1.26858 0.97331,-0.48119 2.04504,-0.48119 1.96848,0 3.08396,1.62947 1.12641,1.61853 1.12641,4.22131 0,2.62465 -1.18109,4.37441 -1.17016,1.73883 -3.16052,1.73883 -1.06079,0 -1.99035,-0.52493 -0.91863,-0.53586 -1.4545,-1.41074 v 6.14605 h -1.70602 v -15.901 h 1.70602 z m 0,1.69508 v 4.73531 q 0.48119,0.96237 1.30139,1.60759 0.8202,0.64523 1.69509,0.64523 1.37794,0 2.1872,-1.29045 0.82021,-1.29046 0.82021,-3.20426 0,-1.96849 -0.77646,-3.2152 -0.77646,-1.2467 -2.16534,-1.2467 -1.80444,0 -3.06209,1.96848 z"
           id="path8400"
           style="fill:#ffffff" />
        <path
           d="m 191.69119,288.20634 q -1.37794,-0.47025 -2.61372,-0.47025 -1.39981,0 -2.28563,0.64522 -0.87488,0.63429 -0.87488,1.81539 0,1.39981 2.3075,2.4606 1.70603,0.7874 2.25283,1.09361 0.55774,0.30621 1.12641,0.84207 0.56867,0.53587 0.90769,1.26858 0.34995,0.72178 0.34995,1.62947 0,2.25282 -1.52011,3.49953 -1.50917,1.23577 -3.56514,1.23577 -1.99036,0 -3.4886,-0.78739 l 0.37183,-1.54198 q 1.7607,0.79833 3.07302,0.79833 1.53105,0 2.44967,-0.7874 0.92957,-0.79833 0.92957,-2.1872 0,-1.02799 -0.60148,-1.73883 -0.60149,-0.72178 -2.22002,-1.46543 -1.66228,-0.76552 -2.1544,-1.03892 -0.48118,-0.28434 -0.96237,-0.77646 -0.48119,-0.49212 -0.74365,-1.10454 -0.26246,-0.61242 -0.26246,-1.3342 0,-1.9138 1.37794,-2.98554 1.37794,-1.07173 3.48859,-1.07173 1.54198,0 3.06209,0.47025 z"
           id="path8402"
           style="fill:#ffffff" />
        <path
           d="m 206.35641,301.41707 q -1.71696,0.78739 -3.37923,0.78739 -3.05116,0 -3.05116,-3.22613 v -6.96625 h -2.18721 v -1.47637 h 2.18721 v -3.11677 h 1.66228 v 3.11677 h 3.87136 v 1.47637 h -3.87136 v 6.51787 q 0,1.03893 0.45931,1.61854 0.45932,0.56867 1.24671,0.56867 1.39981,0 2.76682,-0.62335 z"
           id="path8404"
           style="fill:#ffffff" />
        <path
           d="m 215.25834,290.26231 q 2.35125,0 3.74013,1.64041 1.38887,1.6404 1.38887,4.31973 0,2.7012 -1.38887,4.35254 -1.38888,1.65134 -3.74013,1.65134 -2.36218,0 -3.75106,-1.6404 -1.37794,-1.65134 -1.37794,-4.36348 0,-2.69026 1.38888,-4.31973 1.38888,-1.64041 3.74012,-1.64041 z m 0,10.47672 q 1.55292,0 2.44967,-1.31232 0.89676,-1.31233 0.89676,-3.18239 0,-1.96848 -0.88582,-3.23706 -0.88582,-1.26858 -2.46061,-1.26858 -1.58572,0 -2.46061,1.25764 -0.87488,1.24671 -0.87488,3.248 0,1.90287 0.88582,3.20426 0.88582,1.29045 2.44967,1.29045 z"
           id="path8406"
           style="fill:#ffffff" />
        <path
           d="m 233.28093,290.84192 -0.68897,1.64041 q -1.12641,-0.49212 -1.94662,-0.49212 -0.75458,0 -1.47636,0.43744 -0.72178,0.4265 -1.3342,1.23577 -0.60148,0.79833 -0.60148,0.89675 v 7.37089 h -1.69508 v -11.39535 h 1.69508 v 2.30751 q 1.36701,-2.58091 3.54328,-2.58091 1.29045,0 2.50435,0.57961 z"
           id="path8408"
           style="fill:#ffffff" />
        <path
           d="m 246.87442,296.28807 h -7.81927 q 0,1.93567 1.11548,3.19332 1.12641,1.25764 2.75588,1.25764 1.55292,0 3.20426,-0.55773 l 0.29527,1.367 q -1.50917,0.67803 -3.5214,0.67803 -2.53716,0 -4.09008,-1.62947 -1.55291,-1.62946 -1.55291,-4.39628 0,-2.71214 1.38887,-4.31974 1.39981,-1.61853 3.60889,-1.61853 1.96849,0 3.29175,1.49824 1.32326,1.49824 1.32326,3.99165 z m -1.85913,-1.38888 q 0,-1.3342 -0.83113,-2.24189 -0.83114,-0.91862 -1.85913,-0.91862 -1.32326,0 -2.19814,0.87488 -0.86395,0.87488 -0.96237,2.28563 z"
           id="path8410"
           style="fill:#ffffff" />
      </g>
    </g>
  </g>
</svg>
