<?xml version="1.0" encoding="UTF-8" standalone="no"?>
<!-- Created with Inkscape (http://www.inkscape.org/) -->

<svg
   width="1122.5197"
   height="793.70081"
   viewBox="0 0 296.99998 210"
   version="1.1"
   id="svg1"
   xml:space="preserve"
   sodipodi:docname="background.svg"
   inkscape:version="1.4.2 (f4327f4, 2025-05-13)"
   xmlns:inkscape="http://www.inkscape.org/namespaces/inkscape"
   xmlns:sodipodi="http://sodipodi.sourceforge.net/DTD/sodipodi-0.dtd"
   xmlns="http://www.w3.org/2000/svg"
   xmlns:svg="http://www.w3.org/2000/svg"><sodipodi:namedview
     id="namedview1"
     pagecolor="#ffffff"
     bordercolor="#000000"
     borderopacity="0.25"
     inkscape:showpageshadow="2"
     inkscape:pageopacity="0.0"
     inkscape:pagecheckerboard="0"
     inkscape:deskcolor="#d1d1d1"
     inkscape:document-units="mm"
     inkscape:zoom="1"
     inkscape:cx="613.5"
     inkscape:cy="434.5"
     inkscape:window-width="1920"
     inkscape:window-height="1009"
     inkscape:window-x="-8"
     inkscape:window-y="-8"
     inkscape:window-maximized="1"
     inkscape:current-layer="layer1" /><defs
     id="defs1"><inkscape:path-effect
       effect="bspline"
       id="path-effect5"
       is_visible="true"
       lpeversion="1.3"
       weight="33.333333"
       steps="2"
       helper_size="0"
       apply_no_weight="true"
       apply_with_weight="true"
       only_selected="false"
       uniform="false" /><inkscape:path-effect
       effect="bspline"
       id="path-effect4"
       is_visible="true"
       lpeversion="1.3"
       weight="33.333333"
       steps="2"
       helper_size="0"
       apply_no_weight="true"
       apply_with_weight="true"
       only_selected="false"
       uniform="false" /><inkscape:path-effect
       effect="bspline"
       id="path-effect3"
       is_visible="true"
       lpeversion="1.3"
       weight="33.333333"
       steps="2"
       helper_size="0"
       apply_no_weight="true"
       apply_with_weight="true"
       only_selected="false"
       uniform="false" /><inkscape:path-effect
       effect="bspline"
       id="path-effect2"
       is_visible="true"
       lpeversion="1.3"
       weight="33.333333"
       steps="2"
       helper_size="0"
       apply_no_weight="true"
       apply_with_weight="true"
       only_selected="false"
       uniform="false" /><inkscape:path-effect
       effect="bspline"
       id="path-effect1"
       is_visible="true"
       lpeversion="1.3"
       weight="33.333333"
       steps="2"
       helper_size="0"
       apply_no_weight="true"
       apply_with_weight="true"
       only_selected="false"
       uniform="false" /></defs><g
     inkscape:groupmode="layer"
     id="layer2"
     inkscape:label="Layer 2"
     style="fill:#db162f;fill-opacity:1"><rect
       style="fill:#db162f;fill-opacity:1;stroke-width:0.264583"
       id="rect26"
       width="296.5979"
       height="209.02083"
       x="0.26458347"
       y="0.52916539" /><g
       id="g26"
       transform="matrix(0.17996602,0,0,0.17996602,150.67955,48.643816)"><path
         style="opacity:0.900709;fill:#000000;stroke-width:0.264583"
         d="m 39.6875,259.55625 15.345833,1.32291 14.287499,-0.52916 12.435417,-2.38125 h 2.38125 l -0.529167,-6.35 0.79375,-3.43959 2.645834,-6.61458 3.439583,-4.49792 3.96875,-3.175 2.910416,2.11667 3.968755,5.55625 4.7625,6.35 4.49791,7.9375 5.02709,6.61458 3.70416,3.43959 2.64584,2.38125 2.11666,2.64583 0.52917,3.43958 v 2.64584 l 3.175,2.64583 1.05833,2.64583 1.5875,1.32292 3.96875,1.85208 0.52917,1.5875 v 0 l 2.91041,4.23334 2.64584,2.11666 2.11666,2.11667 v 0 l 4.23334,6.08542 v 2.11666 0.52917 l 1.85208,2.64583 3.70417,1.85209 4.7625,1.05833 1.85208,2.64583 2.11667,1.5875 12.17083,5.02709 7.40834,1.32292 4.7625,0.52916 7.67291,2.11667 6.35,2.38125 8.46667,2.38125 14.02292,2.64583 5.02708,2.91042 5.29167,2.91042 2.11666,1.05833 5.55625,1.32292 7.14375,-2.11667 6.35,1.05833 12.96459,0.26459 4.23333,-0.26459 1.85208,-0.79375 3.175,4.7625 7.14375,1.5875 2.11667,3.175 2.38125,4.23334 4.49792,7.67291 -1.32292,2.91042 0.52917,2.64583 -0.79375,3.96875 -8.20209,3.96875 -11.37708,3.175 -14.81667,6.87917 -11.37708,3.175 -17.4625,3.96875 -11.37708,3.43958 -11.90625,0.52917 -23.54792,1.32292 H 30.427083 L 26.9875,391.31875 24.870833,381 l 1.058334,-12.17083 2.116666,-15.875 3.439584,-14.2875 5.027083,-11.37709 3.175,-12.96458 3.175,-13.75833 L 41.804167,285.75 40.745833,270.66875 Z"
         id="path5" /><path
         style="opacity:0.599291;fill:#000000;stroke-width:0.264583"
         d="m 79.374999,288.13125 -8.995833,-3.70417 -11.1125,3.175 -5.291667,5.82083 -2.910416,5.55625 -1.852084,7.40834 1.058334,5.82083 0.79375,6.35 5.55625,6.61458 4.7625,2.91042 6.614583,1.5875 6.35,-0.52917 7.408333,-4.23333 7.14375,-10.05417 1.5875,-10.31875 -0.79375,-5.02708 -2.645833,-5.82083 -4.7625,-4.23334 z"
         id="path6" /><path
         style="opacity:1;fill:#ffffff;stroke-width:0.264583"
         d="m 60.060416,302.94791 6.085416,0.52917 2.116667,-8.46667 3.704167,6.61459 7.672916,1.32291 -5.820833,5.29167 3.175,8.73125 -6.879167,-5.02708 -0.529166,-0.52917 -5.556249,5.02709 0.79375,-7.40834 z"
         id="path7" /><path
         style="opacity:0.978723;fill:#ffffff;stroke-width:0.264583"
         d="m 111.125,347.92708 -6.35,1.32292 v 4.23333 l 2.11667,3.96875 4.49791,0.26458 2.11667,-3.175 0.79375,-3.70416 z"
         id="path8" /><path
         style="opacity:1;fill:#ffffff;stroke-width:0.264583"
         d="m 142.61041,344.22291 -5.29166,1.5875 -0.26459,3.43959 2.11667,2.91041 1.32292,1.32292 2.38125,-0.52917 1.5875,-0.52916 1.85208,-2.11667 -0.26458,-3.43958 z"
         id="path9" /><path
         style="opacity:0.812057;fill:#ffffff;stroke:#000000;stroke-width:0.264583"
         d="m 283.36875,345.01666 -36.24792,10.31875 -43.65625,8.73125 -28.575,2.91042 h -2.64583 l 2.11666,8.46667 0.79375,1.5875 L 31.75,381 l -2.38125,-8.20209 -5.820834,-0.52916 2.910417,18.78541 6.085417,2.64584 144.99166,-2.38125 29.89792,-3.96875 26.9875,-4.49792 55.82708,-17.19792 -0.26458,-9.78958 z"
         id="path10" /><path
         style="opacity:0.173759;fill:#000000;stroke-width:0.264583"
         d="M 283.10416,344.4875 Z"
         id="path26" /></g></g><g
     inkscape:label="Layer 1"
     inkscape:groupmode="layer"
     id="layer1"><path
       style="fill:#000000;stroke-width:0.264583"
       d="m 216.95833,92.604166 c -1.41111,3.615973 -2.82222,7.231943 -4.14515,9.348614 -1.32293,2.11668 -2.55763,2.73403 -2.55762,3.66008 2e-5,0.92605 1.23471,2.16075 1.85208,2.73401 0.61736,0.57326 0.61736,0.48507 -3.61606,1.58753 -4.23342,1.10245 -12.69992,3.39546 -18.21209,4.89478 -5.51218,1.49931 -8.06977,2.20485 -10.80383,2.42533 -2.73405,0.22048 -5.64441,-0.0441 -7.27601,-0.88196 -1.6316,-0.83786 -1.98437,-2.24894 -2.24896,-3.35138 -0.26458,-1.10244 -0.44097,-1.89617 -0.30867,-2.82222 0.13229,-0.92606 0.57326,-1.98437 0.0441,-2.16075 -0.52918,-0.17638 -2.02845,0.52916 -3.70416,1.67571 -1.67572,1.14654 -3.52777,2.73401 -4.54201,4.67431 -1.01423,1.9403 -1.19062,4.23331 -0.74964,5.90901 0.44099,1.67571 1.4993,2.73402 2.82223,3.48368 1.32294,0.74965 2.9104,1.19062 5.51218,1.05832 2.60177,-0.1323 6.21767,-0.83784 12.12678,-2.33717 5.90911,-1.49933 14.11103,-3.79234 20.32878,-6.26181 6.21775,-2.46947 10.451,-5.11525 12.39127,-3.79228 1.94028,1.32297 1.58751,6.61453 0.57325,9.52495 -1.01425,2.91043 -2.68991,3.43958 -8.06986,4.27744 -5.37996,0.83786 -14.4638,1.98436 -22.84235,3.2191 -8.37855,1.23473 -16.05131,2.55762 -22.88644,3.52777 -6.83513,0.97014 -12.83223,1.58749 -19.31459,1.58748 -6.48237,0 -13.44959,-0.61735 -20.06423,-1.7198 -6.61465,-1.10244 -12.87633,-2.68991 -16.7128,-4.01284 -3.83647,-1.32293 -5.247559,-2.38124 -5.55623,-3.48368 -0.308672,-1.10244 0.485064,-2.24895 0.220466,-1.89615 -0.264598,0.3528 -1.587485,2.20484 -2.160748,4.32153 -0.573264,2.11669 -0.396878,4.49789 -0.132291,6.0413 0.264586,1.54341 0.61736,2.24896 1.322926,3.13091 0.705566,0.88196 1.763877,1.94027 3.219107,2.86632 1.45522,0.92605 3.30727,1.71978 6.17363,2.86633 2.86636,1.14654 6.74683,2.64581 9.56907,3.39547 2.82224,0.74965 4.5861,0.74965 6.74689,0.92604 2.16079,0.17639 4.71837,0.52916 9.48094,0.66145 4.76257,0.13229 11.72979,0.0441 18.56493,-0.61737 6.83514,-0.66147 13.53778,-1.89617 20.15243,-2.77812 6.61465,-0.88195 13.1409,-1.4111 18.82949,-1.98437 5.6886,-0.57327 10.53919,-1.19062 13.67011,-1.4993 3.13092,-0.30868 4.542,-0.30868 5.77673,-1.05835 1.23474,-0.74967 2.29305,-2.24894 3.0868,-4.01285 0.79376,-1.76391 1.32291,-3.79234 1.5875,-6.04132 0.26458,-2.24899 0.26458,-4.71838 0.52917,-10.93619 0.26459,-6.21781 0.79374,-16.18358 -0.0882,-21.78394 -0.88197,-5.60036 -3.17498,-6.835057 -5.11528,-6.96734 -1.94029,-0.132283 -3.52776,0.837837 -4.80659,1.852082 -1.27882,1.014245 -2.24894,2.072558 -2.29303,1.411077 -0.0441,-0.661481 0.83784,-3.042684 0.88192,-4.497898 0.0441,-1.455214 -0.74964,-1.984369 -1.80799,-1.984364 -1.05834,5e-6 -2.38123,0.529161 -3.43957,1.367021 -1.05835,0.83786 -1.85208,1.984364 -2.86633,2.866314 -1.01425,0.881951 -2.24894,1.499297 -3.79237,1.76388 -1.54342,0.264584 -3.39546,0.176392 -5.15937,-0.08819 -1.7639,-0.264587 -3.43957,-0.705553 -4.98298,-1.278824 -1.54342,-0.573271 -2.9545,-1.278812 -4.58611,-2.248963 -1.63162,-0.970151 -3.48367,-2.20485 -4.7184,-2.778112 -1.23473,-0.573262 -1.85208,-0.48507 -2.42535,-0.749658 -0.57326,-0.264588 -1.10242,-0.881939 -2.02848,-0.97013 -0.92605,-0.08819 -2.24894,0.352772 -2.8663,0.837848 -0.61736,0.485075 -0.52917,1.01423 -0.92605,1.278814 -0.39688,0.264584 -1.27881,0.264584 -2.07257,0.881958 -0.79376,0.617373 -1.4993,1.852071 -2.46945,2.248941 -0.97015,0.39687 -2.20485,-0.04409 -2.91041,0.132303 -0.70555,0.176396 -0.88194,0.970132 -1.45521,1.675692 -0.57327,0.70556 -1.54339,1.322911 -2.16076,1.455199 -0.61736,0.132288 -0.88194,-0.220484 -1.85209,0.08821 -0.97016,0.308692 -2.64582,1.27881 -4.76251,2.248959 -2.1167,0.97015 -4.67428,1.940268 -6.83506,2.734025 -2.16079,0.793757 -3.92464,1.411104 -5.07118,2.116664 -1.14653,0.70557 -1.67568,1.4993 -3.08682,2.07257 -1.41113,0.57327 -3.70414,0.92604 -6.35,1.58751 -2.64587,0.66147 -5.64442,1.63158 -7.717,1.98436 -2.07258,0.35277 -3.21908,0.0882 -4.10103,0.35279 -0.88195,0.26459 -1.4993,1.05832 -1.89618,1.89618 -0.39687,0.83785 -0.57326,1.71978 -1.23473,2.60174 -0.66147,0.88195 -1.80798,1.76388 -2.38124,2.64583 -0.57326,0.88195 -0.57326,1.76388 -0.44097,2.33714 0.13229,0.57327 0.39687,0.83785 -0.3969,1.23473 -0.79377,0.39688 -2.64581,0.92603 -3.83644,1.7198 -1.19063,0.79376 -1.71979,1.85207 -2.64584,3.13091 -0.92606,1.27883 -2.248946,2.7781 -2.866305,3.57186 -0.617359,0.79375 -0.529169,0.88194 -0.617367,0.92603 -0.0882,0.0441 -0.352776,0.0441 -0.617359,0.0441"
       id="path1"
       inkscape:path-effect="#path-effect1"
       inkscape:original-d="m 216.95833,92.604166 c -1.41111,3.615973 -2.82222,7.231943 -4.23333,10.847914 -1.23475,0.61738 -2.46945,1.23473 -3.70417,1.85209 1.23475,1.23474 2.46944,2.46944 3.70417,3.70416 0,-0.0882 0,-0.17639 0,-0.26458 -8.46684,2.2931 -16.93334,4.58611 -25.4,6.87917 -2.55769,0.70556 -5.11528,1.41111 -7.67292,2.11666 -2.91047,-0.26459 -5.82083,-0.52916 -8.73125,-0.79375 -0.35278,-1.41114 -0.70556,-2.82222 -1.05833,-4.23333 -0.17639,-0.79377 -0.35278,-1.5875 -0.52917,-2.38125 0.44098,-1.05836 0.88194,-2.11667 1.32292,-3.175 -1.49934,0.70557 -2.99861,1.41111 -4.49792,2.11667 -1.85212,1.58753 -3.70417,3.175 -5.55625,4.7625 -0.17639,2.2931 -0.35278,4.58611 -0.52917,6.87916 1.05836,1.05836 2.11667,2.11667 3.175,3.175 1.58754,0.44098 3.175,0.88195 4.7625,1.32292 3.61605,-0.70557 7.23195,-1.41111 10.84792,-2.11667 8.20225,-2.2931 16.40417,-4.58611 24.60625,-6.87916 4.23342,-2.64589 8.46667,-5.29167 12.7,-7.9375 -0.35278,5.29177 -0.70556,10.58333 -1.05833,15.875 -1.67573,0.52917 -3.35139,1.05833 -5.02709,1.5875 -9.08421,1.14655 -18.16805,2.29305 -27.25208,3.43958 -7.67307,1.32294 -15.34583,2.64583 -23.01875,3.96875 -5.99734,0.61737 -11.99444,1.23472 -17.99167,1.85208 -6.9675,-0.61737 -13.93472,-1.23472 -20.90208,-1.85208 -6.26193,-1.58753 -12.52361,-3.175 -18.78541,-4.7625 -1.41114,-1.05836 -2.822228,-2.11667 -4.233338,-3.175 0.793766,-1.14655 1.5875,-2.29306 2.381248,-3.43958 -1.322941,1.85212 -2.645831,3.70416 -3.968748,5.55625 0.176393,2.38129 0.352777,4.76249 0.529167,7.14374 0.352785,0.70557 0.705556,1.41112 1.058333,2.11667 1.058355,1.05836 2.116668,2.11667 3.174998,3.175 1.85212,0.79377 3.70417,1.5875 5.55625,2.38125 3.88064,1.49934 7.76111,2.99861 11.64167,4.49792 1.76392,0 3.52778,0 5.29167,0 2.55769,0.35278 5.11527,0.70555 7.67291,1.05833 6.9675,-0.0882 13.93472,-0.17639 20.90208,-0.26458 6.70292,-1.23475 13.40556,-2.46945 20.10834,-3.70417 6.52652,-0.52918 13.05277,-1.05833 19.57916,-1.5875 4.8508,-0.61737 9.70139,-1.23472 14.55209,-1.85208 1.41114,0 2.82222,0 4.23333,0 1.05836,-1.49934 2.11667,-2.99861 3.175,-4.49792 0.52918,-2.02851 1.05833,-4.05694 1.5875,-6.08541 0,-2.4695 0,-4.93889 0,-7.40834 0.52918,-9.96617 1.05833,-19.93194 1.5875,-29.897914 -2.2931,-1.234747 -4.58611,-2.469444 -6.87917,-3.704167 -1.58753,0.970158 -3.175,1.940277 -4.7625,2.910417 -0.97015,1.058354 -1.94027,2.116666 -2.91041,3.174999 0.88196,-2.381297 1.76389,-4.762499 2.64583,-7.143749 -0.79377,-0.529178 -1.5875,-1.058334 -2.38125,-1.5875 -1.32294,0.529177 -2.64583,1.058333 -3.96875,1.5875 -0.79377,1.14655 -1.5875,2.293056 -2.38125,3.439583 -1.23475,0.617373 -2.46944,1.234723 -3.70417,1.852083 -1.85212,-0.0882 -3.70416,-0.17639 -5.55625,-0.264583 -1.67572,-0.440981 -3.35139,-0.881944 -5.02708,-1.322917 -1.41114,-0.705569 -2.82222,-1.41111 -4.23333,-2.116666 -1.85212,-1.234747 -3.70417,-2.469444 -5.55625,-3.704167 -0.61738,0.0882 -1.23473,0.17639 -1.85209,0.264583 -0.52917,-0.617373 -1.05833,-1.234723 -1.5875,-1.852083 -1.32294,0.440981 -2.64583,0.881943 -3.96875,1.322917 0.0882,0.529177 0.17639,1.058333 0.26459,1.5875 -0.88196,0 -1.76389,0 -2.64584,0 -0.70557,1.234746 -1.41111,2.469443 -2.11666,3.704166 -1.23475,-0.440981 -2.46945,-0.881943 -3.70417,-1.322916 -0.17639,0.793765 -0.35278,1.5875 -0.52917,2.38125 -0.97015,0.617373 -1.94027,1.234723 -2.91041,1.852083 -0.26459,-0.352785 -0.52917,-0.705557 -0.79375,-1.058333 -1.67573,0.970158 -3.35139,1.940276 -5.02709,2.910416 -2.55769,0.970158 -5.11527,1.940277 -7.67291,2.910417 -1.76393,0.617373 -3.52778,1.234723 -5.29167,1.852081 -0.52918,0.79377 -1.05833,1.5875 -1.5875,2.38125 -2.2931,0.35279 -4.58611,0.70556 -6.87916,1.05834 -2.99868,0.97015 -5.99723,1.94027 -8.99584,2.91041 -1.14655,-0.26459 -2.29305,-0.52916 -3.43958,-0.79375 -0.61737,0.79377 -1.23472,1.5875 -1.85208,2.38125 -0.1764,0.88196 -0.35278,1.76389 -0.52917,2.64584 -1.14655,0.88196 -2.29306,1.76389 -3.43958,2.64583 0,0.88196 0,1.76389 0,2.64583 0.26458,0.26459 0.52916,0.52917 0.79375,0.79375 -1.85213,0.52918 -3.70417,1.05834 -5.55625,1.5875 -0.52918,1.05836 -1.05834,2.11667 -1.5875,3.175 -1.32295,1.49934 -2.645838,2.99861 -3.968755,4.49792 0.0882,0.0882 0.17639,0.17639 0.264584,0.26458 -0.264589,0 -0.529167,0 -0.79375,0"
       transform="matrix(-0.47646855,0,0,-0.47646855,196.34709,133.61469)" /><g
       id="g5"
       transform="matrix(0.31618523,0,0,0.31618523,18.676783,-18.609244)"><path
         style="fill:#ffffff;stroke-width:0.264583"
         d="m 58.472916,521.22916 c 1.852084,0.52917 3.704166,1.05833 6.041347,1.36701 2.337181,0.30869 5.159346,0.39688 7.584714,0.30868 2.425367,-0.0882 4.453798,-0.35278 6.173605,-0.44097 1.719806,-0.0882 3.13089,0 4.850701,0.1764 1.719811,0.17639 3.748242,0.44097 8.951799,0.70555 5.203557,0.26459 13.581858,0.52917 19.049948,0.48506 5.46808,-0.0441 8.02566,-0.39687 9.83366,-0.52916 1.808,-0.13229 2.86631,-0.0441 4.05695,0.0882 1.19063,0.13229 2.51353,0.30867 4.23334,0.48506 1.71981,0.17639 3.83643,0.35278 5.64443,0.30868 1.80801,-0.0441 3.30728,-0.30868 5.77676,-0.35277 2.46948,-0.0441 5.90899,0.13229 10.93614,0.13229 5.02715,0 11.6416,-0.17639 17.28609,-0.52917 5.6445,-0.35279 10.31871,-0.88194 12.87635,-2.64587 2.55764,-1.76392 2.99861,-4.76247 3.21909,-8.24619 0.22049,-3.48371 0.22049,-7.45238 0.39688,-11.15659 0.1764,-3.70421 0.52916,-7.14371 0.92604,-10.80383 0.39688,-3.66011 0.83785,-7.54057 1.10243,-10.18642 0.26458,-2.64584 0.35278,-4.05694 0.22048,-5.11527 -0.13229,-1.05834 -0.48506,-1.76387 -1.05833,-18.25656 -0.57328,-16.49268 -1.36701,-48.77121 -1.71978,-64.9549 -0.35278,-16.18368 -0.26459,-16.27187 0,-16.44826 0.26458,-0.17639 0.70555,-0.44097 1.19063,-0.57326 0.48507,-0.13229 1.01422,-0.13229 1.54339,-0.13229 0.52918,0 1.05833,0 1.8521,-0.0441 0.79376,-0.0441 1.85207,-0.13229 4.05696,-0.66146 2.2049,-0.52918 5.55622,-1.4993 9.21633,-2.91043 3.66011,-1.41113 7.62878,-3.26318 11.90626,-5.11528 4.27747,-1.8521 8.86349,-3.70415 11.11245,-4.80658 2.24896,-1.10243 2.16076,-1.4552 1.76388,-2.73405 -0.39688,-1.27884 -1.10242,-3.48365 -2.82224,-8.33442 -1.71982,-4.85077 -4.45379,-12.34715 -7.40834,-20.02014 -2.95454,-7.673 -6.12948,-15.52215 -8.02567,-20.50515 -1.89618,-4.98301 -2.51353,-7.09964 -2.82221,-8.33436 -0.30868,-1.23473 -0.30868,-1.5875 -1.19064,-2.91044 -0.88197,-1.32294 -2.64582,-3.61595 -4.71842,-5.51214 -2.07259,-1.8962 -4.45379,-3.39547 -8.2903,-5.07119 -3.83651,-1.67571 -9.12807,-3.52776 -13.93471,-5.07117 -4.80664,-1.54342 -9.12809,-2.77812 -12.5236,-4.10105 -3.39551,-1.32293 -5.8649,-2.73401 -7.5847,-3.88054 -1.7198,-1.14654 -2.68992,-2.02847 -3.74827,-2.68993 -1.05834,-0.66146 -2.20485,-1.10243 -2.99861,-1.32291 -0.79375,-0.22049 -1.23471,-0.22049 -2.07257,-0.61737 -0.83786,-0.39689 -2.07256,-1.19062 -3.48368,-1.5875 -1.41113,-0.39687 -2.9986,-0.39687 -4.80661,10e-6 -1.808,0.39689 -3.83643,1.19062 -6.65869,1.71979 -2.82226,0.52917 -6.43816,0.79375 -10.05417,0.88194 -3.61601,0.0882 -7.23191,0 -10.40694,-0.22049 -3.17502,-0.22049 -5.909,-0.57326 -8.24617,-1.10243 -2.33717,-0.52918 -4.27741,-1.23472 -5.953119,-1.367 -1.675707,-0.13229 -3.08679,0.30867 -4.14513,0.74965 -1.05834,0.44097 -1.763884,0.88194 -2.60174,1.23472 -0.837856,0.35278 -1.807976,0.61736 -2.910419,1.01424 -1.102443,0.39688 -2.337139,0.92603 -4.101051,1.80799 -1.763913,0.88196 -4.056919,2.11666 -6.702784,3.39549 -2.645864,1.27883 -5.644415,2.60172 -9.921901,4.18924 -4.277487,1.58752 -9.833624,3.43957 -13.97879,4.85069 -4.145166,1.41112 -6.879141,2.38123 -8.510744,4.05695 -1.631603,1.67572 -2.160758,4.05692 -3.704187,8.02573 -1.543428,3.9688 -4.101016,9.52494 -5.953111,13.97879 -1.852096,4.45386 -2.998599,7.80518 -5.027101,13.6702 -2.028501,5.86501 -4.938857,14.24331 -7.143735,20.63746 -2.204877,6.39414 -3.704152,10.80377 -4.497905,12.96453 -0.793754,2.16076 -0.881944,2.07257 -0.705549,2.29307 0.176395,0.22049 0.617355,0.74964 2.866355,1.6757 2.248999,0.92605 6.305862,2.24894 10.362848,3.61597 4.056986,1.36703 8.113849,2.77811 11.288872,3.79235 3.175023,1.01425 5.468033,1.6316 7.408326,2.07257 1.940293,0.44098 3.527761,0.70556 4.806591,0.88195 1.278829,0.17639 2.248948,0.26458 2.645821,0.35277 0.396872,0.0882 0.220488,0.17639 0.308686,0.17639 0.0882,-1e-5 0.44097,-0.0882 0.749653,1.19065 0.308683,1.27885 0.573261,3.92463 0.881945,9.39277 0.308684,5.46813 0.661455,13.75825 0.793745,19.66731 0.132291,5.90906 0.0441,9.43677 -0.44098,14.64031 -0.485077,5.20354 -1.367004,12.08257 -2.028467,18.16804 -0.661463,6.08547 -1.102426,11.37703 -1.322913,13.89057 -0.220486,2.51354 -0.220486,2.24896 -0.220486,7.58483 0,5.33588 0,16.27177 -0.132294,24.7826 -0.132295,8.51082 -0.396873,14.59611 -0.308674,20.5052 0.0882,5.90908 0.529162,11.6416 0.970134,17.37424 0,0 0,0 0,0 0,0 0,0 0,0 0,0 0,0 0,0 0,0 0,0 0,0 0,0 0,0 0,0"
         id="path2"
         inkscape:path-effect="#path-effect2"
         inkscape:original-d="m 58.472916,521.22916 c 1.852083,0.52917 3.704167,1.05833 5.55625,1.5875 2.822278,0.0882 5.644443,0.1764 8.466666,0.26458 2.028513,-0.26458 4.056944,-0.52916 6.085417,-0.79375 1.411139,0.0882 2.822223,0.1764 4.233333,0.26459 2.028513,0.26458 4.056944,0.52916 6.085417,0.79375 8.37864,0.26458 16.756941,0.52916 25.135421,0.79375 2.55769,-0.3528 5.11527,-0.70557 7.67291,-1.05834 1.05836,0.0882 2.11667,0.1764 3.175,0.26459 1.32294,0.17639 2.64584,0.35277 3.96875,0.52916 2.11671,0.1764 4.23333,0.35277 6.35,0.52917 1.49934,-0.26458 2.99861,-0.52917 4.49792,-0.79375 3.43965,0.1764 6.87916,0.35277 10.31875,0.52917 6.61471,-0.1764 13.22916,-0.35277 19.84375,-0.52917 4.6744,-0.52917 9.34861,-1.05833 14.02291,-1.5875 0.44099,-2.99868 0.88195,-5.99723 1.32292,-8.99583 0,-3.96883 0,-7.9375 0,-11.90625 0.35279,-3.43967 0.70556,-6.87917 1.05833,-10.31875 0.44099,-3.88065 0.88195,-7.76111 1.32292,-11.64167 0.0882,-1.41113 0.17639,-2.82223 0.26458,-4.23333 -0.35278,-0.70557 -0.70555,-1.4111 -1.05833,-2.11667 -0.79376,-32.2798 -1.5875,-64.55833 -2.38125,-96.8375 0.0882,-0.0882 0.17639,-0.1764 0.26458,-0.26458 0.44099,-0.26458 0.88195,-0.52917 1.32292,-0.79375 0.52918,0 1.05833,0 1.5875,0 0.52918,0 1.05833,0 1.5875,0 1.05836,-0.0882 2.11667,-0.1764 3.175,-0.26458 3.35146,-0.97015 6.70278,-1.94027 10.05417,-2.91042 3.96883,-1.85211 7.9375,-3.70417 11.90625,-5.55625 4.5862,-1.85212 9.17222,-3.70416 13.75833,-5.55625 -0.0882,-0.35278 -0.17639,-0.70555 -0.26458,-1.05833 -0.70557,-2.20491 -1.41111,-4.40972 -2.11667,-6.61458 -2.73408,-7.49668 -5.46805,-14.99306 -8.20208,-22.48959 -3.17506,-7.84946 -6.35,-15.69861 -9.525,-23.54791 -0.61737,-2.11671 -1.23472,-4.23334 -1.85208,-6.35 0,-0.35279 0,-0.70556 0,-1.05834 -1.76393,-2.2931 -3.52778,-4.58611 -5.29167,-6.87916 -2.3813,-1.49934 -4.7625,-2.99861 -7.14375,-4.49792 -5.29177,-1.85212 -10.58333,-3.70417 -15.875,-5.55625 -4.32161,-1.23475 -8.64306,-2.46944 -12.96458,-3.70417 -2.4695,-1.41114 -4.93889,-2.82222 -7.40834,-4.23333 -0.97015,-0.88196 -1.94027,-1.76389 -2.91041,-2.64583 -1.14655,-0.44098 -2.29306,-0.88195 -3.43959,-1.32292 -0.44098,0 -0.88194,0 -1.32291,0 -1.23475,-0.79377 -2.46945,-1.5875 -3.70417,-2.38125 -1.58753,0 -3.175,0 -4.7625,0 -2.02851,0.79377 -4.05694,1.5875 -6.08542,2.38125 -3.61604,0.26459 -7.23194,0.52917 -10.84791,0.79375 -3.61605,-0.0882 -7.23195,-0.17639 -10.84792,-0.26458 -2.73408,-0.35279 -5.46806,-0.70556 -8.20208,-1.05834 -1.94032,-0.70557 -3.88056,-1.41111 -5.820837,-2.11666 -1.411139,0.44098 -2.822222,0.88194 -4.233333,1.32291 -0.70557,0.44098 -1.411111,0.88195 -2.116667,1.32292 -0.970158,0.26459 -1.940277,0.52917 -2.910416,0.79375 -1.234747,0.52918 -2.469445,1.05833 -3.704167,1.5875 -2.293101,1.23475 -4.586111,2.46944 -6.879167,3.70417 -2.998671,1.32294 -5.997222,2.64583 -8.995833,3.96875 -5.556361,1.85212 -11.1125,3.70416 -16.66875,5.55625 -2.734082,0.97015 -5.468056,1.94027 -8.202083,2.91041 -0.529178,2.3813 -1.058334,4.7625 -1.5875,7.14375 -2.55769,5.55636 -5.115278,11.1125 -7.672917,16.66875 -1.146551,3.35146 -2.293056,6.70278 -3.439583,10.05417 -2.910475,8.37864 -5.820834,16.75694 -8.73125,25.13542 -1.499336,4.40981 -2.998611,8.81944 -4.497917,13.22916 -0.0882,-0.0882 -0.176389,-0.17639 -0.264583,-0.26458 0.440981,0.52918 0.881944,1.05833 1.322916,1.5875 4.057026,1.32294 8.113889,2.64583 12.170834,3.96875 4.057025,1.41114 8.113889,2.82222 12.170833,4.23333 2.293101,0.61738 4.586111,1.23473 6.879167,1.85209 1.587531,0.26459 3.175,0.52916 4.7625,0.79375 0.970158,0.0882 1.940277,0.17639 2.910416,0.26458 -0.176392,0.0882 -0.352777,0.17639 -0.529166,0.26458 0.352784,-0.0882 0.705555,-0.17639 1.058333,-0.26458 0.264589,2.64589 0.529167,5.29167 0.79375,7.9375 0.352785,8.29044 0.705556,16.58056 1.058333,24.87083 -0.0882,3.52785 -0.176389,7.05556 -0.264583,10.58334 -0.881962,6.8793 -1.763889,13.75833 -2.645833,20.6375 -0.440981,5.29177 -0.881945,10.58333 -1.322917,15.875 0,-0.26459 0,-0.52917 0,-0.79375 0,10.93633 0,21.87222 0,32.80833 -0.264589,6.08554 -0.529167,12.17083 -0.79375,18.25625 0.440981,5.73275 0.881944,11.46527 1.322916,17.19791 0,0 0,0 0,0 0,0 0,0 0,0 0,0 0,0 0,0 0,0 0,0 0,0 0,0 0,0 0,0"
         transform="translate(-17.99167,-1.5874997)" /><path
         style="fill:#f9f9f9;stroke-width:0.264583"
         d="m 84.269792,257.1309 c -1.984375,0.30868 -4.365624,1.36702 -6.26182,2.11667 -1.896196,0.74966 -3.307279,1.19062 -3.836442,2.11668 -0.529163,0.92605 -0.176391,2.33714 0.440981,3.88056 0.617372,1.54343 1.499295,3.21908 2.601741,4.6743 1.102446,1.45522 2.425327,2.68991 3.748256,3.88055 1.322929,1.19064 2.645827,2.33715 4.409736,3.57188 1.763909,1.23473 3.968726,2.55762 6.261807,3.74826 2.293081,1.19064 4.674282,2.24895 7.011457,3.0868 2.337172,0.83785 4.630182,1.4552 7.011462,1.67568 2.38127,0.22049 4.85067,0.0441 7.40834,-0.44097 2.55766,-0.48508 5.20344,-1.27881 7.67291,-2.11667 2.46946,-0.83785 4.76247,-1.71978 7.45244,-3.35141 2.68996,-1.63162 5.7767,-4.01282 7.67288,-5.77672 1.89619,-1.76389 2.60174,-2.91041 3.13091,-4.18924 0.52916,-1.27882 0.88194,-2.68992 0.97013,-4.27744 0.0882,-1.58751 -0.0882,-3.35136 -1.01425,-4.4538 -0.92606,-1.10243 -2.60172,-1.5434 -3.92465,-1.98437 -1.32292,-0.44098 -2.29304,-0.88194 -3.0868,-1.32292 -0.79376,-0.44098 -1.4111,-0.88194 -2.20486,-1.01423 -0.79376,-0.13229 -1.76388,0.0441 -2.95452,0.39688 -1.19064,0.35279 -2.60172,0.88194 -6.57053,1.41112 -3.96882,0.52917 -10.49508,1.05832 -14.59614,1.10242 -4.10106,0.0441 -5.776722,-0.39688 -7.452433,-0.66146 -1.67571,-0.26459 -3.351371,-0.35278 -4.806592,-0.57327 -1.455221,-0.22049 -2.689916,-0.57326 -4.101044,-0.97014 -1.411127,-0.39688 -2.998595,-0.83784 -4.982969,-0.52916 z"
         id="path3"
         inkscape:path-effect="#path-effect4"
         inkscape:original-d="m 84.666666,256.38125 c -2.38125,1.05833 -4.7625,2.11666 -7.14375,3.175 -1.41114,0.44098 -2.822223,0.88194 -4.233334,1.32291 0.352785,1.41114 0.705557,2.82223 1.058334,4.23334 0.881962,1.67574 1.763889,3.35139 2.645833,5.02708 1.322943,1.23476 2.645833,2.46944 3.96875,3.70417 1.322943,1.14654 2.645833,2.29306 3.96875,3.43958 2.204905,1.32294 4.409723,2.64583 6.614583,3.96875 2.381298,1.05836 4.7625,2.11667 7.14375,3.175 2.293098,0.61738 4.586108,1.23473 6.879168,1.85208 2.46949,-0.17639 4.93889,-0.35277 7.40833,-0.52916 2.64589,-0.79378 5.29167,-1.5875 7.9375,-2.38125 2.2931,-0.88197 4.58611,-1.7639 6.87917,-2.64584 3.08687,-2.3813 6.17361,-4.7625 9.26041,-7.14375 0.70557,-1.14654 1.41112,-2.29306 2.11667,-3.43958 0.35279,-1.41113 0.70556,-2.82223 1.05833,-4.23333 -0.17639,-1.76393 -0.35277,-3.52778 -0.52916,-5.29167 -1.67573,-0.44098 -3.35139,-0.88194 -5.02709,-1.32292 -0.97015,-0.44098 -1.94027,-0.88194 -2.91041,-1.32291 -0.61738,-0.44098 -1.23472,-0.88195 -1.85208,-1.32292 -0.97016,0.17639 -1.94028,0.35278 -2.91042,0.52917 -1.41114,0.52917 -2.82222,1.05833 -4.23333,1.5875 -6.52652,0.52917 -13.05278,1.05833 -19.57917,1.5875 -1.67573,-0.44098 -3.351391,-0.88195 -5.027085,-1.32292 -1.675728,-0.0882 -3.351389,-0.17639 -5.027083,-0.26458 -1.234747,-0.35279 -2.469443,-0.70556 -3.704166,-1.05834 -1.587532,-0.44098 -3.175,-0.88194 -4.7625,-1.32291 z"
         transform="translate(-1.05833,9.525)" /><path
         style="fill:#ececec;stroke-width:0.264583"
         d="m -51.329164,320.80729 c 1.763884,1.27881 4.056945,2.95452 6.614608,4.27744 2.557664,1.32292 5.379829,2.29304 7.981592,2.9545 2.601764,0.66147 4.982965,1.01424 8.46669,0.70555 3.483725,-0.30869 8.069745,-1.27881 11.773938,-2.68994 3.704193,-1.41113 6.5263654,-3.26318 8.4225558,-5.15938 1.8961904,-1.8962 2.8663147,-3.83645 3.3954792,-5.11527 0.5291645,-1.27882 0.617357,-1.89617 0.5291599,-2.64583 -0.088197,-0.74966 -0.3527764,-1.63159 -0.9260522,-2.46945 -0.5732757,-0.83785 -1.4551955,-1.63158 -2.1607573,-2.11665 -0.7055618,-0.48507 -1.234713,-0.66146 -1.8079845,-0.74965 -0.5732716,-0.0882 -1.1906209,-0.0882 -2.0284779,0.13229 -0.837857,0.22049 -1.896168,0.66146 -2.99861,1.01424 -1.102442,0.35278 -2.24895,0.61736 -3.527783,0.79375 -1.278833,0.17639 -2.689917,0.26458 -4.453826,0.44097 -1.76391,0.17639 -3.880534,0.44097 -6.085418,0.57326 -2.204884,0.13229 -4.497893,0.13229 -6.746874,0.0882 -2.248981,-0.0441 -4.453799,-0.13229 -6.526387,-0.39687 -2.072588,-0.26459 -4.012827,-0.70556 -5.688535,-1.14653 -1.675709,-0.44098 -3.08679,-0.88194 -4.365622,-1.23472 -1.278832,-0.35278 -2.425339,-0.61736 -3.307289,-0.70555 -0.88195,-0.0882 -1.499299,0 -2.028473,0.44098 -0.529173,0.44099 -0.970131,1.23471 -1.36701,1.71978 -0.39688,0.48507 -0.749645,0.66146 -0.926035,1.05834 -0.176391,0.39688 -0.176391,1.01424 0.132297,1.85209 0.308688,0.83786 0.926036,1.89617 1.543406,2.82222 0.61737,0.92605 1.234712,1.71978 2.160766,2.55764 0.926053,0.83785 2.160757,1.71978 3.924642,2.9986 z"
         id="path4"
         inkscape:path-effect="#path-effect5"
         inkscape:original-d="m -51.858333,320.41041 c 2.293057,1.67569 4.58611,3.3514 6.879167,5.02709 2.822279,0.97014 5.644443,1.94026 8.466666,2.91041 2.381298,0.3528 4.7625,0.70557 7.14375,1.05834 4.586203,-0.97015 9.172223,-1.94027 13.758334,-2.91042 2.822278,-1.85211 5.6444438,-3.70417 8.4666661,-5.55625 0.9701583,-1.94032 1.9402777,-3.88057 2.9104166,-5.82083 0.088196,-0.61738 0.176389,-1.23473 0.2645833,-1.85209 -0.2645886,-0.88196 -0.5291666,-1.76389 -0.7937499,-2.64583 -0.8819621,-0.79378 -1.763889,-1.5875 -2.6458333,-2.38125 -0.5291773,-0.1764 -1.0583334,-0.35277 -1.5875,-0.52917 -0.6173735,0 -1.2347228,0 -1.8520838,0 -1.058354,0.44098 -2.116666,0.88194 -3.174999,1.32292 -1.146551,0.26458 -2.293056,0.52917 -3.439584,0.79375 -1.411139,0.0882 -2.822222,0.1764 -4.233333,0.26458 -2.116709,0.26459 -4.233333,0.52917 -6.35,0.79375 -2.293101,0 -4.58611,0 -6.879167,0 -2.204905,-0.0882 -4.409723,-0.17639 -6.614583,-0.26458 -1.940316,-0.44098 -3.880556,-0.88194 -5.820833,-1.32292 -1.411139,-0.44098 -2.822223,-0.88193 -4.233333,-1.32291 -1.146551,-0.26459 -2.293057,-0.52917 -3.439584,-0.79375 -0.617373,0.0882 -1.234723,0.17639 -1.852083,0.26458 -0.440981,0.79378 -0.881944,1.5875 -1.322917,2.38125 -0.352784,0.1764 -0.705556,0.35277 -1.058333,0.52917 0,0.61737 0,1.23473 0,1.85208 0.617374,1.05836 1.234723,2.11667 1.852083,3.175 0.617374,0.79378 1.234723,1.5875 1.852084,2.38125 1.234747,0.88196 2.469443,1.7639 3.704166,2.64583 z"
         transform="translate(137.58333,-42.333333)" /></g><path
       d="m 95.825384,108.70232 q 0,0.7435 -0.755395,0.7435 h -2.361356 q -0.767291,0 -0.767291,-0.7435 v -4.52047 q 0,-0.7435 0.767291,-0.7435 h 2.361356 q 0.755395,0 0.755395,0.7435 v 1.42751 h -1.326403 v -1.03495 h -1.21934 v 3.74129 h 1.21934 v -1.14796 h 1.326403 z m 4.936836,0 q 0,0.7435 -0.75539,0.7435 h -2.438682 q -0.767292,0 -0.767292,-0.7435 v -4.52047 q 0,-0.7435 0.767292,-0.7435 h 2.438682 q 0.75539,0 0.75539,0.7435 z m -1.332349,-0.38662 v -3.74129 h -1.290715 v 3.74129 z m 6.185919,1.13012 h -1.30261 v -0.20818 q -0.46395,0.0714 -0.92789,0.14276 -0.6067,0.0892 -0.92194,0.0892 -0.7435,0 -0.7435,-0.73161 v -2.16507 q 0,-0.7435 0.76729,-0.7435 h 1.83793 v -1.37993 h -1.30261 v 0.85651 h -1.23123 v -1.12417 q 0,-0.7435 0.76729,-0.7435 h 2.30187 q 0.7554,0 0.7554,0.7435 z m -1.29072,-1.08253 v -1.61191 h -1.30261 v 1.65949 z m 6.04317,0.33903 q 0,0.7435 -0.7554,0.7435 h -2.28998 q -0.75539,0 -0.75539,-0.7435 v -1.29071 h 1.30261 v 1.01116 h 1.19555 v -0.95168 l -2.08775,-1.23124 q -0.41041,-0.24387 -0.41041,-0.65428 v -1.40372 q 0,-0.7435 0.76729,-0.7435 h 2.26619 q 0.75539,0 0.75539,0.7435 v 1.20744 h -1.29071 v -0.92789 h -1.19555 v 0.86841 l 2.0818,1.21934 q 0.41636,0.23792 0.41636,0.66617 z m 3.54501,0.7435 h -1.51079 q -0.7554,0 -0.7554,-0.7435 v -4.10411 h -0.64238 v -1.15986 h 0.64238 v -1.62976 h 1.35614 v 1.62976 h 0.87436 v 1.15986 h -0.87436 v 3.68775 h 0.91005 z m 7.05432,-3.49742 h -1.35019 v -1.37399 l -1.07659,0.0238 v 4.84761 h -1.36209 v -6.00747 h 1.36209 v 0.22007 q 0.42231,-0.0773 0.83867,-0.15465 0.50558,-0.0892 0.84461,-0.0892 0.7435,0 0.7435,0.73161 z m 4.65134,2.75392 q 0,0.7435 -0.76729,0.7435 h -2.34946 q -0.76729,0 -0.76729,-0.7435 v -4.52047 q 0,-0.7435 0.76729,-0.7435 h 2.34946 q 0.76729,0 0.76729,0.7435 v 2.2067 l -0.37473,0.37473 h -2.2067 v 1.68328 h 1.27882 v -0.99926 h 1.30261 z m -1.30261,-2.8253 v -1.43941 h -1.27882 v 1.43941 z m 6.29892,2.36136 q 0,0.7316 -0.52342,1.02306 -0.38067,0.20818 -1.15391,0.20818 -0.17844,0 -0.50558,-0.0119 -0.32119,-0.0119 -0.46394,-0.0119 v 2.19482 h -1.3621 v -8.20229 h 1.3621 v 0.22007 q 0.47584,-0.0714 0.95168,-0.1487 0.60074,-0.0952 0.95167,-0.0952 0.7435,0 0.7435,0.73161 z m -1.36804,-0.37472 v -3.28925 l -1.27881,0.0238 v 3.71749 h 0.84461 q 0.4342,0 0.4342,-0.45204 z m 6.32868,1.58216 h -1.35615 v -0.20818 q -0.46989,0.0773 -0.94573,0.15465 -0.57696,0.0892 -0.95168,0.0892 -0.7435,0 -0.7435,-0.7435 v -5.29966 h 1.3502 v 4.87735 l 1.29071,-0.0297 v -4.84761 h 1.35615 z m 4.99632,-1.20744 q 0,0.56506 -0.33904,0.88625 -0.33904,0.32119 -0.9041,0.32119 h -2.76582 v -9.30861 h 1.3621 v 3.52121 q 0.47584,-0.0714 0.95168,-0.1487 0.60074,-0.0952 0.95168,-0.0952 0.7435,0 0.7435,0.73161 z m -1.36804,-0.37472 v -3.28925 l -1.27882,0.0238 v 3.71749 h 0.84461 q 0.43421,0 0.43421,-0.45204 z m 3.71749,1.58216 h -1.3383 v -9.30861 h 1.3383 z m 2.39705,-6.86993 h -1.36209 v -1.40373 h 1.36209 z m -0.0119,6.86993 h -1.3383 v -6.00747 h 1.3383 z m 4.89521,-0.7435 q 0,0.7435 -0.7554,0.7435 h -2.36135 q -0.7673,0 -0.7673,-0.7435 v -4.52047 q 0,-0.7435 0.7673,-0.7435 h 2.36135 q 0.7554,0 0.7554,0.7435 v 1.42751 h -1.32641 v -1.03495 h -1.21934 v 3.74129 h 1.21934 v -1.14796 h 1.32641 z"
       id="text1"
       style="font-weight:bold;font-stretch:condensed;font-size:12.1815px;font-family:'Agency FB';-inkscape-font-specification:'Agency FB Bold Condensed';stroke-width:0.32629"
       aria-label="coast republic" /><g
       id="g25"
       transform="matrix(0.21805786,0,0,0.21805786,88.062853,62.840192)"><path
         style="fill:#1a1a1a;stroke-width:0.264583"
         d="m 86.809142,312.62515 33.021148,0.0936 -7.20291,-9.07381 -11.03823,-8.60607 v 0 l -10.851145,-5.23852 0.467721,0.18709 -10.009244,-2.24507 v 0 l -0.374177,1.77735 0.09354,5.89329 2.15152,9.54152 z"
         id="path11" /><path
         style="fill:#1a1a1a;stroke-width:0.264583"
         d="m 122.1689,312.9058 28.34393,-0.28065 0.46772,-13.84456 -2.61924,-11.97366 -4.58367,-11.13179 -2.80633,-3.92885 -4.20949,-5.89329 -3.08697,3.08696 -5.51911,8.79317 -4.95785,13.84456 -0.74836,5.23848 -0.93544,8.41899 z"
         id="path12" /><path
         style="fill:#1a1a1a;stroke-width:0.264583"
         d="m 153.41271,312.81224 33.02115,-0.0935 3.36759,-8.04481 1.40317,-5.98684 1.02899,-5.33206 -0.46772,-5.89329 -5.51912,1.12253 -13.75102,5.33203 -7.29645,5.42557 -8.32545,7.67064 z"
         id="path13" /><path
         style="fill:#1a1a1a;stroke-width:0.264583"
         d="m 89.428382,316.74112 94.479778,0.18708 -2.43215,4.30303 -36.20166,-0.28062 -34.98558,0.28062 -18.241145,-0.0935 z"
         id="path14" /><path
         style="fill:#1a1a1a;stroke-width:0.264583"
         d="m 96.163576,325.72137 80.541674,0.0935 -3.55469,4.02241 v 0 l -73.432302,0.0935 z"
         id="path15" /><path
         style="fill:#1a1a1a;stroke-width:0.264583"
         d="m 106.17282,333.85974 21.88937,-0.0936 0.56127,9.63507 -8.04481,-1.59025 -8.98026,-3.64824 z"
         id="path16" /><path
         style="fill:#1a1a1a;stroke-width:0.264583"
         d="m 129.37181,333.95327 14.03165,-0.18709 -3.27405,5.79975 -3.55468,4.49013 z"
         id="path17" /><path
         style="fill:#1a1a1a;stroke-width:0.264583"
         d="m 144.90017,333.95327 22.45064,-0.0935 -2.89987,1.77734 -7.57709,4.49011 -9.72861,3.1805 -3.18051,-0.18708 z"
         id="path18" /><path
         style="fill:#1a1a1a;stroke-width:0.264583"
         d="m 95.882943,356.87164 0.187087,-1.30964 4.49013,0.0936 v 19.17657 l -4.583674,0.18709 -0.09354,-1.59025 h -1.403167 l -1.122532,0.93546 -2.899873,0.8419 -4.022408,-0.65481 -3.274052,-1.77734 -2.712783,-4.30305 -0.374179,-5.42557 0.280633,-1.68381 3.086962,-4.2095 4.022408,-1.68378 3.274052,-0.28064 2.61924,0.28064 1.403165,1.02899 z"
         id="path19" /><path
         style="fill:#1a1a1a;stroke-width:0.264583"
         d="m 117.58523,348.92035 4.77076,0.18711 -0.0936,25.91176 v 0 h -4.39658 l -0.46772,-1.77734 -1.59025,0.93546 -1.77735,0.74835 -2.43215,0.37417 -2.99342,-0.65481 -2.33861,-1.21608 -2.43215,-1.87087 -1.40317,-2.33862 -0.46772,-1.68379 v -2.52571 -2.15151 l 1.59026,-3.36759 2.43215,-2.61924 2.5257,-1.21608 2.05797,-0.37418 h 1.49671 l 3.46114,0.65482 2.33861,1.59025 z"
         id="path20" /><path
         style="fill:#1a1a1a;stroke-width:0.264583"
         d="m 124.60105,356.12329 0.18709,18.33467 4.39658,0.18709 0.18709,-18.98949 z"
         id="path21" /><path
         style="fill:#1a1a1a;stroke-width:0.264583"
         d="m 124.78814,353.69113 4.58367,0.28062 v -4.86429 l -5.14494,-0.18711 z"
         id="path22" /><path
         style="fill:#1a1a1a;stroke-width:0.264583"
         d="m 146.67752,357.15225 -0.0935,-8.2319 h 4.77076 l 0.28064,26.19243 -5.14494,-0.56126 v -1.49672 l -3.55469,1.96442 -5.23848,-0.28062 -3.92886,-2.15151 -1.6838,-2.43215 -1.12253,-3.18051 0.46772,-5.0514 2.15152,-3.64823 3.08696,-1.96442 2.33861,-0.93547 4.0224,-0.0935 2.43216,1.12253 z"
         id="path23" /><path
         style="fill:#1a1a1a;stroke-width:0.264583"
         d="m 168.56689,357.24581 v -1.8709 l 4.39658,0.0936 0.46773,19.36366 -4.77077,-0.0935 -0.46772,-1.49672 -1.02899,0.18709 -1.02898,1.12255 -2.05798,0.93543 -2.80633,-0.46773 -2.80633,-0.65479 -3.27405,-2.05798 -1.87089,-2.43216 -0.65481,-3.1805 -0.0935,-3.08697 1.77734,-4.30303 2.33861,-2.61924 2.5257,-1.12255 2.71278,-0.37417 3.55469,0.18708 z"
         id="path24" /><path
         style="fill:#1a1a1a;stroke-width:0.264583"
         d="m 186.90158,361.54886 h 4.58367 l -0.37418,-2.33862 -1.49671,-2.05799 -2.05797,-0.93543 -2.15152,-1.02899 h -4.2095 l -3.36759,1.21608 -1.12253,1.59025 -1.02899,1.77734 -0.37418,2.52571 0.28063,1.68378 0.56127,1.02899 1.49671,1.12255 1.12253,0.65479 h 1.59026 l 1.21607,0.3742 1.96443,0.37417 1.30962,0.28062 1.77734,0.37417 0.84191,0.93547 -0.74836,1.96442 -1.87089,1.02899 h -2.3386 l -1.77735,-0.93543 -0.56126,-1.8709 -0.28064,-1.21608 -3.92886,0.28065 h -1.12253 l -0.0935,1.30961 1.12254,2.89988 1.6838,1.30961 2.99341,1.59025 2.43216,0.18709 3.1805,-0.28062 2.5257,-0.93546 2.80633,-1.87087 0.56127,-2.05798 0.37418,-2.89989 -0.18709,-1.21607 -0.74836,-1.30961 -1.6838,-0.93544 -1.77734,-0.8419 -2.80633,-0.56129 -2.61924,-0.56126 -1.6838,-0.37417 -0.65481,-1.12252 0.0935,-1.21608 1.40316,-0.46773 2.24506,-0.37418 2.61924,1.30961 z"
         id="path25" /></g></g></svg>
