<?xml version="1.0" encoding="UTF-8" standalone="no"?>
<!-- Created with Inkscape (http://www.inkscape.org/) -->

<svg
   width="1122.5197"
   height="793.70081"
   viewBox="0 0 297 210"
   version="1.1"
   id="svg5"
   inkscape:version="1.1.2 (b8e25be8, 2022-02-05)"
   sodipodi:docname="coast.svg"
   xmlns:inkscape="http://www.inkscape.org/namespaces/inkscape"
   xmlns:sodipodi="http://sodipodi.sourceforge.net/DTD/sodipodi-0.dtd"
   xmlns="http://www.w3.org/2000/svg"
   xmlns:svg="http://www.w3.org/2000/svg">
  <sodipodi:namedview
     id="namedview7"
     pagecolor="#ffffff"
     bordercolor="#cccccc"
     borderopacity="1"
     inkscape:pageshadow="0"
     inkscape:pageopacity="1"
     inkscape:pagecheckerboard="0"
     inkscape:document-units="px"
     showgrid="false"
     units="px"
     inkscape:zoom="0.39108446"
     inkscape:cx="586.82976"
     inkscape:cy="433.41022"
     inkscape:window-width="1280"
     inkscape:window-height="703"
     inkscape:window-x="0"
     inkscape:window-y="25"
     inkscape:window-maximized="0"
     inkscape:current-layer="layer1" />
  <defs
     id="defs2" />
  <g
     inkscape:label="Layer 1"
     inkscape:groupmode="layer"
     id="layer1">
    <g
       id="g1270"
       transform="matrix(0.77065592,0,0,0.77065592,35.011421,14.505924)">
      <g
         id="g1373">
        <g
           id="g1476">
          <g
             id="g1579" />
        </g>
      </g>
    </g>
    <g
       id="g1692"
       transform="translate(-0.67653759,20.296128)">
      <g
         id="g1682"
         transform="matrix(0.77065593,0,0,0.77065593,24.261246,14.505924)">
        <path
           d="m 158.16771,43.642523 c -3.82361,0 -7.36177,0.454027 -10.61491,1.360849 v 4.546842 c 3.08426,-1.328774 6.49314,-1.994023 10.22721,-1.994023 2.21892,0 4.42979,0.224792 6.63195,0.674079 -0.30099,-1.226715 -0.8876,-2.264344 -1.78518,-3.178928 a 1.2337379,1.2337379 0 0 1 -0.009,-0.0083 c -0.51173,-0.532059 -1.0755,-0.964648 -1.69438,-1.312551 -0.90805,-0.05631 -1.82576,-0.08779 -2.75554,-0.08779 z m 12.52958,1.892745 c 0.32691,1.347214 0.49514,2.809012 0.49514,4.377223 0,0.145399 -0.009,0.284371 -0.012,0.42803 1.80387,0.766404 3.44177,1.635606 4.91072,2.609659 v -5.341543 c -1.77767,-0.815113 -3.57558,-1.506277 -5.3937,-2.073616 z m -29.79,2.166557 c -1.20294,0.663688 -2.35544,1.407586 -3.45595,2.234117 -5.48282,4.160374 -8.22464,9.255087 -8.22464,15.283729 0,6.205241 2.94828,11.370184 8.84521,15.495236 0.91943,0.64443 1.86498,1.233411 2.83534,1.769784 v -6.361718 c -3.44092,-3.174656 -5.16289,-6.879197 -5.16289,-11.11514 0,-2.326976 0.51731,-4.512754 1.55182,-6.557621 0.86156,-1.62193 2.06622,-3.14365 3.61115,-4.566145 z M 176.091,77.541936 c -3.15532,1.657086 -6.25905,2.891112 -9.31054,3.701993 -3.00015,0.775646 -5.94855,1.163426 -8.84521,1.163426 -3.81933,0 -7.28004,-0.658882 -10.38245,-1.975539 v 4.773956 c 3.02808,0.848998 6.25617,1.2737 9.68385,1.2737 5.63807,0 11.92299,-1.2691 18.85435,-3.807626 z"
           stroke-width="0.333635"
           id="path824"
           style="fill:#164450;stroke:#24221c" />
        <path
           d="m 183.09815,29.293874 -23.35483,47.362371 3.74721,1.847787 10.75398,-21.808497 5.50203,2.713104 c 2.84595,1.403361 4.5279,3.134067 5.0462,5.192047 0.66831,2.2321 0.42938,6.144491 -0.71701,11.737711 l -0.46064,2.118345 c 0.70557,0.191646 1.42406,0.365072 2.15747,0.517716 0.62816,0.126231 1.26779,0.236053 1.91707,0.332083 l 1.48855,-8.412856 c 0.51945,-2.647777 0.52348,-4.848548 0.0127,-6.602846 -0.0941,-0.44694 -0.28703,-0.892477 -0.57896,-1.336822 -0.27206,-0.484625 -0.60741,-1.000543 -1.00595,-1.547556 3.57997,0.313356 6.53644,-0.181381 8.86906,-1.484245 2.33284,-1.30294 4.26391,-3.505067 5.79311,-6.6062 2.22432,-4.510808 2.31104,-8.47344 0.2603,-11.887821 -1.47504,-2.429659 -3.85673,-4.455225 -7.14535,-6.076874 z m 1.69181,6.016029 9.24926,4.560896 c 2.56135,1.263027 4.2197,3.0821 4.9746,5.457041 0.70803,2.151541 0.51587,4.334871 -0.57649,6.550125 -0.57594,1.167963 -1.36342,2.206605 -2.36218,3.11597 -0.96716,0.924995 -1.97136,1.606388 -3.01275,2.044141 -1.57604,0.724853 -3.29356,0.979442 -5.15263,0.763654 -1.80763,-0.240482 -3.84982,-0.922064 -6.12651,-2.044721 l -5.69211,-2.806829 z m 1.8091,50.159278 c -1.48346,-0.294197 -2.91414,-0.629777 -4.28947,-1.009079 l -0.65299,3.00302 4.22165,2.081739 z"
           stroke-width="0.310854"
           id="path826"
           style="fill:#164450;stroke:#87cdde" />
      </g>
      <g
         aria-label="Coast Republic"
         id="text830"
         style="font-size:26.1819px;line-height:1.25;font-family:'Academy Engraved LET';-inkscape-font-specification:'Academy Engraved LET, Normal';fill:#374548;stroke:#374548;stroke-width:0.136368">
        <path
           d="m 84.628172,100.52203 1.495743,4.56394 h -0.434661 q -0.626422,-1.2145 -1.316765,-2.08382 -0.677559,-0.86932 -1.431823,-1.40625 -0.741479,-0.54972 -1.585232,-0.8054 -0.843753,-0.25568 -1.904835,-0.25568 -1.508528,0 -2.812509,0.57528 -1.303982,0.57529 -2.262791,1.62359 -0.95881,1.0483 -1.495744,2.48012 -0.524149,1.43182 -0.524149,3.08097 0,2.49291 0.984378,4.55115 0.984378,2.04547 2.697452,3.22161 1.725857,1.16335 3.822455,1.16335 1.444607,0 2.697451,-0.5625 1.265629,-0.5625 2.250007,-1.62358 0.984378,-1.06109 1.713074,-2.67189 h 0.524149 q -1.073867,2.83808 -3.234385,4.30825 -2.160518,1.45739 -5.279846,1.45739 -3.643477,0 -6.03411,-1.96875 -1.02273,-0.85654 -1.725857,-1.94319 -0.690343,-1.08665 -1.061083,-2.37785 -0.37074,-1.30398 -0.37074,-2.67188 0,-2.54404 1.278413,-4.65342 1.291197,-2.10939 3.541204,-3.31109 2.262792,-1.214497 4.998596,-1.214497 1.150571,0 3.029839,0.332387 1.303981,0.2429 1.892051,0.2429 0.255683,0 0.549718,-0.0511 z m -6.583828,17.18187 q -1.623584,-0.44744 -2.94035,-1.27841 -1.316765,-0.83097 -2.19887,-1.98154 -0.882105,-1.15057 -1.342334,-2.60796 -0.447445,-1.47018 -0.447445,-3.19603 0,-1.27842 0.230115,-2.30115 0.230114,-1.02273 0.741479,-1.94319 0.52415,-0.93324 1.316766,-1.72585 0.792616,-0.79262 1.930403,-1.55967 -1.342333,0.60086 -2.365064,1.43183 -1.02273,0.81818 -1.725857,1.85369 -0.703128,1.02273 -1.061083,2.25001 -0.357956,1.21449 -0.357956,2.54404 0,1.43183 0.409092,2.73581 0.409092,1.30398 1.163356,2.39063 0.754264,1.08665 1.828131,1.84091 1.073867,0.74148 2.211654,1.11222 1.150572,0.35796 2.607963,0.43466 z"
           id="path831" />
        <path
           d="m 88.02875,112.53912 q 0,-1.48296 0.792616,-2.74859 0.805401,-1.27842 2.160519,-2.00711 1.367902,-0.74148 2.991486,-0.74148 1.214493,0 2.28836,0.42188 1.073867,0.40909 1.892051,1.17614 0.818184,0.75426 1.265629,1.77699 0.460229,1.00995 0.460229,2.12217 0,1.47017 -0.792616,2.74858 -0.779832,1.27842 -2.147734,2.0199 -1.355118,0.72869 -2.953135,0.72869 -1.623584,0 -2.991486,-0.72869 -1.367902,-0.7287 -2.173303,-1.99433 -0.792616,-1.27841 -0.792616,-2.77415 z m 2.799725,-0.0767 q 0,1.11222 0.21733,2.04546 0.230115,0.93324 0.651991,1.59802 0.421876,0.65199 0.997162,1.00994 0.58807,0.35796 1.278413,0.35796 0.677559,0 1.265629,-0.35796 0.58807,-0.37074 0.997162,-1.00994 0.409093,-0.65199 0.626423,-1.59802 0.230114,-0.94602 0.230114,-2.04546 0,-1.47017 -0.396308,-2.60796 -0.383524,-1.13779 -1.099435,-1.76421 -0.703127,-0.62642 -1.636369,-0.62642 -1.419038,0 -2.275575,1.38068 -0.856537,1.38069 -0.856537,3.61791 z m 0.984378,4.84519 q -0.613638,-0.4858 -0.843753,-0.71592 -0.21733,-0.24289 -0.473012,-0.6392 -0.818185,-1.32955 -0.818185,-3.42615 0,-3.47728 2.365064,-4.88354 -1.073867,0.39631 -1.892051,1.15058 -0.8054,0.75426 -1.252845,1.71307 -0.43466,0.95881 -0.43466,2.03268 0,1.04829 0.43466,2.01989 0.434661,0.97159 1.214493,1.67472 0.421876,0.34517 0.677559,0.51136 0.255682,0.1662 1.02273,0.56251 z m 3.451715,0.20454 q 1.687506,-0.74148 2.569611,-2.01989 0.894889,-1.2912 0.894889,-2.95313 0,-1.70029 -0.869321,-3.02984 -0.856537,-1.32955 -2.288359,-1.87927 1.955972,1.43182 1.955972,4.87075 0,1.73864 -0.498582,2.902 -0.485797,1.16336 -1.559664,1.95597 z"
           id="path833" />
        <path
           d="m 107.76745,116.59168 q -1.57245,1.32955 -3.37501,1.32955 -1.44461,0 -2.31393,-0.74148 -0.85654,-0.75426 -0.85654,-1.96875 0,-1.72586 1.68751,-2.71024 1.6875,-0.98437 4.85797,-1.11222 v -0.35795 -0.17898 q 0,-0.99716 -0.0895,-1.62358 -0.0895,-0.63921 -0.25568,-0.95881 -0.19177,-0.37074 -0.54972,-0.58807 -0.34517,-0.23012 -0.75427,-0.23012 -0.60085,0 -0.94602,0.39631 -0.34517,0.38352 -0.43466,1.20171 -0.10227,0.8054 -0.33239,1.09943 -0.23011,0.28125 -0.79262,0.28125 -0.43466,0 -0.72869,-0.30682 -0.29404,-0.30681 -0.29404,-0.79261 0,-0.65199 0.47302,-1.17614 0.47301,-0.53693 1.30398,-0.84375 0.84375,-0.30682 1.84091,-0.30682 1.2912,0 2.26279,0.52415 0.9716,0.51136 1.44461,1.43182 0.25568,0.47301 0.35796,1.06108 0.11505,0.58807 0.11505,1.62359 v 3.68183 q 0,1.06108 0.30682,1.50852 0.31961,0.44745 1.18893,0.60086 v 0.34517 h -4.11649 z m 0,-0.5625 v -4.23154 q -1.24006,0.19176 -2.13495,0.6392 -0.88211,0.44745 -1.35512,1.13779 -0.47301,0.69034 -0.47301,1.52131 0,0.84375 0.49858,1.40626 0.51136,0.54971 1.27841,0.54971 0.94603,0 2.18609,-1.02273 z m 0.43466,1.18893 h 1.89205 l -0.29404,-0.23012 q 0,0 -0.0256,-0.0128 -0.0128,-0.0256 -0.0256,-0.0256 l -0.1662,-0.12784 q -0.19176,-0.19176 -0.19176,-0.4858 v -0.25568 l -0.0128,-0.12784 v -4.34661 q 0,-1.77699 -0.40909,-2.6591 -0.57529,-1.17614 -1.80257,-1.50852 0.81819,0.57528 0.95881,1.82813 0.0767,0.76705 0.0767,2.37785 z m -3.24717,0.34517 q -2.1733,-0.44745 -2.1733,-2.37785 0,-1.25284 1.00994,-2.14773 0.44745,-0.39631 1.72586,-1.00995 -1.54688,0.29404 -2.40342,0.8054 -1.45739,0.89489 -1.45739,2.36506 0,1.06109 0.76705,1.72586 0.77983,0.65199 2.00711,0.65199 0.29403,0 0.52415,-0.0128 z m 0,-10.09946 q -0.89489,0.23011 -1.44461,0.75426 -0.53693,0.51136 -0.53693,1.15057 0,0.2429 0.11506,0.38352 0.11505,0.14063 0.30681,0.14063 0.17898,0 0.26847,-0.10227 0.0895,-0.11506 0.15341,-0.44745 0.14063,-0.71591 0.35796,-1.07386 0.23011,-0.37074 0.77983,-0.8054 z"
           id="path835" />
        <path
           d="m 119.91237,107.66836 0.53694,2.96592 h -0.34518 q -0.38352,-1.45739 -1.21449,-2.28836 -0.81818,-0.84375 -1.89205,-0.84375 -0.63921,0 -1.07387,0.38352 -0.42187,0.37074 -0.42187,0.92046 0,0.51136 0.33239,0.84375 0.34517,0.31961 1.53409,0.9716 1.94319,1.06108 2.71024,1.67472 1.21449,0.93324 1.21449,2.42898 0,0.75427 -0.29404,1.35512 -0.29403,0.60085 -0.86932,1.0483 -0.57528,0.44744 -1.3679,0.67756 -0.79261,0.2429 -1.72586,0.2429 -1.54688,0 -3.70739,-0.70313 l -0.30682,-3.88638 h 0.30682 q 1.15057,3.97587 3.57955,3.97587 0.85654,0 1.40626,-0.51137 0.5625,-0.51136 0.5625,-1.34233 0,-0.84375 -0.65199,-1.35512 -0.38353,-0.30682 -1.89205,-1.13779 -1.50853,-0.83097 -2.07103,-1.30398 -0.90768,-0.75426 -0.90768,-1.91762 0,-1.25284 0.9716,-2.03267 0.98438,-0.79262 2.53126,-0.79262 1.22727,0 3.0554,0.62642 z m -2.00711,9.89492 q 1.15058,-0.15341 1.80257,-0.8054 0.65199,-0.65199 0.65199,-1.66194 0,-0.99716 -0.74148,-1.76421 -0.63921,-0.67756 -2.46734,-1.63637 -1.50853,-0.81818 -2.03268,-1.31676 -0.51136,-0.49858 -0.51136,-1.15057 0,-0.98438 1.11222,-1.75143 -0.93324,0.30682 -1.44461,0.92046 -0.49858,0.61364 -0.49858,1.41904 0,0.94602 0.66477,1.54688 0.51137,0.47301 2.05825,1.34233 1.67472,0.90767 2.13495,1.32955 0.67756,0.61364 0.67756,1.53409 0,1.44461 -1.40626,1.99433 z m -4.20597,-0.54972 0.23011,0.0767 q 0.49858,0.19176 1.15057,0.34517 l 0.28125,0.0639 q -0.60085,-0.39631 -0.98438,-0.79262 -0.38352,-0.40909 -0.8054,-1.08665 z"
           id="path837" />
        <path
           d="m 125.98484,107.69393 v 6.77559 q 0,0.99716 0.11505,1.6108 0.12784,0.60085 0.38353,0.8821 0.26846,0.28126 0.70312,0.28126 0.77984,0 1.91762,-0.92046 l 0.19177,0.30682 q -0.85654,0.74148 -1.55967,1.07386 -0.70313,0.33239 -1.4446,0.33239 -1.43183,0 -2.18609,-0.94602 -0.74148,-0.95881 -0.74148,-2.77416 v -6.66053 h -1.17614 v -0.30682 q 0.95881,-0.12784 1.67472,-0.69034 0.71591,-0.56251 1.15057,-1.54688 0.44745,-0.99717 0.63921,-2.44177 h 0.3196 v 4.64064 h 2.79973 v 0.38352 z m -1.00995,-1.64915 q -0.44744,0.74148 -1.17614,1.16335 v 6.51991 0.29403 q 0,0.7287 0.0639,1.2912 0.0639,0.54972 0.19176,0.88211 0.14063,0.33238 0.40909,0.65199 0.71592,0.83097 1.8537,0.83097 0.20455,0 0.35796,-0.0128 -0.5625,-0.12784 -0.88211,-0.33239 -0.30681,-0.20454 -0.48579,-0.58807 -0.17898,-0.3963 -0.25569,-1.07386 -0.0767,-0.67756 -0.0767,-1.67472 v -0.35796 z"
           id="path839" />
        <path
           d="m 143.99767,108.62717 v 5.25428 q 0,1.09943 0.12785,1.63637 0.14062,0.53693 0.52415,0.95881 0.67755,0.70312 2.01989,0.90767 v 0.39631 h -8.13071 v -0.39631 q 1.38069,-0.23011 2.00711,-1.06108 0.4858,-0.61364 0.4858,-2.44177 v -9.65202 q 0,-1.16336 -0.12784,-1.6875 -0.12785,-0.52415 -0.47302,-0.89489 -0.61364,-0.67756 -1.89205,-0.92046 v -0.39631 q 0.17898,0.0128 0.3196,0.0128 l 1.12501,0.0639 q 0.67756,0.0383 1.57245,0.0383 1.41903,0 2.56961,-0.11506 l 1.78977,-0.15341 q 0.84376,-0.0767 1.66194,-0.0767 1.50853,0 2.69745,0.30682 1.18893,0.30681 2.00711,0.8821 0.81819,0.57529 1.26563,1.41904 0.44745,0.83097 0.44745,1.86648 0,1.72586 -1.18893,2.69745 -1.17614,0.95881 -3.49007,1.12501 1.43183,0.5625 2.4162,1.54688 0.99717,0.97159 2.36507,3.18325 1.54688,2.48012 2.44177,3.45171 0.89489,0.97159 1.98154,1.38069 v 0.35795 q -1.39347,-0.0256 -2.37785,-0.25568 -0.97159,-0.23011 -1.94319,-0.81818 -1.21449,-0.75427 -2.28836,-2.03268 -1.07387,-1.27841 -1.87927,-2.92757 l -0.67755,-1.41904 q -0.4858,-0.99716 -0.85654,-1.4446 -0.37074,-0.46023 -0.88211,-0.62642 -0.51136,-0.1662 -1.39347,-0.1662 z m 0,-0.51136 h 2.28836 q 1.98154,0 2.85087,-0.44745 0.77983,-0.39631 1.21449,-1.22727 0.44744,-0.84376 0.44744,-1.93041 0,-1.125 -0.52415,-2.01989 -0.51136,-0.89489 -1.4446,-1.38069 -0.92046,-0.49858 -2.10939,-0.49858 -1.76421,0 -2.37784,1.09944 -0.34518,0.62642 -0.34518,1.96875 z m 4.98582,0.0511 q 0.85653,-0.19176 1.55966,-0.54971 0.71591,-0.35796 1.17614,-0.81819 0.46023,-0.46023 0.70313,-1.0483 0.25568,-0.58807 0.25568,-1.22727 0,-1.39347 -0.99716,-2.42899 -0.99716,-1.03551 -2.63353,-1.32955 0.72869,0.39631 1.22727,0.94603 0.49858,0.54971 0.75427,1.25284 0.25568,0.69034 0.25568,1.49574 0,1.39348 -0.54972,2.28836 -0.54972,0.88211 -1.75142,1.41904 z m 8.06678,9.62645 q -0.67756,-0.37074 -1.09943,-0.67756 -0.42188,-0.30681 -0.98438,-0.85653 -0.66478,-0.71591 -1.0483,-1.24006 -0.37074,-0.52415 -1.24006,-1.95598 -0.81818,-1.3679 -1.48296,-2.21165 -0.65199,-0.84375 -1.31676,-1.35512 -0.66478,-0.51136 -1.47018,-0.84375 0.51137,0.52415 0.84375,1.03551 0.17898,0.28126 0.63921,1.18893 0.14062,0.26847 0.26847,0.52415 0.14062,0.25568 0.26846,0.53693 1.3679,2.67188 2.94035,4.06535 1.57245,1.38069 3.68183,1.78978 z m -16.72164,-0.66477 h 3.73297 l -0.49859,-0.37074 q -0.43466,-0.3196 -0.5625,-0.51137 -0.11505,-0.19176 -0.11505,-0.57528 0,-0.20455 -0.0128,-0.26847 0,-0.0767 0,-0.15341 v -0.21733 -11.95316 -0.21733 q 0,-0.0767 0,-0.15341 0.0128,-0.0767 0.0128,-0.26847 0,-0.35795 0.10227,-0.54972 0.11506,-0.19176 0.4858,-0.47301 l 0.0895,-0.0639 0.71592,-0.54972 -0.46023,0.0256 q -1.16336,0.0767 -2.0966,0.0767 -0.57529,0 -1.57245,-0.0384 l 0.67756,0.4858 q 0.42188,0.28125 0.54972,0.49858 0.12784,0.20455 0.12784,0.58807 0.0128,0.21733 0.0128,0.42188 v 0.21733 11.95316 0.21733 q 0,0.20455 -0.0128,0.42188 0,0.39631 -0.11506,0.58807 -0.11505,0.17898 -0.5625,0.49858 z"
           id="path841" />
        <path
           d="m 161.88268,111.8232 v 0.28126 q 0,1.52131 0.44744,2.67188 0.44745,1.13779 1.26563,1.76421 0.83097,0.62642 1.94319,0.62642 0.58807,0 1.17614,-0.19176 0.60085,-0.20455 1.17614,-0.57529 0.58807,-0.37074 1.31676,-1.0483 l 0.25569,0.34518 q -1.31677,1.27841 -2.50569,1.82813 -1.17614,0.54971 -2.63353,0.54971 -1.52132,0 -2.73581,-0.66477 -1.20171,-0.66478 -1.86648,-1.87927 -0.66478,-1.21449 -0.66478,-2.7358 0,-1.59802 0.7287,-2.92757 0.74148,-1.32955 2.00711,-2.08381 1.27841,-0.75426 2.85086,-0.75426 1.34233,0 2.45455,0.54971 1.12501,0.54972 1.75143,1.54688 0.66477,1.02273 0.74148,2.69745 z m 0,-0.44744 h 5.10086 q -0.0128,-1.72586 -0.34517,-2.48012 -0.29403,-0.69034 -0.84375,-1.06108 -0.54972,-0.38353 -1.22728,-0.38353 -2.45455,0 -2.68466,3.92473 z m 2.99148,6.31536 q -0.90767,-0.11506 -1.45739,-0.34517 -0.54972,-0.23012 -1.07386,-0.71591 -0.77984,-0.71591 -1.2145,-1.87927 -0.43466,-1.17614 -0.43466,-2.55683 0,-0.95881 0.17898,-1.76421 0.19176,-0.8054 0.57529,-1.4446 0.3963,-0.63921 1.06108,-1.2145 -1.45739,0.79262 -2.23722,2.0966 -0.77984,1.30398 -0.77984,2.91478 0,1.38069 0.62643,2.51848 0.62642,1.125 1.73864,1.76421 1.125,0.6392 2.48012,0.6392 0.30682,0 0.53693,-0.0128 z m 3.65626,-6.31536 q -0.0383,-0.94603 -0.34517,-1.71307 -0.30682,-0.76705 -0.85653,-1.2912 -0.53694,-0.53693 -1.27842,-0.76705 0.74148,0.58807 1.06109,1.39347 0.33238,0.8054 0.33238,2.01989 0,0.20455 -0.0128,0.35796 z"
           id="path843" />
        <path
           d="m 174.89692,108.6016 q 0.93324,-0.79261 1.80257,-1.16335 0.8821,-0.37074 1.87926,-0.37074 1.08665,0 1.98154,0.38352 0.90768,0.37074 1.58524,1.06108 0.69034,0.67756 1.06108,1.58524 0.38352,0.89489 0.38352,1.99432 0,1.20171 -0.43466,2.27558 -0.43466,1.06108 -1.22728,1.90483 -0.79261,0.84375 -1.78977,1.30398 -0.99717,0.46023 -2.12217,0.46023 -1.6108,0 -3.11933,-1.16335 v 4.9091 q 0,0.70313 0.15341,1.12501 0.1662,0.43466 0.54972,0.65199 0.38352,0.23011 1.06108,0.33238 v 0.34518 h -5.8807 v -0.34518 q 0.88211,-0.15341 1.18893,-0.60085 0.3196,-0.44745 0.3196,-1.50853 v -11.82532 q 0,-1.06108 -0.3196,-1.50853 -0.31961,-0.46023 -1.18893,-0.60085 v -0.28125 l 4.11649,-0.47301 z m 0,7.33809 0.0767,0.0639 q 0.81818,0.7287 1.49574,1.08666 0.67756,0.34517 1.32955,0.34517 0.92046,0 1.6108,-0.57529 0.69034,-0.57528 1.06108,-1.66194 0.38353,-1.08665 0.38353,-2.53125 0,-1.09944 -0.21733,-2.00711 -0.20455,-0.92046 -0.61364,-1.59802 -0.39631,-0.69034 -0.95881,-1.06108 -0.54972,-0.37074 -1.20171,-0.37074 -0.65199,0 -1.47017,0.4858 -0.8054,0.47301 -1.49575,1.27841 z m -2.83807,7.7344 h 2.55682 l -0.30682,-0.23011 q 0.0256,0 -0.0511,-0.0383 l -0.15341,-0.12784 q -0.19177,-0.17898 -0.19177,-0.4858 l -0.0128,-0.25568 v -0.12785 -14.77845 l -2.0966,0.23011 0.49858,0.35796 q 0.0128,0 0.0511,0.0383 l 0.16619,0.12784 q 0.12785,0.0895 0.1662,0.2429 0.0384,0.14063 0.0384,0.62642 v 13.15487 q 0,0.52415 -0.0511,0.652 -0.0384,0.12784 -0.29403,0.34517 -0.0383,0.0383 -0.0511,0.0383 z m 7.04405,-16.18471 q 1.21449,0.79262 1.75143,2.0199 0.54972,1.21449 0.54972,3.11932 0,1.5341 -0.37074,2.5824 -0.37074,1.0483 -1.22728,1.90483 0.85654,-0.3963 1.48296,-1.125 0.6392,-0.72869 0.97159,-1.66194 0.34517,-0.93324 0.34517,-2.04546 0,-1.87926 -0.97159,-3.19603 -0.95881,-1.32955 -2.53126,-1.59802 z"
           id="path845" />
        <path
           d="m 193.56175,115.51782 q -1.08665,1.35512 -2.08381,1.95597 -0.99717,0.58807 -2.16052,0.58807 -1.02273,0 -1.84092,-0.44744 -0.8054,-0.46023 -1.26563,-1.25285 -0.47301,-0.81818 -0.47301,-2.35228 v -4.05257 q 0,-1.06108 -0.3196,-1.52131 -0.31961,-0.46023 -1.17614,-0.58807 v -0.28125 l 4.11649,-0.47301 v 6.99292 q 0,1.40625 0.17898,1.9304 0.19176,0.58807 0.60085,0.92046 0.42188,0.3196 0.97159,0.3196 0.76705,0 1.49575,-0.4858 0.74148,-0.48579 1.75142,-1.67472 l 0.20455,-0.2429 v -4.89632 q 0,-1.06108 -0.3196,-1.52131 -0.31961,-0.46023 -1.17614,-0.58807 v -0.28125 l 4.11649,-0.47301 v 8.23298 q 0,1.06108 0.30682,1.50852 0.3196,0.44745 1.18892,0.60086 v 0.34517 h -4.11649 z m 0.43466,1.70029 h 1.89205 l -0.29403,-0.23012 q 0,0 -0.0256,-0.0128 -0.0128,-0.0256 -0.0256,-0.0256 l -0.16619,-0.12784 q -0.19177,-0.19176 -0.19177,-0.4858 v -0.25568 l -0.0128,-0.12784 v -8.32247 l -2.0966,0.23011 0.51137,0.35796 q 0.0128,0 0.0128,0.0128 0.0128,0 0.0384,0.0256 l 0.1662,0.12784 q 0.11505,0.0767 0.15341,0.23012 0.0384,0.15341 0.0384,0.6392 z m -6.64775,-9.60088 -2.0966,0.24289 0.51137,0.35796 q 0.0128,0 0.0128,0.0128 0.0128,0 0.0384,0.0256 l 0.16619,0.12784 q 0.11506,0.0767 0.15341,0.23012 0.0383,0.15341 0.0383,0.6392 v 4.76848 q 0,0.90768 0.1662,1.50853 0.16619,0.58807 0.53693,1.06108 0.47301,0.54972 1.02273,0.84376 0.5625,0.29403 1.08665,0.29403 0.0384,0 0.37074,-0.0256 -0.76705,-0.11505 -1.20171,-0.48579 -0.42187,-0.38353 -0.61364,-1.11222 -0.19176,-0.74148 -0.19176,-2.00711 z"
           id="path847" />
        <path
           d="m 202.52342,108.61439 q 0.98438,-0.83097 1.81535,-1.18893 0.84375,-0.35795 1.87927,-0.35795 1.09943,0 1.99432,0.38352 0.90767,0.37074 1.58523,1.06108 0.69035,0.67756 1.06109,1.58524 0.38352,0.89489 0.38352,1.99432 0,1.20171 -0.43466,2.26279 -0.42188,1.0483 -1.20171,1.89205 -0.77983,0.84376 -1.81534,1.31677 -1.02274,0.47301 -2.12217,0.47301 -1.82813,0 -3.42615,-1.41904 l -1.95597,1.16336 h -0.38352 v -14.80402 q 0,-1.06109 -0.31961,-1.52132 -0.3196,-0.46022 -1.17614,-0.58807 v -0.28125 l 4.11649,-0.47301 z m 0,7.29974 q 0.89489,0.81818 1.58524,1.17614 0.69034,0.34517 1.32955,0.34517 0.92045,0 1.6108,-0.57529 0.70312,-0.58807 1.07386,-1.66194 0.38353,-1.07386 0.38353,-2.53125 0,-1.09944 -0.21733,-2.00711 -0.20455,-0.92046 -0.61364,-1.59802 -0.39631,-0.69034 -0.95881,-1.06108 -0.54972,-0.37074 -1.20171,-0.37074 -0.70313,0 -1.41904,0.43466 -0.71591,0.42188 -1.57245,1.34233 z m 4.11649,-8.42475 q 1.2145,0.79262 1.76421,2.00711 0.54972,1.21449 0.54972,3.13211 0,1.5341 -0.37074,2.56961 -0.35795,1.03552 -1.24006,1.91762 0.86932,-0.42187 1.49574,-1.13778 0.63921,-0.71591 0.9716,-1.67472 0.34517,-0.95881 0.34517,-2.03268 0,-1.24006 -0.44745,-2.25001 -0.43466,-1.00994 -1.24006,-1.67472 -0.79261,-0.66477 -1.82813,-0.85654 z m -6.28979,9.65202 1.17614,-0.74148 v -15.75005 l -2.0966,0.23012 0.49858,0.35795 q 0.0128,0 0.0511,0.0384 l 0.1662,0.12784 q 0.12784,0.0895 0.16619,0.26846 0.0384,0.1662 0.0384,0.60086 z"
           id="path849" />
        <path
           d="m 212.49505,117.78061 v -0.34517 q 0.86932,-0.15341 1.18893,-0.58807 0.3196,-0.44745 0.3196,-1.52131 v -12.34947 q 0,-1.07387 -0.33239,-1.52132 -0.3196,-0.46022 -1.17614,-0.58807 v -0.28125 l 4.11649,-0.47301 v 15.21312 q 0,1.06108 0.30682,1.50852 0.3196,0.44745 1.18892,0.60086 v 0.34517 z m 1.27841,-0.5625 h 2.55683 l -0.30682,-0.23012 q -0.0256,-0.0256 -0.0511,-0.0383 l -0.16619,-0.12784 q -0.17898,-0.17898 -0.19176,-0.4858 v -0.25568 -0.12784 -15.30261 l -2.0966,0.23012 0.49858,0.35795 q 0.0128,0 0.0511,0.0384 l 0.16619,0.12784 q 0.12784,0.0895 0.1662,0.26846 0.0384,0.1662 0.0384,0.60086 v 13.67902 q 0,0.52415 -0.0511,0.65199 -0.0511,0.12784 -0.30682,0.34517 0,0 -0.0256,0.0128 -0.0128,0.0128 -0.0128,0.0256 z"
           id="path851" />
        <path
           d="m 219.34735,117.78061 v -0.34517 q 0.86932,-0.15341 1.18892,-0.58807 0.3196,-0.44745 0.3196,-1.52131 v -5.36934 q 0,-1.07387 -0.33238,-1.52131 -0.31961,-0.46023 -1.17614,-0.58807 v -0.28125 l 4.11649,-0.47301 v 8.23298 q 0,1.06108 0.30682,1.50852 0.3196,0.44745 1.18892,0.60086 v 0.34517 z m 1.16335,-14.1776 q 0,-0.63921 0.43466,-1.08665 0.43466,-0.44745 1.08665,-0.44745 0.65199,0 1.08665,0.44745 0.43467,0.44744 0.43467,1.08665 0,0.65199 -0.43467,1.08665 -0.43466,0.43466 -1.08665,0.43466 -0.65199,0 -1.08665,-0.43466 -0.43466,-0.43466 -0.43466,-1.08665 z m 0.11506,13.6151 h 2.55683 l -0.30682,-0.23012 q -0.0256,-0.0256 -0.0511,-0.0383 l -0.16619,-0.12784 q -0.17898,-0.17898 -0.19177,-0.4858 v -0.25568 -0.12784 -8.32247 l -2.09659,0.23011 0.49858,0.35796 q 0.0128,0 0.0511,0.0383 l 0.1662,0.12784 q 0.12784,0.0895 0.16619,0.26847 0.0383,0.16619 0.0383,0.60085 v 6.69889 q 0,0.52415 -0.0511,0.65199 -0.0511,0.12784 -0.30682,0.34517 0,0 -0.0256,0.0128 -0.0128,0.0128 -0.0128,0.0256 z m 1.34233,-14.80403 q -0.44744,0.0256 -0.77983,0.38353 -0.3196,0.34517 -0.3196,0.8054 0,0.46023 0.33239,0.81818 0.33238,0.35796 0.76704,0.35796 0.28125,0 0.28125,-0.29404 0.0128,-0.23011 0.0128,-0.93324 0,-0.67756 -0.0128,-0.86932 -0.0128,-0.25568 -0.28125,-0.26847 z"
           id="path853" />
        <path
           d="m 235.64711,115.19821 0.29403,0.35796 q -0.84375,0.94603 -1.55966,1.49574 -0.70313,0.53694 -1.43182,0.76705 -0.7287,0.23012 -1.67473,0.23012 -1.49574,0 -2.67188,-0.63921 -1.17614,-0.65199 -1.84091,-1.82813 -0.66478,-1.18893 -0.66478,-2.64632 0,-1.18892 0.44745,-2.28836 0.44744,-1.09943 1.22727,-1.90483 0.77983,-0.8054 1.8537,-1.25285 1.08665,-0.46022 2.26279,-0.46022 1.08665,0 2.03268,0.40909 0.94603,0.39631 1.49574,1.07386 0.5625,0.67756 0.5625,1.48296 0,0.52415 -0.3196,0.89489 -0.30682,0.35796 -0.77983,0.35796 -0.69034,0 -1.03552,-0.66478 -0.1534,-0.29403 -0.24289,-1.16335 -0.10228,-0.85654 -0.33239,-1.22728 -0.20455,-0.34517 -0.58807,-0.53693 -0.38353,-0.20455 -0.86932,-0.20455 -0.88211,0 -1.55967,0.61364 -0.67755,0.61364 -1.04829,1.71307 -0.35796,1.09944 -0.35796,2.55683 0,1.44461 0.42188,2.58239 0.42187,1.12501 1.17614,1.73865 0.76704,0.60085 1.77699,0.60085 0.57529,0 1.11222,-0.20455 0.53693,-0.21733 1.11222,-0.67756 0.58807,-0.47301 1.20171,-1.17614 z m -4.42331,2.50569 q -3.49007,-0.90767 -3.49007,-5.19035 0,-1.6108 0.46023,-2.68467 0.47301,-1.07387 1.64915,-2.07103 -3.28552,1.68751 -3.28552,5.15201 0,1.35511 0.60085,2.45455 0.60086,1.08665 1.66194,1.71307 1.07387,0.61364 2.40342,0.62642 z m 2.1733,-9.94605 q 0.37074,0.4858 0.47301,0.81818 0.11506,0.31961 0.21733,1.11222 0.10228,0.67756 0.21733,0.88211 0.12784,0.20455 0.39631,0.20455 0.42188,0 0.42188,-0.61364 0,-1.26563 -1.72586,-2.40342 z"
           id="path855" />
      </g>
    </g>
  </g>
</svg>
