<?xml version="1.0" encoding="UTF-8" standalone="no"?>
<!-- Created with Inkscape (http://www.inkscape.org/) -->

<svg
   width="1122.5197"
   height="793.70081"
   viewBox="0 0 297 210"
   version="1.1"
   id="svg5"
   inkscape:version="1.1.2 (b8e25be8, 2022-02-05)"
   sodipodi:docname="coast.svg"
   xmlns:inkscape="http://www.inkscape.org/namespaces/inkscape"
   xmlns:sodipodi="http://sodipodi.sourceforge.net/DTD/sodipodi-0.dtd"
   xmlns="http://www.w3.org/2000/svg"
   xmlns:svg="http://www.w3.org/2000/svg">
  <sodipodi:namedview
     id="namedview7"
     pagecolor="#ffffff"
     bordercolor="#cccccc"
     borderopacity="1"
     inkscape:pageshadow="0"
     inkscape:pageopacity="1"
     inkscape:pagecheckerboard="0"
     inkscape:document-units="px"
     showgrid="false"
     units="px"
     inkscape:zoom="0.39108446"
     inkscape:cx="489.66405"
     inkscape:cy="228.85082"
     inkscape:window-width="1280"
     inkscape:window-height="703"
     inkscape:window-x="0"
     inkscape:window-y="25"
     inkscape:window-maximized="0"
     inkscape:current-layer="layer1" />
  <defs
     id="defs2" />
  <g
     inkscape:label="Layer 1"
     inkscape:groupmode="layer"
     id="layer1">
    <g
       id="g4990"
       transform="matrix(1.4038007,0,0,1.4038007,-58.871647,-43.436614)">
      <ellipse
         style="fill:#002b22;fill-rule:evenodd;stroke:#002b22;stroke-width:1.28771;paint-order:stroke markers fill"
         id="path4896"
         cx="145.79384"
         cy="107.56945"
         rx="60.018322"
         ry="64.697708" />
      <g
         id="g1270"
         transform="matrix(0.77065592,0,0,0.77065592,32.543841,8.9886935)">
        <g
           id="g1373">
          <g
             id="g1476">
            <g
               id="g1579" />
          </g>
        </g>
      </g>
      <g
         id="g4980"
         transform="translate(-2.8605359,-3.7960987)">
        <path
           d="m 146.39518,68.382368 c -7.08891,0 -13.6486,0.841758 -19.67986,2.52299 v 8.429765 c 5.71816,-2.463524 12.03817,-3.696884 18.96106,-3.696884 4.11384,0 8.21275,0.416761 12.29553,1.24973 -0.55804,-2.274308 -1.6456,-4.198053 -3.3097,-5.893676 a 2.2873282,2.2873282 0 0 1 -0.0167,-0.01539 c -0.94874,-0.986428 -1.99396,-1.788441 -3.14135,-2.433447 -1.68351,-0.104397 -3.38493,-0.162761 -5.10873,-0.162761 z m 23.22961,3.509115 c 0.60609,2.497711 0.91798,5.207859 0.91798,8.115295 0,0.269566 -0.0167,0.527218 -0.0223,0.793559 3.34435,1.4209 6.38099,3.032385 9.10439,4.838262 v -9.903126 c -3.29577,-1.511205 -6.62906,-2.792611 -9.99982,-3.844448 z m -55.23013,4.016759 c -2.23023,1.230466 -4.36694,2.609639 -6.40727,4.142013 -10.16505,7.71326 -15.24833,17.158772 -15.24833,28.335765 0,11.50441 5.46605,21.08012 16.39886,28.72789 1.70461,1.19477 3.45764,2.28672 5.25667,3.28115 v -11.79451 c -6.37941,-5.88575 -9.57191,-12.75391 -9.57191,-20.60727 0,-4.31418 0.95909,-8.366573 2.87705,-12.157723 1.59732,-3.00703 3.83073,-5.828267 6.69501,-8.465548 z m 65.22998,55.323038 c -5.84991,3.07221 -11.60417,5.36007 -17.26158,6.86343 -5.56222,1.43803 -11.02851,2.15697 -16.39886,2.15697 -7.08097,0 -13.49707,-1.22155 -19.24888,-3.66261 v 8.85083 c 5.61401,1.57402 11.59883,2.36141 17.95369,2.36141 10.45288,0 22.10501,-2.35289 34.95563,-7.05926 z"
           stroke-width="0.618553"
           id="path824"
           style="fill:#447821;stroke:#ffffff" />
        <path
           d="m 178.98911,80.300169 -28.71293,58.228321 4.6069,2.2717 13.22117,-26.81183 6.76432,3.33555 c 3.49887,1.72532 5.5667,3.85309 6.2039,6.38322 0.82164,2.74419 0.52789,7.55416 -0.8815,14.43059 l -0.56633,2.60433 c 0.86745,0.23562 1.75078,0.44883 2.65245,0.6365 0.77227,0.15519 1.55864,0.29021 2.35688,0.40827 l 1.83006,-10.34295 c 0.63862,-3.25523 0.64358,-5.96091 0.0156,-8.11768 -0.11569,-0.54948 -0.35288,-1.09723 -0.71178,-1.64352 -0.33448,-0.59581 -0.74677,-1.23009 -1.23674,-1.9026 4.40129,0.38525 8.03604,-0.22299 10.90381,-1.82476 2.86805,-1.60186 5.24214,-4.3092 7.12218,-8.1218 2.73462,-5.54569 2.84124,-10.41743 0.32002,-14.61515 -1.81345,-2.987071 -4.74155,-5.477346 -8.78465,-7.471036 z m 2.07995,7.396235 11.37124,5.607264 c 3.14898,1.552792 5.18779,3.789202 6.11588,6.709002 0.87046,2.64515 0.63422,5.32938 -0.70875,8.05287 -0.70808,1.43591 -1.67622,2.71284 -2.90412,3.83084 -1.18905,1.1372 -2.42363,1.97492 -3.70394,2.51311 -1.93762,0.89115 -4.04917,1.20414 -6.33475,0.93885 -2.22234,-0.29565 -4.73305,-1.13361 -7.53207,-2.51382 l -6.998,-3.45078 z m 2.22414,61.666896 c -1.82379,-0.36169 -3.5827,-0.77426 -5.27356,-1.24059 l -0.8028,3.69199 5.19018,2.55933 z"
           stroke-width="0.38217"
           id="path826"
           style="fill:#447821;stroke:#ffffff" />
      </g>
    </g>
  </g>
</svg>
