<?xml version="1.0" encoding="UTF-8"?>
<!-- Created with Inkscape (http://www.inkscape.org/) -->
<svg width="1122.5" height="793.7" version="1.1" viewBox="0 0 297 210" xmlns="http://www.w3.org/2000/svg">
 <defs>
  <filter id="filter8826" x="-.00095883" y="-.00099308" width="1.0019" height="1.003" color-interpolation-filters="sRGB">
   <feTurbulence baseFrequency="1" numOctaves="3" result="result1" seed="50" type="fractalNoise"/>
   <feColorMatrix in="SourceGraphic" result="result0" type="luminanceToAlpha"/>
   <feColorMatrix result="result2" values="1 0 0 0 0 0 1 0 0 0 0 0 1 0 0 0 0 0 0.7 0 "/>
   <feComposite in="result1" in2="result2" result="result3"/>
   <feColorMatrix result="result91" values="1 0 0 0 0 0 1 0 0 0 0 0 1 0 0 0 0 0 5 -3.2 "/>
   <feComposite in="SourceGraphic" in2="result91" operator="out" result="result4"/>
  </filter>
 </defs>
 <g transform="matrix(.99998 0 0 .99998 .63002 -1.7401)">
  <path d="m57.741 210.43 0.72084-119.19-33.159-2.5911-23.067-42.105 112.95-43.757c18.177 6.5001 36.353 5.2416 54.53 0.47119l124.47 45.229-23.788 40.162-30.996 2.5911v119.19h-181.65" stroke="#000" stroke-width=".0005108"/>
  <g transform="matrix(1.0582 0 0 .95094 -9.2966 -5.9267)" fill-opacity="0" filter="url(#filter8826)" stroke="#000" stroke-width=".16695">
   <path d="m111.68 26.752c20.315 42.258 40.63 36.086 60.945 0.49549"/>
   <path d="m111.68 26.752-6.9144-11.976"/>
   <path d="m172.63 27.248 7.5308-13.044"/>
  </g>
  <g transform="matrix(1.0582 0 0 .95094 -9.2966 -5.9267)" stroke="#4d4d4d" stroke-width=".18789">
   <path d="m118.12 16.347c17.177 50.209 34.354 31.221 51.531 0.49549"/>
   <path d="m118.12 16.347-0.49548-7.1845"/>
   <path d="m169.65 16.843-0.49549-7.1845"/>
  </g>
 </g>
 <g transform="matrix(.74892 0 0 .74892 47.682 -38.774)" stroke="#fff">
  <path d="m148.48 144.05c-9.3098 0-17.925 1.1055-25.846 3.3134v11.071c7.5097-3.2353 15.81-4.8551 24.902-4.8551 5.4027 0 10.786 0.54733 16.148 1.6413-0.73288-2.9868-2.1612-5.5133-4.3466-7.7402a3.0039 3.0039 0 0 1-0.0219-0.0203c-1.246-1.2955-2.6187-2.3488-4.1255-3.1958-2.211-0.13709-4.4454-0.21375-6.7093-0.21375zm30.507 4.6085c0.79596 3.2802 1.2056 6.8395 1.2056 10.658 0 0.35402-0.0231 0.6924-0.0293 1.0422 4.3921 1.8661 8.3802 3.9824 11.957 6.3541v-13.006c-4.3283-1.9847-8.706-3.6675-13.133-5.0489zm-72.534 5.2752c-2.929 1.616-5.7351 3.4272-8.4146 5.4397-13.35 10.13-20.026 22.535-20.026 37.213 0 15.109 7.1786 27.685 21.537 37.728 2.2387 1.5691 4.5409 3.0032 6.9036 4.3091v-15.49c-8.378-7.7298-12.571-16.75-12.571-27.064 0-5.6658 1.2596-10.988 3.7784-15.967 2.0978-3.9491 5.0309-7.6543 8.7925-11.118zm85.666 72.656c-7.6827 4.0347-15.24 7.0394-22.67 9.0137-7.3049 1.8886-14.484 2.8328-21.537 2.8328-9.2994 0-17.726-1.6043-25.28-4.8101v11.624c7.3729 2.0672 15.233 3.1012 23.579 3.1012 13.728 0 29.03-3.09 45.907-9.2709z" stroke-width=".81235"/>
  <path d="m109.46 127.5v128.58h10.173v-59.205h14.937c7.7261 0 13.263 1.9683 16.611 5.9043 3.863 4.1547 7.5543 12.956 11.074 26.405l1.2752 5.122c1.7472-0.34127 3.5029-0.73625 5.2689-1.1927 1.5077-0.40076 3.0228-0.84972 4.544-1.3392l-5.8086-19.975c-1.7169-6.3415-4.0779-11.152-7.0825-14.433-0.68676-0.87468-1.5879-1.6399-2.7039-2.2959-1.116-0.76534-2.4038-1.5309-3.8632-2.2963 8.1553-3.1707 14.079-7.4348 17.77-12.792 3.6913-5.3574 5.537-12.246 5.537-20.665 0-12.246-4.0777-20.993-12.233-26.241-5.8375-3.7174-13.22-5.5761-22.148-5.5761zm10.173 11.316h25.11c6.9535 0 12.534 2.1867 16.74 6.5601 3.863 3.936 5.7945 8.9108 5.7945 14.925 0 3.1708-0.60124 6.2869-1.8031 9.3482-1.116 3.0614-2.5752 5.6308-4.3779 7.7082-2.6612 3.28-6.1377 5.6855-10.43 7.2162-4.2064 1.4214-9.4 2.1321-15.581 2.1321h-15.453zm57.964 107.59c-3.5563 0.95499-7.042 1.7628-10.454 2.4155l1.8078 7.2611h11.461z" stroke-width=".75688"/>
 </g>
</svg>
