<?xml version="1.0" encoding="UTF-8" standalone="no"?>
<!-- Created with Inkscape (http://www.inkscape.org/) -->

<svg
   width="1122.5197"
   height="793.70081"
   viewBox="0 0 297 210"
   version="1.1"
   id="svg5"
   inkscape:version="1.1.2 (b8e25be8, 2022-02-05)"
   sodipodi:docname="crlogo.svg"
   xmlns:inkscape="http://www.inkscape.org/namespaces/inkscape"
   xmlns:sodipodi="http://sodipodi.sourceforge.net/DTD/sodipodi-0.dtd"
   xmlns="http://www.w3.org/2000/svg"
   xmlns:svg="http://www.w3.org/2000/svg">
  <sodipodi:namedview
     id="namedview7"
     pagecolor="#ffffff"
     bordercolor="#cccccc"
     borderopacity="1"
     inkscape:pageshadow="0"
     inkscape:pageopacity="1"
     inkscape:pagecheckerboard="0"
     inkscape:document-units="px"
     showgrid="false"
     units="px"
     inkscape:zoom="0.39108446"
     inkscape:cx="556.14586"
     inkscape:cy="545.91789"
     inkscape:window-width="1280"
     inkscape:window-height="703"
     inkscape:window-x="0"
     inkscape:window-y="25"
     inkscape:window-maximized="0"
     inkscape:current-layer="layer1" />
  <defs
     id="defs2">
    <filter
       inkscape:label="Black Light"
       inkscape:menu="Color"
       inkscape:menu-tooltip="Light areas turn to black"
       style="color-interpolation-filters:sRGB"
       id="filter1480"
       x="-0.0053337594"
       y="-0.0029431859"
       width="1.0124401"
       height="1.0058864">
      <feColorMatrix
         type="luminanceToAlpha"
         result="result2"
         id="feColorMatrix1472" />
      <feComposite
         in2="SourceGraphic"
         operator="arithmetic"
         in="result2"
         k3="2"
         result="result4"
         id="feComposite1474"
         k1="0"
         k2="0"
         k4="0" />
      <feBlend
         in="result4"
         mode="multiply"
         result="result3"
         in2="result2"
         id="feBlend1476" />
      <feComposite
         in2="SourceGraphic"
         operator="in"
         in="result3"
         id="feComposite1478" />
    </filter>
    <filter
       inkscape:label="Blend Opposites"
       inkscape:menu="Color"
       inkscape:menu-tooltip="Blend an image with its hue opposite"
       style="color-interpolation-filters:sRGB"
       id="filter1616"
       x="-0.0053337594"
       y="-0.0029431859"
       width="1.0124401"
       height="1.0058864">
      <feColorMatrix
         type="hueRotate"
         values="180"
         result="fbSourceGraphic"
         in="SourceGraphic"
         id="feColorMatrix1598" />
      <feColorMatrix
         values="1 0 0 0 0 0 1 0 0 0 0 0 1 0 0 -0.2125 -0.7154 -0.0721 1 0 "
         in="SourceGraphic"
         result="result1"
         id="feColorMatrix1600" />
      <feColorMatrix
         type="hueRotate"
         values="0"
         id="feColorMatrix1602" />
      <feColorMatrix
         values="1 0 0 0 0 0 1 0 0 0 0 0 1 0 0 0 0 0 1 0 "
         result="result3"
         id="feColorMatrix1604" />
      <feComposite
         in2="result3"
         result="result6"
         operator="atop"
         id="feComposite1606" />
      <feComposite
         in2="result6"
         operator="arithmetic"
         k2="0.5"
         k1="0.5"
         k3="0.5"
         in="result6"
         result="result4"
         id="feComposite1608"
         k4="0" />
      <feBlend
         in2="fbSourceGraphic"
         mode="normal"
         result="result2"
         in="result4"
         id="feBlend1610" />
      <feComposite
         in2="result2"
         operator="arithmetic"
         k2="1"
         result="result5"
         id="feComposite1612"
         k1="0"
         k3="0"
         k4="0" />
      <feComposite
         in2="SourceGraphic"
         operator="in"
         result="result5"
         id="feComposite1614" />
    </filter>
    <filter
       inkscape:label="Soft Colors"
       inkscape:menu="Color"
       inkscape:menu-tooltip="Adds a colorizable edges glow inside objects and pictures"
       style="color-interpolation-filters:sRGB"
       id="filter2038"
       x="-0.17446326"
       y="-0.096269391"
       width="1.3506991"
       height="1.1925388">
      <feColorMatrix
         type="saturate"
         values="1"
         result="result91"
         id="feColorMatrix2018" />
      <feComposite
         in2="result91"
         result="result15"
         operator="arithmetic"
         k2="0.4"
         k1="0.3"
         k3="0.3"
         id="feComposite2020"
         k4="0" />
      <feGaussianBlur
         in="result15"
         result="result8"
         stdDeviation="5"
         id="feGaussianBlur2022" />
      <feColorMatrix
         values="1 0 0 0 0 0 1 0 0 0 0 0 1 0 0 0 0 0 50 0 "
         id="feColorMatrix2024" />
      <feComposite
         in2="SourceGraphic"
         operator="in"
         result="result13"
         id="feComposite2026" />
      <feComposite
         in2="result13"
         k3="0.3"
         k1="0.3"
         k2="0.4"
         operator="arithmetic"
         in="result15"
         result="result6"
         id="feComposite2028"
         k4="0" />
      <feFlood
         flood-color="rgb(128,172,0)"
         flood-opacity="1"
         result="result10"
         id="feFlood2030" />
      <feBlend
         in2="result10"
         result="result12"
         in="result6"
         mode="darken"
         id="feBlend2032" />
      <feBlend
         in2="result6"
         result="result14"
         mode="screen"
         id="feBlend2034" />
      <feComposite
         in2="SourceGraphic"
         in="result14"
         operator="in"
         id="feComposite2036" />
    </filter>
    <filter
       inkscape:label="Simulate CMY"
       inkscape:menu="Color"
       inkscape:menu-tooltip="Render Cyan, Magenta and Yellow channels with a colorizable background"
       style="color-interpolation-filters:sRGB"
       id="filter2072"
       x="-0.0031865302"
       y="-0.0043501416"
       width="1.006373"
       height="1.0087003">
      <feFlood
         flood-color="rgb(255,255,255)"
         result="result6"
         flood-opacity="0"
         id="feFlood2058" />
      <feColorMatrix
         result="result3"
         values="0 0 0 0 0 0 0 0 0 1 0 0 0 0 1 -1 0 0 1 0 "
         in="SourceGraphic"
         id="feColorMatrix2060" />
      <feBlend
         mode="multiply"
         in2="result6"
         result="result7"
         in="result3"
         id="feBlend2062" />
      <feColorMatrix
         result="result2"
         in="SourceGraphic"
         values="0 0 0 0 1 0 0 0 0 0 0 0 0 0 1 0 -1 0 1 0 "
         id="feColorMatrix2064" />
      <feBlend
         result="result4"
         in="result2"
         in2="result7"
         mode="multiply"
         id="feBlend2066" />
      <feColorMatrix
         result="result1"
         values="0 0 0 0 1 0 0 0 0 1 0 0 0 0 0 0 0 -1 1 0 "
         in="SourceGraphic"
         id="feColorMatrix2068" />
      <feBlend
         in2="result4"
         mode="multiply"
         result="result5"
         in="result1"
         id="feBlend2070" />
    </filter>
    <filter
       inkscape:label="Soft Colors"
       inkscape:menu="Color"
       inkscape:menu-tooltip="Adds a colorizable edges glow inside objects and pictures"
       style="color-interpolation-filters:sRGB"
       id="filter2210"
       x="-0.10551693"
       y="-0.14404809"
       width="1.2110339"
       height="1.2880962">
      <feColorMatrix
         type="saturate"
         values="1"
         result="result91"
         id="feColorMatrix2190" />
      <feComposite
         in2="result91"
         result="result15"
         operator="arithmetic"
         k2="0.4"
         k1="0.3"
         k3="0.3"
         id="feComposite2192"
         k4="0" />
      <feGaussianBlur
         in="result15"
         result="result8"
         stdDeviation="5"
         id="feGaussianBlur2194" />
      <feColorMatrix
         values="1 0 0 0 0 0 1 0 0 0 0 0 1 0 0 0 0 0 50 0 "
         id="feColorMatrix2196" />
      <feComposite
         in2="SourceGraphic"
         operator="in"
         result="result13"
         id="feComposite2198" />
      <feComposite
         in2="result13"
         k3="0.3"
         k1="0.3"
         k2="0.4"
         operator="arithmetic"
         in="result15"
         result="result6"
         id="feComposite2200"
         k4="0" />
      <feFlood
         flood-color="rgb(128,172,0)"
         flood-opacity="1"
         result="result10"
         id="feFlood2202" />
      <feBlend
         in2="result10"
         result="result12"
         in="result6"
         mode="darken"
         id="feBlend2204" />
      <feBlend
         in2="result6"
         result="result14"
         mode="screen"
         id="feBlend2206" />
      <feComposite
         in2="SourceGraphic"
         in="result14"
         operator="in"
         id="feComposite2208" />
    </filter>
  </defs>
  <g
     inkscape:label="Layer 1"
     inkscape:groupmode="layer"
     id="layer1">
    <g
       id="g2023"
       transform="translate(0.67653759,11.501139)">
      <path
         d="m 156.48169,56.607887 c -9.56767,0 -18.4211,0.910447 -26.56132,2.728869 v 9.117641 c 7.71765,-2.664549 16.24757,-3.998552 25.59119,-3.998552 5.55234,0 11.08451,0.450767 16.59492,1.35171 -0.75318,-2.459894 -2.22103,-4.540619 -4.467,-6.374608 a 3.0871392,2.4739764 0 0 1 -0.0225,-0.01674 c -1.28048,-1.066923 -2.69118,-1.93438 -4.23978,-2.632018 -2.2722,-0.11291 -4.56855,-0.176045 -6.89509,-0.176045 z m 31.35234,3.795462 c 0.818,2.701527 1.23896,5.632826 1.23896,8.777511 0,0.291565 -0.0237,0.570241 -0.0301,0.858315 4.51375,1.536846 8.61224,3.27983 12.28793,5.233068 V 64.561014 c -4.44821,-1.634522 -8.94705,-3.020492 -13.49647,-4.158159 z m -74.54249,4.34453 c -3.01007,1.330874 -5.89394,2.82259 -8.64768,4.480006 -13.719473,8.34267 -20.580246,18.558941 -20.580246,30.647988 0,12.443177 7.377373,22.800277 22.133066,31.072127 2.30065,1.29225 4.66666,2.47332 7.09476,3.54889 v -12.75696 c -8.61007,-6.36604 -12.91892,-13.79464 -12.91892,-22.288849 0,-4.666213 1.29445,-9.049286 3.88306,-13.149794 2.15587,-3.252406 5.17026,-6.303863 9.03606,-9.156348 z m 88.03896,59.837451 c -7.89543,3.32291 -15.66178,5.79746 -23.29741,7.4235 -7.50718,1.55537 -14.88487,2.33299 -22.13307,2.33299 -9.55697,0 -18.21658,-1.32125 -25.97965,-3.9615 v 9.57307 c 7.57705,1.70247 15.65459,2.55411 24.23158,2.55411 14.10793,0 29.83445,-2.54488 47.17855,-7.63532 z"
         stroke-width="0.747351"
         id="path824"
         style="fill:#000000;stroke:#ffffff;filter:url(#filter2210)" />
      <path
         d="M 114.91672,29.504371 V 158.08212 h 10.17282 V 98.877154 h 14.93674 c 7.72606,0 13.26276,1.968266 16.61071,5.904296 3.86303,4.15473 7.55426,12.95577 11.0738,26.40454 l 1.27518,5.12201 c 1.74717,-0.34128 3.50294,-0.73626 5.26891,-1.19268 1.50767,-0.40075 3.02274,-0.84972 4.54402,-1.33918 l -5.8086,-19.97465 c -1.71687,-6.34149 -4.07793,-11.1518 -7.08248,-14.432744 -0.68675,-0.874685 -1.58787,-1.639871 -2.70385,-2.29586 -1.11598,-0.765346 -2.40386,-1.530873 -3.86323,-2.29626 8.15526,-3.170744 14.07875,-7.434769 17.76969,-12.791775 3.69133,-5.357406 5.537,-12.245785 5.537,-20.664638 0,-12.245785 -4.07773,-20.992632 -12.23279,-26.24054 -5.83749,-3.717434 -13.21976,-5.576102 -22.14761,-5.576102 z m 10.17282,11.315802 h 25.10956 c 6.95348,0 12.53378,2.186661 16.73971,6.560085 3.86303,3.936031 5.79449,8.910843 5.79449,14.924738 0,3.170744 -0.60124,6.28689 -1.80306,9.348236 -1.11598,3.061446 -2.57516,5.630801 -4.37793,7.708165 -2.66115,3.280042 -6.13769,5.6855 -10.42981,7.216173 -4.20643,1.421375 -9.40004,2.132063 -15.58073,2.132063 h -15.45273 z m 57.96398,107.588117 c -3.55633,0.95498 -7.04197,1.76276 -10.45381,2.41545 l 1.80776,7.26108 h 11.4608 z"
         stroke-width="0.756877"
         id="path826"
         style="fill:#000000;fill-opacity:1;stroke:#ffffff;filter:url(#filter2038)" />
    </g>
  </g>
</svg>
