<?xml version="1.0" encoding="UTF-8" standalone="no"?>
<!-- Created with Inkscape (http://www.inkscape.org/) -->

<svg
   width="1122.5197"
   height="793.70081"
   viewBox="0 0 297 210"
   version="1.1"
   id="svg5"
   inkscape:version="1.1.2 (b8e25be8, 2022-02-05)"
   sodipodi:docname="crlogo.svg"
   xmlns:inkscape="http://www.inkscape.org/namespaces/inkscape"
   xmlns:sodipodi="http://sodipodi.sourceforge.net/DTD/sodipodi-0.dtd"
   xmlns="http://www.w3.org/2000/svg"
   xmlns:svg="http://www.w3.org/2000/svg">
  <sodipodi:namedview
     id="namedview7"
     pagecolor="#ffffff"
     bordercolor="#cccccc"
     borderopacity="1"
     inkscape:pageshadow="0"
     inkscape:pageopacity="1"
     inkscape:pagecheckerboard="0"
     inkscape:document-units="px"
     showgrid="false"
     units="px"
     inkscape:zoom="0.39108446"
     inkscape:cx="540.8039"
     inkscape:cy="489.66405"
     inkscape:window-width="1280"
     inkscape:window-height="703"
     inkscape:window-x="0"
     inkscape:window-y="25"
     inkscape:window-maximized="0"
     inkscape:current-layer="layer1" />
  <defs
     id="defs2" />
  <g
     inkscape:label="Layer 1"
     inkscape:groupmode="layer"
     id="layer1">
    <g
       id="g886">
      <rect
         style="fill:#000000;fill-rule:evenodd;stroke:none;stroke-width:0.264583"
         id="rect1003"
         width="114.60752"
         height="112.02585"
         x="122.92995"
         y="-91.00412"
         transform="rotate(46.463246)" />
      <g
         transform="matrix(0.51303857,0,0,0.51303857,76.403569,62.423583)"
         id="g828"
         style="stroke:none;fill:#ffffff">
        <path
           d="m 155.92,31.747 c -9.3098,0 -17.925,1.1055 -25.846,3.3134 v 11.071 c 7.5097,-3.2353 15.81,-4.8551 24.902,-4.8551 5.4027,0 10.786,0.54733 16.148,1.6413 -0.73287,-2.9868 -2.1612,-5.5133 -4.3466,-7.7402 a 3.0039,3.0039 0 0 1 -0.0219,-0.02032 c -1.246,-1.2955 -2.6186,-2.3488 -4.1255,-3.1958 -2.211,-0.1371 -4.4454,-0.21376 -6.7093,-0.21376 z m 30.507,4.6085 c 0.79595,3.2802 1.2056,6.8395 1.2056,10.658 0,0.35402 -0.0231,0.6924 -0.0293,1.0422 4.3921,1.8661 8.3802,3.9824 11.957,6.3541 v -13.006 c -4.3283,-1.9847 -8.706,-3.6675 -13.133,-5.0489 z m -72.534,5.2752 c -2.929,1.616 -5.7351,3.4272 -8.4147,5.4397 -13.35,10.13 -20.026,22.535 -20.026,37.213 0,15.109 7.1786,27.685 21.537,37.728 2.2387,1.5691 4.5409,3.0032 6.9036,4.3091 v -15.49 c -8.3781,-7.7298 -12.571,-16.75 -12.571,-27.064 0,-5.6658 1.2596,-10.988 3.7784,-15.967 2.0978,-3.9491 5.0309,-7.6543 8.7926,-11.118 z m 85.666,72.656 c -7.6827,4.0347 -15.24,7.0394 -22.67,9.0137 -7.3049,1.8886 -14.484,2.8328 -21.537,2.8328 -9.2994,0 -17.726,-1.6043 -25.28,-4.8101 v 11.624 c 7.3729,2.0672 15.233,3.1012 23.579,3.1012 13.728,0 29.03,-3.09 45.907,-9.2709 z"
           stroke-width="0.81235"
           id="path824"
           style="stroke:none;fill:#ffffff" />
        <path
           d="m 116.9,15.197 v 128.58 h 10.173 V 84.572 h 14.937 c 7.7261,0 13.263,1.9683 16.611,5.9043 3.863,4.1547 7.5543,12.956 11.074,26.405 l 1.2752,5.122 c 1.7472,-0.34127 3.5029,-0.73626 5.2689,-1.1927 1.5077,-0.40075 3.0228,-0.84971 4.544,-1.3392 l -5.8086,-19.975 c -1.7169,-6.3415 -4.0779,-11.152 -7.0825,-14.433 -0.68676,-0.87468 -1.5879,-1.6399 -2.7038,-2.2959 -1.116,-0.76535 -2.4039,-1.5309 -3.8632,-2.2963 8.1552,-3.1707 14.079,-7.4348 17.77,-12.792 3.6913,-5.3574 5.537,-12.246 5.537,-20.665 0,-12.246 -4.0777,-20.993 -12.233,-26.241 -5.8375,-3.7174 -13.22,-5.5761 -22.148,-5.5761 z m 10.173,11.316 h 25.11 c 6.9535,0 12.534,2.1867 16.74,6.5601 3.863,3.936 5.7945,8.9108 5.7945,14.925 0,3.1707 -0.60124,6.2869 -1.8031,9.3482 -1.116,3.0614 -2.5752,5.6308 -4.3779,7.7082 -2.6612,3.28 -6.1377,5.6855 -10.43,7.2162 -4.2064,1.4214 -9.4,2.1321 -15.581,2.1321 h -15.453 z m 57.964,107.59 c -3.5563,0.95498 -7.042,1.7628 -10.454,2.4155 l 1.8078,7.2611 h 11.461 z"
           stroke-width="0.75688"
           id="path826"
           style="stroke:none;fill:#ffffff" />
      </g>
    </g>
  </g>
</svg>
