<?xml version="1.0" encoding="UTF-8" standalone="no"?>
<!-- Created with Inkscape (http://www.inkscape.org/) -->

<svg
   width="1122.5197"
   height="793.70081"
   viewBox="0 0 297 210"
   version="1.1"
   id="svg5"
   inkscape:version="1.1.2 (b8e25be8, 2022-02-05)"
   sodipodi:docname="coast.svg"
   xmlns:inkscape="http://www.inkscape.org/namespaces/inkscape"
   xmlns:sodipodi="http://sodipodi.sourceforge.net/DTD/sodipodi-0.dtd"
   xmlns="http://www.w3.org/2000/svg"
   xmlns:svg="http://www.w3.org/2000/svg">
  <sodipodi:namedview
     id="namedview7"
     pagecolor="#ffffff"
     bordercolor="#cccccc"
     borderopacity="1"
     inkscape:pageshadow="0"
     inkscape:pageopacity="1"
     inkscape:pagecheckerboard="0"
     inkscape:document-units="px"
     showgrid="false"
     units="px"
     inkscape:zoom="0.39108446"
     inkscape:cx="489.66405"
     inkscape:cy="443.63819"
     inkscape:window-width="1280"
     inkscape:window-height="703"
     inkscape:window-x="0"
     inkscape:window-y="25"
     inkscape:window-maximized="0"
     inkscape:current-layer="layer1" />
  <defs
     id="defs2" />
  <g
     inkscape:label="Layer 1"
     inkscape:groupmode="layer"
     id="layer1">
    <g
       id="g12742"
       transform="translate(3.3826879,-13.530752)">
      <path
         id="rect6405"
         style="fill:#ffffff;fill-rule:evenodd;stroke:#000000;stroke-width:1.2419"
         d="m 93.557778,160.37619 h 7.027092 c 2.41882,0 4.3661,1.94728 4.3661,4.36611 v 26.19663 c 0,2.41882 -1.94728,4.3661 -4.3661,4.3661 h -7.027092 c -2.418822,0 -4.366105,-1.94728 -4.366105,-4.3661 V 164.7423 c 0,-2.41883 1.947283,-4.36611 4.366105,-4.36611 z" />
      <g
         aria-label="coast  republic  incorporated"
         transform="matrix(-0.7600445,0,0,-0.7600445,253.89242,192.8264)"
         id="text2129"
         style="font-weight:bold;font-size:12.7px;line-height:1.25;font-family:'Arial Hebrew';-inkscape-font-specification:'Arial Hebrew, Bold';stroke-width:0.264583">
        <path
           d="m 215.47062,104.11916 q 0.0516,-0.91011 0.31117,-1.65314 0.2592,-0.73685 0.74277,-1.26842 0.48321,-0.52537 1.18765,-0.78976 0.70444,-0.26438 1.62693,-0.21204 0.97202,0.0551 1.65955,0.41713 0.68719,0.36817 1.11851,0.97649 0.40761,0.58834 0.57013,1.33669 0.16251,0.74834 0.11755,1.54082 -0.0404,0.71199 -0.22924,1.30375 -0.18885,0.59177 -0.46601,1.09778 l -1.9007,-0.10783 0.0179,-0.31575 q 0.11882,-0.12369 0.27795,-0.301 0.15877,-0.17112 0.31627,-0.42926 0.15061,-0.24611 0.2545,-0.54456 0.11008,-0.29811 0.13291,-0.70053 0.0506,-0.89154 -0.49162,-1.40677 -0.53635,-0.50868 -1.50837,-0.56383 -1.00298,-0.0569 -1.55079,0.4027 -0.54816,0.46579 -0.59944,1.36971 -0.0239,0.421 0.05,0.7606 0.0797,0.34614 0.19712,0.5764 0.11188,0.21752 0.23895,0.38622 0.12708,0.1687 0.24937,0.31228 l -0.0179,0.31575 -1.9007,-0.10783 q -0.21779,-0.5403 -0.32753,-1.12416 -0.11627,-0.57802 -0.0769,-1.27144 z"
           id="path6078" />
        <path
           d="m 217.48834,115.59076 q -1.68964,-0.30933 -2.4847,-1.47618 -0.79007,-1.15962 -0.46399,-2.94076 0.32609,-1.78114 1.47687,-2.59175 1.15576,-0.80339 2.8454,-0.49405 1.70184,0.31157 2.4908,1.47729 0.78784,1.17183 0.46398,2.94077 -0.32831,1.79334 -1.48296,2.59063 -1.15576,0.80338 -2.8454,0.49405 z m -1.17053,-3.00707 q 0.22321,0.26151 0.57021,0.43221 0.35198,0.17792 1.00466,0.29741 0.60388,0.11055 1.03267,0.0756 0.42879,-0.035 0.70851,-0.1855 0.28583,-0.14941 0.43978,-0.40492 0.15395,-0.2555 0.21202,-0.57269 0.0581,-0.31719 0.0185,-0.58292 -0.0407,-0.25962 -0.2556,-0.53222 -0.20104,-0.24484 -0.59349,-0.44278 -0.39357,-0.19183 -1.02185,-0.30685 -0.56118,-0.10274 -0.99495,-0.075 -0.42767,0.0289 -0.71462,0.18438 -0.27362,0.15164 -0.43256,0.39993 -0.16004,0.25439 -0.2237,0.60208 -0.0547,0.29889 -0.006,0.58515 0.0534,0.29347 0.25672,0.52612 z"
           id="path6080" />
        <path
           d="m 214.05282,121.09814 1.37992,0.44882 q 0.10464,-0.442 0.2028,-0.96435 0.10406,-0.52043 0.10589,-0.80676 0.003,-0.35105 -0.13566,-0.58536 -0.135,-0.22649 -0.44754,-0.32815 -0.2064,-0.0671 -0.34765,-0.0739 -0.14124,-0.007 -0.30522,0.0964 -0.16205,0.0973 -0.2824,0.2668 -0.11445,0.17145 -0.24488,0.57245 -0.10357,0.31844 -0.0793,0.68498 0.0223,0.37243 0.15406,0.68916 z m -1.02609,-0.33374 q -0.0741,-0.21321 -0.17445,-0.52624 -0.10034,-0.31304 -0.1336,-0.57165 -0.0399,-0.35858 0.005,-0.71581 0.0386,-0.35915 0.16898,-0.76015 0.30689,-0.94354 1.09785,-1.39054 0.79095,-0.447 1.69911,-0.15163 0.72534,0.23592 1.07982,0.70986 0.35448,0.47395 0.42613,1.15587 0.0736,0.67602 -0.0982,1.58523 -0.17183,0.90921 -0.42372,1.86411 l 0.0354,0.0115 q 0.54843,0.17838 0.90059,-0.20267 0.35807,-0.37913 0.64194,-1.2519 0.1707,-0.52484 0.17571,-1.18183 0.0109,-0.65506 -0.005,-0.94714 l 0.0633,-0.1946 1.59811,0.51978 q -0.0209,0.3649 -0.14843,1.15809 -0.12359,0.80101 -0.37101,1.56173 -0.58884,1.81041 -1.40991,2.4302 -0.8171,0.62761 -2.00831,0.24017 l -4.50538,-1.46537 0.68473,-2.10526 z"
           id="path6082" />
        <path
           d="m 210.28059,130.96097 q -0.97686,-0.45825 -1.16673,-1.61585 -0.18425,-1.15497 0.52946,-2.6764 0.39505,-0.84212 0.87355,-1.45331 0.47849,-0.61118 0.86426,-0.93708 l 1.66179,0.77955 -0.0869,0.18527 q -0.17778,0.10154 -0.39908,0.23746 -0.21832,0.14417 -0.53548,0.44062 -0.2766,0.25381 -0.55903,0.60765 -0.27682,0.35646 -0.49014,0.81121 -0.27916,0.59509 -0.28435,0.94199 4.2e-4,0.34953 0.25867,0.47067 0.23018,0.10798 0.41024,-0.013 0.18568,-0.11838 0.50235,-0.5452 0.15587,-0.20086 0.39373,-0.5619 0.24084,-0.35279 0.47254,-0.62768 0.62751,-0.75362 1.29398,-0.94784 0.67209,-0.19158 1.37948,0.14025 0.90949,0.42665 1.10725,1.56741 0.20075,1.14901 -0.49979,2.64237 -0.33184,0.70738 -0.78068,1.28453 -0.44585,0.5854 -0.77985,0.87395 l -1.59441,-0.74795 0.0816,-0.17404 q 0.51947,-0.30428 0.98161,-0.793 0.46513,-0.48046 0.74166,-1.06994 0.22912,-0.48843 0.2524,-0.88849 0.0206,-0.39444 -0.22637,-0.51032 -0.22457,-0.10535 -0.41357,-0.009 -0.18901,0.0963 -0.57027,0.60238 -0.2066,0.27981 -0.43428,0.60453 -0.22469,0.33297 -0.48307,0.65014 -0.5817,0.69976 -1.20992,0.87083 -0.6226,0.1737 -1.29068,-0.1397 z"
           id="path6084" />
        <path
           d="m 205.2697,135.15108 q 0.10565,-0.35616 0.27087,-0.72715 0.15991,-0.37418 0.46033,-0.87372 0.67115,-1.11597 1.45203,-1.39168 0.7777,-0.27039 1.87242,0.38797 l 2.78994,1.67787 0.473,-0.7865 1.29666,0.77981 -0.473,0.7865 1.70585,1.02589 -1.15053,1.91311 -1.70586,-1.0259 -1.07703,1.79088 -1.29666,-0.77981 1.07703,-1.79088 -2.11504,-1.27198 q -0.31354,-0.18856 -0.55056,-0.32387 -0.23702,-0.1353 -0.47095,-0.16745 -0.23074,-0.0375 -0.4542,0.0814 -0.22133,0.1274 -0.43866,0.48876 -0.0895,0.1488 -0.16953,0.42629 -0.0832,0.2828 -0.0876,0.41041 l -0.0959,0.15943 z"
           id="path6086" />
        <path
           d="m 199.05384,150.01384 0.13778,-0.14281 q 0.13473,-0.0682 0.37217,-0.27858 0.23744,-0.21038 0.38383,-0.36212 0.33152,-0.34363 0.54093,-0.64999 0.2094,-0.30636 0.39507,-0.71317 l -3.35602,-3.23779 1.55001,-1.60661 5.01171,4.83517 -1.55,1.6066 -0.73637,-0.71042 q -0.0572,0.97025 -0.28877,1.50506 -0.22716,0.53911 -0.54577,0.86936 -0.0818,0.0848 -0.1896,0.18759 -0.1078,0.1028 -0.19423,0.17452 z"
           id="path6088" />
        <path
           d="m 191.30652,154.2709 3.93972,-3.25398 q -0.55952,-0.59952 -1.27582,-0.5709 -0.72108,0.0326 -1.5817,0.74339 -0.54506,0.45019 -0.89474,1.06876 -0.34968,0.61857 -0.46051,1.08813 l -0.19125,0.15796 -1.14126,-1.38177 q 0.38981,-0.71606 0.8193,-1.24774 0.42949,-0.53168 1.05583,-1.04899 1.61605,-1.33477 3.07691,-1.31884 1.46087,0.0159 2.57054,1.35944 1.09782,1.32918 0.92475,2.77506 -0.1739,1.45462 -1.59392,2.62747 -1.31005,1.08203 -2.51877,0.9624 -1.20477,-0.11485 -2.2315,-1.35796 z m 2.54491,-0.40491 q 0.46058,0.52843 0.93908,0.59166 0.4785,0.0632 1.01399,-0.37905 0.49725,-0.4107 0.60434,-0.93347 0.1071,-0.52276 -0.32458,-1.12332 z"
           id="path6090" />
        <path
           d="m 183.77965,159.69487 q -0.456,-0.73147 -0.60371,-1.47244 -0.15297,-0.73769 -0.0326,-1.35347 0.123,-0.64666 0.47066,-1.15569 0.34765,-0.50903 0.89493,-0.85021 0.50519,-0.31493 0.92665,-0.42422 0.41819,-0.11456 0.90794,-0.14949 l -1.53531,-2.46278 1.89444,-1.18101 5.0357,8.07771 -1.89445,1.18101 -0.38383,-0.6157 q -0.22025,0.61961 -0.53831,1.11749 -0.32332,0.50117 -0.91797,0.87187 -1.10509,0.68893 -2.22073,0.25907 -1.12091,-0.42657 -2.00338,-1.84214 z m 1.92936,-1.25394 q 0.53802,0.86303 1.07547,1.06873 0.53746,0.2057 1.1742,-0.19125 0.26838,-0.16731 0.50006,-0.42866 0.23496,-0.25608 0.39768,-0.56944 l -1.85353,-2.97323 q -0.23538,0.0444 -0.46425,0.15789 -0.22888,0.11345 -0.43938,0.24467 -0.75251,0.46913 -0.84859,1.13554 -0.0928,0.67168 0.45834,1.55575 z"
           id="path6092" />
        <path
           d="m 174.10201,160.21882 2.03929,-0.90832 0.31286,0.70242 q 0.37471,-0.68282 0.74396,-1.11882 0.37176,-0.43034 1.0232,-0.7205 1.05363,-0.46929 1.89573,-0.11801 0.83644,0.35382 1.36377,1.53773 l 1.84438,4.14088 -2.05062,0.91336 -1.40536,-3.15522 q -0.21446,-0.4815 -0.3866,-0.79177 -0.17528,-0.30209 -0.38193,-0.46122 -0.20098,-0.16165 -0.45913,-0.16207 -0.26382,0.002 -0.65468,0.17619 -0.26057,0.11606 -0.5349,0.35366 -0.27433,0.23759 -0.48563,0.55572 l 2.00838,4.50908 -2.03929,0.90832 z"
           id="path6094" />
        <path
           d="m 166.10875,166.38843 q -0.45413,-1.57931 0.13575,-2.82649 0.58392,-1.24547 1.88908,-1.62077 0.56021,-0.16109 1.01762,-0.16358 0.45742,-0.002 0.90396,0.11431 l -0.007,-0.35945 2.05609,-0.59123 2.66655,9.27325 -2.14548,0.61694 -0.94255,-3.27782 q -0.38154,0.53558 -0.82381,0.9273 -0.44823,0.39344 -1.12167,0.5871 -1.26941,0.36502 -2.21869,-0.35569 -0.94756,-0.71475 -1.41027,-2.32387 z m 2.19904,-0.6775 q 0.25706,0.89395 0.69982,1.28928 0.44275,0.39533 1.22347,0.17084 0.30394,-0.0874 0.59835,-0.2753 0.29611,-0.18194 0.53844,-0.43874 l -0.96654,-3.36125 q -0.25642,-0.0166 -0.47358,0.0136 -0.21716,0.0302 -0.50918,0.11415 -0.85223,0.24506 -1.12546,0.86564 -0.27322,0.62057 0.0147,1.6218 z"
           id="path6096" />
        <path
           d="m 161.31646,163.57236 2.19732,-0.39433 1.70438,9.4973 -2.19732,0.39433 z"
           id="path6098" />
        <path
           d="m 157.0108,164.12155 2.21876,-0.24657 0.76916,6.92131 -2.21876,0.24657 z m 0.81711,7.91427 2.34203,-0.26026 0.18698,1.68256 -2.34203,0.26027 z"
           id="path6100" />
        <path
           d="m 151.27895,164.21822 q 0.91138,-0.0188 1.67225,0.18252 0.75467,0.20149 1.32201,0.64255 0.56114,0.44118 0.87915,1.12309 0.31802,0.6819 0.33711,1.60568 0.0201,0.97337 -0.28766,1.68682 -0.31398,0.71357 -0.88716,1.19061 -0.55509,0.45185 -1.28864,0.67169 -0.73355,0.21985 -1.52713,0.23625 -0.71298,0.0147 -1.31757,-0.12783 -0.60459,-0.14257 -1.13051,-0.3798 l -0.0393,-1.90335 0.3162,-0.007 q 0.1325,0.1089 0.32157,0.25385 0.18287,0.14508 0.45241,0.28217 0.25702,0.13114 0.5626,0.21166 0.30572,0.0867 0.70871,0.0784 0.89277,-0.0185 1.36457,-0.59883 0.46573,-0.57406 0.44561,-1.54743 -0.0208,-1.00438 -0.52131,-1.51504 -0.50675,-0.51054 -1.41193,-0.49183 -0.42159,0.009 -0.75446,0.10863 -0.33894,0.10625 -0.55944,0.24106 -0.20824,0.12835 -0.36661,0.26808 -0.15838,0.13973 -0.29209,0.27275 l -0.31619,0.007 -0.0393,-1.90335 q 0.52186,-0.25889 1.0955,-0.4134 0.56731,-0.16059 1.26169,-0.17494 z"
           id="path6102" />
        <path
           d="m 136.64213,162.84576 2.18679,0.44906 -1.40083,6.82157 -2.18679,-0.44906 z m -1.66115,7.781 2.30827,0.47401 -0.34053,1.65832 -2.30828,-0.47401 z"
           id="path6104" />
        <path
           d="m 127.89843,160.32293 2.14028,0.67708 -1.0418,3.29319 q -0.12719,0.40204 -0.21112,0.81127 -0.0858,0.41513 -0.0451,0.63612 0.049,0.25617 0.24783,0.42962 0.19287,0.17159 0.60083,0.30065 0.2897,0.0916 0.62116,0.0924 0.32555,-0.001 0.73984,-0.0977 l 1.48882,-4.70626 2.12846,0.67334 -2.10044,6.6396 -2.12846,-0.67334 0.23193,-0.73313 q -0.70787,0.26387 -1.30297,0.33577 -0.60102,0.07 -1.23955,-0.13197 -1.07606,-0.34041 -1.48086,-1.1579 -0.41071,-0.81936 -0.0161,-2.06687 z"
           id="path6106" />
        <path
           d="m 122.77995,157.82887 q 0.8269,0.38367 1.42182,0.89897 0.58929,0.51269 0.90503,1.15823 0.31011,0.64292 0.29603,1.3952 -0.0141,0.75229 -0.40296,1.59044 -0.40977,0.88315 -0.99982,1.3887 -0.59567,0.50294 -1.32019,0.67948 -0.6972,0.16188 -1.45272,0.0369 -0.75553,-0.12496 -1.47555,-0.45903 -0.64689,-0.30015 -1.12728,-0.69395 -0.48039,-0.3938 -0.84851,-0.83805 l 0.80127,-1.72692 0.28688,0.13311 q 0.0712,0.15606 0.17727,0.36936 0.10049,0.2107 0.28234,0.45231 0.17321,0.23076 0.41231,0.4374 0.23648,0.21227 0.60211,0.38192 0.81003,0.37584 1.48891,0.0619 0.67065,-0.31092 1.08042,-1.19407 0.42281,-0.91128 0.19767,-1.58998 -0.23078,-0.68131 -1.05205,-1.06237 -0.38251,-0.17748 -0.72542,-0.23404 -0.35115,-0.0536 -0.60846,-0.0294 -0.24346,0.0238 -0.44713,0.0797 -0.20368,0.0559 -0.38224,0.1166 l -0.28688,-0.13311 0.80127,-1.72693 q 0.58253,-0.003 1.1657,0.1102 0.58016,0.10511 1.21018,0.39743 z"
           id="path6108" />
        <path
           d="m 111.37467,155.4662 q 0.91155,-1.45591 2.28954,-1.76376 1.36945,-0.30588 2.90419,0.65502 1.53475,0.96091 1.86298,2.32972 0.31969,1.37077 -0.59186,2.82668 -0.91812,1.46641 -2.29283,1.76901 -1.37995,0.2993 -2.90419,-0.65503 -1.54526,-0.96748 -1.85969,-2.33497 -0.31968,-1.37077 0.59186,-2.82667 z m 3.22678,0.0229 q -0.32546,0.11083 -0.61226,0.37025 -0.29534,0.26138 -0.64746,0.82377 -0.32578,0.52034 -0.45166,0.93172 -0.12587,0.41139 -0.0893,0.72693 0.0333,0.3208 0.21384,0.55824 0.18058,0.23743 0.45389,0.40855 0.27331,0.17113 0.53487,0.23246 0.25631,0.058 0.589,-0.0409 0.30179,-0.0964 0.63068,-0.38798 0.32364,-0.29488 0.66259,-0.83625 0.30275,-0.48355 0.43717,-0.8969 0.13113,-0.40809 0.0926,-0.73218 -0.0399,-0.31029 -0.21188,-0.54969 -0.17729,-0.24269 -0.47688,-0.43027 -0.25754,-0.16125 -0.54146,-0.22194 -0.29246,-0.0587 -0.58374,0.0442 z"
           id="path6110" />
        <path
           d="m 104.99498,152.12258 0.15492,0.12401 q 0.0803,0.12785 0.31175,0.34485 0.23141,0.21699 0.39601,0.34875 0.37278,0.29838 0.69717,0.4786 0.32438,0.18022 0.74659,0.32754 l 2.91409,-3.64065 1.74286,1.39504 -4.35175,5.43676 -1.74286,-1.39504 0.63939,-0.79881 q -0.97137,0.0327 -1.52529,-0.14857 -0.55778,-0.17641 -0.91604,-0.46317 -0.092,-0.0736 -0.2043,-0.17147 -0.11231,-0.0978 -0.19171,-0.17728 z"
           id="path6112" />
        <path
           d="m 99.392921,144.85134 q 0.613149,-0.60583 1.303429,-0.91302 0.68593,-0.31161 1.31309,-0.32977 0.65788,-0.0224 1.23094,0.20471 0.57307,0.22707 1.02636,0.68583 0.41841,0.42347 0.6178,0.81054 0.2038,0.38272 0.34568,0.85276 l 2.0644,-2.03978 1.56906,1.58801 -6.77107,6.6903 -1.56906,-1.58801 0.5161,-0.50994 q -0.65289,-0.0785 -1.208575,-0.27912 -0.560046,-0.20507 -1.052556,-0.70353 -0.915285,-0.92634 -0.741558,-2.10924 0.169368,-1.18731 1.35596,-2.35974 z m 1.647879,1.60601 q -0.72342,0.7148 -0.80577,1.28435 -0.0823,0.56955 0.44503,1.1033 0.22229,0.22497 0.52822,0.39343 0.30153,0.17282 0.64302,0.26257 l 2.49228,-2.46255 q -0.0952,-0.21982 -0.2562,-0.41811 -0.16106,-0.19829 -0.3354,-0.37473 -0.62326,-0.6308 -1.29448,-0.57782 -0.67563,0.0573 -1.4167,0.78956 z"
           id="path6114" />
        <path
           d="m 93.849146,137.48296 q 1.373126,-1.03204 2.769842,-0.82511 1.388033,0.2057 2.475958,1.65318 1.087924,1.44749 0.903317,2.84294 -0.193292,1.39422 -1.566417,2.42626 -1.38304,1.03949 -2.774799,0.82883 -1.395485,-0.21561 -2.475958,-1.65318 -1.095378,-1.4574 -0.89836,-2.84666 0.193292,-1.39422 1.566417,-2.42626 z m 3.003814,1.17887 q -0.343559,-0.0133 -0.704325,0.12599 -0.369448,0.13804 -0.899862,0.5367 -0.490756,0.36885 -0.75582,0.7077 -0.265063,0.33886 -0.344124,0.64652 -0.08402,0.31138 -6.29e-4,0.59779 0.08339,0.28641 0.277129,0.54418 0.19374,0.25777 0.415896,0.40885 0.218431,0.14613 0.564484,0.17306 0.316279,0.0183 0.727879,-0.13593 0.407875,-0.15917 0.918459,-0.54292 0.456056,-0.34277 0.729803,-0.6804 0.26879,-0.33389 0.349082,-0.65024 0.0741,-0.30393 -6.03e-4,-0.58911 -0.07843,-0.29013 -0.2908,-0.57269 -0.182563,-0.2429 -0.425811,-0.4014 -0.251931,-0.15973 -0.560758,-0.1681 z"
           id="path6116" />
        <path
           d="m 89.09296,132.07317 0.100112,0.17133 q 0.02912,0.14817 0.16726,0.43375 0.138136,0.28557 0.244505,0.46762 0.240895,0.41227 0.479018,0.69688 0.238123,0.28461 0.579361,0.57361 l 4.026327,-2.35264 1.126261,1.9275 -6.012721,3.51331 -1.12626,-1.9275 0.883436,-0.5162 q -0.918415,-0.31804 -1.370411,-0.68597 -0.457349,-0.36479 -0.688858,-0.761 -0.05944,-0.10173 -0.129172,-0.23336 -0.06973,-0.13163 -0.115334,-0.23426 z"
           id="path6118" />
        <path
           d="m 89.311978,125.36796 -1.328247,0.58427 q 0.216331,0.39939 0.491007,0.85441 0.268999,0.45751 0.45833,0.67231 0.231329,0.26407 0.491056,0.34629 0.251554,0.079 0.552396,-0.0533 0.198669,-0.0874 0.308566,-0.17638 0.109896,-0.089 0.163496,-0.27515 0.0561,-0.1805 0.03296,-0.38711 -0.02881,-0.20411 -0.198604,-0.59009 -0.134832,-0.30652 -0.397039,-0.56379 -0.264705,-0.26294 -0.57392,-0.41145 z m 0.987671,-0.43446 q 0.197288,0.10968 0.480619,0.27635 0.283331,0.16668 0.480386,0.33743 0.268566,0.24092 0.473328,0.537 0.210438,0.29359 0.380227,0.67957 0.399504,0.90821 0.107219,1.76844 -0.292286,0.86023 -1.166431,1.24475 -0.698182,0.30712 -1.27826,0.18968 -0.580078,-0.11744 -1.087697,-0.57838 -0.505122,-0.45527 -0.982512,-1.24791 -0.47739,-0.79265 -0.925484,-1.6727 l -0.03406,0.015 q -0.527893,0.23221 -0.536798,0.751 -0.01458,0.52128 0.354959,1.36137 0.222224,0.50519 0.656052,0.99859 0.428151,0.4959 0.634511,0.70321 l 0.0824,0.18732 -1.538269,0.67665 q -0.227467,-0.28609 -0.660595,-0.96271 -0.441302,-0.67981 -0.763402,-1.41205 -0.766547,-1.74261 -0.56688,-2.75179 0.191494,-1.01236 1.338101,-1.51673 l 4.336669,-1.90763 0.891393,2.02643 z"
           id="path6120" />
        <path
           d="m 88.042173,116.42725 q 0.196366,0.31536 0.364299,0.68513 0.173851,0.36791 0.348252,0.92412 0.38962,1.2426 0.07776,2.00976 -0.313711,0.76125 -1.532637,1.14345 l -3.106487,0.97405 0.274589,0.87573 -1.443776,0.4527 -0.27459,-0.87573 -1.899394,0.59556 -0.667919,-2.13016 1.899394,-0.59556 -0.625247,-1.99407 1.443777,-0.4527 0.625247,1.99407 2.355012,-0.73842 q 0.34911,-0.10947 0.607608,-0.19702 0.258498,-0.0875 0.437767,-0.24124 0.181125,-0.14778 0.240447,-0.39384 0.05155,-0.25013 -0.07461,-0.65249 -0.05195,-0.16568 -0.206444,-0.40968 -0.156351,-0.24993 -0.248918,-0.33788 l -0.05566,-0.17752 z"
           id="path6122" />
        <path
           d="m 83.412224,108.98544 0.98356,5.01421 q 0.793698,-0.20624 1.109848,-0.84963 0.314956,-0.64948 0.1001,-1.74482 -0.136075,-0.69371 -0.513288,-1.29589 -0.377213,-0.60218 -0.737223,-0.92336 l -0.04775,-0.24341 1.758625,-0.34496 q 0.4438,0.68391 0.706587,1.31485 0.262788,0.63094 0.419155,1.4281 0.40345,2.0568 -0.306646,3.33358 -0.710096,1.27677 -2.42004,1.61218 -1.691688,0.33183 -2.88041,-0.50928 -1.196001,-0.84601 -1.550513,-2.65332 -0.327057,-1.66735 0.354065,-2.67302 0.675036,-1.00448 2.25719,-1.31483 z m -0.856655,2.43037 q -0.684048,0.15313 -0.967642,0.54369 -0.283594,0.39055 -0.149906,1.07209 0.124138,0.63286 0.532713,0.97612 0.408576,0.34325 1.142264,0.24989 z"
           id="path6124" />
        <path
           d="m 85.835577,100.06086 0.135306,2.22832 -0.724203,0.044 q 0.505376,0.54709 0.758652,1.03493 0.253275,0.48784 0.293115,1.14395 0.07705,1.26891 -0.854705,2.08963 -0.931755,0.82073 -2.590614,0.92146 -0.885137,0.0537 -1.581421,-0.15869 -0.702851,-0.21825 -1.218904,-0.63423 -0.48979,-0.39271 -0.780028,-0.97771 -0.296428,-0.58462 -0.332885,-1.18503 -0.03796,-0.62517 0.07416,-1.02958 0.105555,-0.41023 0.284259,-0.84354 l -2.95871,0.17966 -0.135306,-2.22832 z m -1.783523,2.34483 -3.410564,0.20709 q -0.08475,0.24123 -0.112297,0.50383 -0.02754,0.2626 -0.01439,0.47924 0.05337,0.87895 0.630945,1.28497 0.571385,0.4064 1.54318,0.3474 1.021312,-0.062 1.464121,-0.44302 0.43662,-0.38063 0.389263,-1.16055 -0.01842,-0.30329 -0.150504,-0.63697 -0.138277,-0.33329 -0.339756,-0.58199 z"
           id="path6126" />
      </g>
      <g
         id="g6333"
         transform="matrix(0.4948905,0,0,0.4948905,136.24222,68.312123)">
        <path
           d="m 17.233656,48.659943 c -9.3098368,0 -17.92468577,1.10548 -25.8455469,3.313442 v 11.070806 c 7.5096683,-3.235344 15.8097228,-4.855115 24.9015639,-4.855115 5.402705,0 10.78581,0.54733 16.147716,1.641271 -0.732877,-2.986848 -2.161162,-5.513303 -4.346623,-7.740164 a 3.0039473,3.0039473 0 0 1 -0.0219,-0.02032 c -1.245978,-1.295477 -2.618654,-2.348759 -4.125528,-3.195844 -2.210961,-0.137098 -4.445422,-0.213756 -6.709282,-0.213756 z m 30.507465,4.608519 c 0.795956,3.280243 1.205579,6.83948 1.205579,10.657813 0,0.354024 -0.0231,0.692398 -0.0293,1.042182 4.392123,1.866067 8.380153,3.98243 11.95679,6.354089 V 58.316774 C 56.545866,56.332108 52.168243,54.649238 47.74142,53.267862 Z m -72.533728,5.275208 c -2.928949,1.615971 -5.7351,3.427239 -8.414653,5.439704 -13.349766,10.129823 -20.025649,22.534605 -20.025649,37.213346 0,15.10874 7.178574,27.68452 21.536623,37.72834 2.238661,1.56907 4.54092,3.00315 6.903579,4.30912 v -15.48972 c -8.378053,-7.72977 -12.57078,-16.74971 -12.57078,-27.06353 0,-5.6658 1.259578,-10.987806 3.778434,-15.966719 2.097763,-3.949131 5.030912,-7.654266 8.792546,-11.117805 z m 85.666498,72.65573 c -7.682665,4.03473 -15.239733,7.03937 -22.669603,9.01374 -7.304872,1.88856 -14.483746,2.83275 -21.536622,2.83275 -9.2994371,0 -17.7256893,-1.60427 -25.2795569,-4.81012 v 11.6238 c 7.3728707,2.06716 15.232733,3.10124 23.5785869,3.10124 13.727759,0 29.030491,-3.09004 45.907195,-9.27093 z"
           stroke-width="0.812346"
           id="path6227" />
        <path
           d="M -21.78566,32.110133 V 160.68788 h 10.172822 V 101.48292 H 3.3238998 c 7.7260642,0 13.2627672,1.96826 16.6107092,5.90429 3.863032,4.15473 7.554267,12.95578 11.073806,26.40454 l 1.275177,5.12201 c 1.74717,-0.34127 3.502939,-0.73626 5.268908,-1.19268 1.507673,-0.40075 3.022747,-0.84971 4.54402,-1.33917 l -5.808598,-19.97465 c -1.71687,-6.34149 -4.077929,-11.15181 -7.082476,-14.43275 -0.686758,-0.87469 -1.587872,-1.63987 -2.703852,-2.295862 -1.115981,-0.765346 -2.403858,-1.530873 -3.863233,-2.296259 8.155257,-3.170745 14.078753,-7.43477 17.769689,-12.791776 3.691335,-5.357406 5.537003,-12.245785 5.537003,-20.664638 0,-12.245785 -4.077729,-20.992632 -12.232786,-26.24054 C 27.874769,33.968 20.492499,32.109333 11.564655,32.109333 Z m 10.172822,11.315802 h 25.10956 c 6.953478,0 12.53378,2.186661 16.739706,6.560085 3.863032,3.936031 5.794498,8.910843 5.794498,14.924738 0,3.170744 -0.601239,6.28689 -1.803068,9.348236 -1.11598,3.061446 -2.575155,5.630801 -4.377923,7.708165 -2.661154,3.280042 -6.137693,5.6855 -10.429817,7.216173 -4.206427,1.421376 -9.400036,2.132063 -15.5807272,2.132063 H -11.613338 Z M 46.351146,151.01405 c -3.556338,0.95498 -7.041977,1.76277 -10.453817,2.41546 l 1.807768,7.26107 h 11.460799 z"
           stroke-width="0.756877"
           id="path6229" />
      </g>
      <path
         id="rect6359"
         style="fill:#ffffff;fill-rule:evenodd;stroke:#000000;stroke-width:1.44026"
         d="m 96.210505,156.3396 h 83.845015 c 6.16594,0 11.12985,4.96391 11.12985,11.12985 0,6.16593 -4.96391,11.12984 -11.12985,11.12984 H 96.210505 c -6.165935,0 -11.129847,-4.96391 -11.129847,-11.12984 0,-6.16594 4.963912,-11.12985 11.129847,-11.12985 z" />
      <g
         aria-label="established 2023"
         id="text7487"
         style="font-size:10.0654px;line-height:1.25;font-family:'Snell Roundhand';-inkscape-font-specification:'Snell Roundhand, Normal';stroke-width:0.209696">
        <path
           d="m 115.36963,187.41344 q 0,-0.14091 -0.0805,-0.21137 -0.0705,-0.0705 -0.18118,-0.0705 -0.21137,0 -0.46301,0.17111 -0.24156,0.16105 -0.48313,0.41269 -0.24157,0.24157 -0.44288,0.5234 -0.19124,0.28183 -0.2919,0.50327 0.22144,-0.0403 0.5536,-0.15098 0.33216,-0.12079 0.63412,-0.2919 0.31203,-0.17111 0.53346,-0.39255 0.22144,-0.23151 0.22144,-0.49321 z m 1.6306,0.53347 q -0.15098,0.25163 -0.38249,0.5536 -0.22144,0.30196 -0.51333,0.60392 -0.28183,0.2919 -0.61399,0.57373 -0.32209,0.27176 -0.67438,0.4932 -0.35229,0.21138 -0.71465,0.34223 -0.35229,0.12078 -0.69451,0.12078 -0.42275,0 -0.65425,-0.21137 -0.2315,-0.22144 -0.2315,-0.62406 0,-0.44287 0.2617,-0.92601 0.27176,-0.49321 0.68444,-0.90589 0.41268,-0.41268 0.90589,-0.68445 0.4932,-0.27176 0.94615,-0.27176 0.25163,0 0.39255,0.11072 0.14091,0.10065 0.14091,0.30196 0,0.24157 -0.2617,0.47307 -0.2617,0.22144 -0.64418,0.41268 -0.37242,0.18118 -0.80524,0.33216 -0.43281,0.14092 -0.76497,0.21138 -0.11071,0.2013 -0.18117,0.45294 -0.0705,0.25163 -0.0705,0.50327 0,0.12078 0.0201,0.24157 0.0302,0.11072 0.0805,0.21137 0.0604,0.0906 0.15098,0.15098 0.10066,0.0604 0.24157,0.0604 0.33216,0 0.77504,-0.21138 0.45294,-0.22144 0.91595,-0.58379 0.46301,-0.36236 0.88576,-0.82536 0.42274,-0.46301 0.72471,-0.95622 z"
           id="path12746" />
        <path
           d="m 120.33172,187.95698 q -0.30196,0.48313 -0.70458,0.96627 -0.39255,0.47308 -0.86562,0.85556 -0.47308,0.38249 -1.03674,0.62406 -0.5536,0.2315 -1.18772,0.2315 -0.24157,0 -0.45294,-0.0604 -0.21137,-0.0604 -0.37242,-0.18118 -0.15098,-0.12078 -0.24157,-0.30196 -0.10065,-0.19124 -0.10065,-0.44288 0,-0.2617 0.17111,-0.47307 0.17111,-0.21137 0.46301,-0.21137 0.15098,0 0.24157,0.0805 0.10065,0.0705 0.10065,0.22144 0,0.14091 -0.0705,0.24157 -0.0705,0.10065 -0.21137,0.10065 -0.11072,0 -0.18118,-0.0604 -0.0604,-0.0604 -0.0805,-0.15098 -0.11072,0.0604 -0.15098,0.18117 -0.0403,0.11072 -0.0403,0.23151 0,0.35229 0.2617,0.53346 0.27176,0.17112 0.60392,0.17112 0.21137,0 0.36236,-0.0805 0.16104,-0.0906 0.2617,-0.22144 0.11071,-0.14091 0.16104,-0.32209 0.0503,-0.18118 0.0503,-0.36235 0,-0.19125 -0.0705,-0.39255 -0.0604,-0.21138 -0.14091,-0.41268 -0.0805,-0.20131 -0.15099,-0.39256 -0.0705,-0.2013 -0.0705,-0.37241 0,-0.22144 0.0906,-0.39256 0.0906,-0.18117 0.24156,-0.30196 0.16105,-0.12078 0.36236,-0.18117 0.20131,-0.0705 0.42275,-0.0705 0.40261,0 0.65425,0.18117 0.25163,0.17112 0.25163,0.46301 0,0.2617 -0.20131,0.38249 -0.19124,0.12078 -0.43281,0.12078 0.0604,-0.11072 0.10066,-0.2617 0.0503,-0.16104 0.0503,-0.29189 0,-0.20131 -0.13085,-0.33216 -0.12078,-0.14092 -0.35229,-0.14092 -0.29189,0 -0.43281,0.18118 -0.14091,0.17111 -0.14091,0.42275 0,0.22144 0.0704,0.42274 0.0805,0.20131 0.18118,0.40262 0.0906,0.20131 0.16105,0.41268 0.0805,0.21137 0.0805,0.47307 0,0.19125 -0.0906,0.37242 -0.0805,0.17112 -0.22144,0.3221 -0.14091,0.14091 -0.32209,0.24157 -0.17111,0.10065 -0.35229,0.13085 l 0.0201,0.0201 q 0.54353,-0.0604 1.03674,-0.31203 0.4932,-0.2617 0.91595,-0.62405 0.43281,-0.37242 0.79517,-0.80524 0.36235,-0.44287 0.63412,-0.86562 z"
           id="path12748" />
        <path
           d="m 122.05275,185.92376 -0.79517,1.16759 h 1.32863 l -0.0604,0.12079 h -1.34876 q -0.40262,0.65425 -0.72471,1.13739 -0.31203,0.47307 -0.53347,0.82536 -0.21137,0.34222 -0.32209,0.58379 -0.11072,0.23151 -0.11072,0.41268 0,0.19125 0.13085,0.27177 0.13085,0.0705 0.30196,0.0705 0.36235,0 0.79517,-0.27177 0.44287,-0.28183 0.87569,-0.68445 0.43281,-0.40261 0.82536,-0.85556 0.39255,-0.45294 0.66432,-0.81529 l 0.0604,0.0403 q -0.34223,0.43281 -0.75491,0.91595 -0.40261,0.47307 -0.83542,0.87569 -0.43282,0.39255 -0.87569,0.65425 -0.43282,0.2617 -0.82537,0.2617 -0.31202,0 -0.54353,-0.19124 -0.22144,-0.19124 -0.22144,-0.53347 0,-0.2315 0.13085,-0.51333 0.13085,-0.2919 0.34223,-0.62406 0.21137,-0.33216 0.47307,-0.72471 0.27177,-0.39255 0.5536,-0.83542 h -0.54353 l 0.0604,-0.12079 h 0.56366 l 0.7851,-1.16759 z"
           id="path12750" />
        <path
           d="m 125.76027,187.09135 h 0.65425 q -0.37242,0.5234 -0.71464,1.01661 -0.34222,0.4932 -0.61399,0.91595 -0.2617,0.41268 -0.42275,0.73477 -0.16104,0.31203 -0.16104,0.49321 0,0.2617 0.27176,0.2617 0.21138,0 0.53347,-0.20131 0.33216,-0.21137 0.71464,-0.57373 0.38249,-0.36235 0.7851,-0.84549 0.40262,-0.48314 0.76497,-1.02667 l 0.0604,0.0201 q -0.27177,0.41268 -0.64419,0.89582 -0.36235,0.47307 -0.76497,0.88575 -0.40262,0.41268 -0.80523,0.69452 -0.40262,0.27176 -0.75491,0.27176 -0.29189,0 -0.43281,-0.14091 -0.13085,-0.15099 -0.13085,-0.35229 0,-0.14092 0.0403,-0.27177 0.0503,-0.14091 0.10066,-0.28183 l -0.0201,-0.0101 q -0.13085,0.14092 -0.33216,0.33216 -0.19124,0.18118 -0.42275,0.34223 -0.22144,0.16104 -0.46301,0.27176 -0.24157,0.11072 -0.46301,0.11072 -0.37242,0 -0.5234,-0.2315 -0.15098,-0.23151 -0.15098,-0.5234 0,-0.41268 0.2617,-0.90589 0.2617,-0.50327 0.66432,-0.93608 0.40262,-0.44288 0.87569,-0.73478 0.47307,-0.29189 0.89582,-0.29189 0.20131,0 0.35229,0.0604 0.15098,0.0503 0.25163,0.15098 0.10066,0.0906 0.15098,0.21137 0.0604,0.12079 0.0906,0.25164 h 0.0201 z m -3.29138,2.81831 q 0,0.23151 0.0906,0.36236 0.10065,0.12078 0.27176,0.12078 0.17111,0 0.40262,-0.12078 0.2315,-0.13085 0.48314,-0.34223 0.25163,-0.21137 0.4932,-0.48314 0.25164,-0.28183 0.44288,-0.59385 0.19124,-0.31203 0.31203,-0.63412 0.12078,-0.3221 0.12078,-0.61399 0,-0.23151 -0.13085,-0.35229 -0.13085,-0.12079 -0.32209,-0.12079 -0.30196,0 -0.67438,0.2617 -0.37242,0.2617 -0.70458,0.67438 -0.33216,0.40262 -0.56366,0.89583 -0.22144,0.4932 -0.22144,0.94614 z"
           id="path12752" />
        <path
           d="m 130.85698,183.58859 q -0.86562,1.3387 -1.49974,2.30498 -0.62406,0.95621 -1.06693,1.63059 -0.43282,0.66432 -0.70458,1.08707 -0.2617,0.42274 -0.40262,0.69451 -0.14091,0.27176 -0.19124,0.44288 -0.0503,0.16104 -0.0503,0.31202 0,0.20131 0.12079,0.33216 0.12078,0.12079 0.31202,0.12079 0.36236,0 0.77504,-0.30197 0.42275,-0.30196 0.77504,-0.73477 0.35229,-0.43281 0.58379,-0.89582 0.24157,-0.46301 0.24157,-0.79517 0,-0.11072 -0.0503,-0.21137 -0.0503,-0.11072 -0.0503,-0.2315 0,-0.14092 0.0604,-0.23151 0.0705,-0.10065 0.22144,-0.10065 0.17111,0 0.2617,0.18117 0.10065,0.18118 0.10065,0.47308 0,0.24157 -0.0403,0.44288 0.0906,0.12078 0.30196,0.2315 0.21137,0.11072 0.47307,0.11072 0.2919,0 0.53347,-0.15098 0.25164,-0.15098 0.42275,-0.37242 l 0.0705,0.0705 q -0.16105,0.2013 -0.43282,0.38248 -0.27176,0.17111 -0.60392,0.17111 -0.2315,0 -0.43281,-0.0805 -0.20131,-0.0906 -0.37242,-0.2315 -0.13085,0.41268 -0.44288,0.84549 -0.30196,0.42275 -0.71464,0.77504 -0.40262,0.34222 -0.86563,0.56366 -0.45294,0.21137 -0.88575,0.21137 -0.35229,0 -0.60393,-0.20131 -0.24157,-0.21137 -0.24157,-0.59386 0,-0.16104 0.0604,-0.35228 0.0604,-0.20131 0.21137,-0.49321 0.15098,-0.2919 0.41268,-0.72471 0.27177,-0.43281 0.68445,-1.06693 0.41268,-0.64419 0.99647,-1.51988 0.5838,-0.88575 1.3689,-2.07347 z"
           id="path12754" />
        <path
           d="m 135.3699,183.54833 q -0.89582,1.35883 -1.56014,2.3553 -0.66431,0.98641 -1.13739,1.69099 -0.47307,0.70458 -0.77503,1.16759 -0.30197,0.45294 -0.47308,0.74484 -0.17111,0.29189 -0.24157,0.46301 -0.0604,0.17111 -0.0604,0.29189 0,0.25164 0.22144,0.25164 0.25163,0 0.58379,-0.20131 0.34223,-0.21137 0.72471,-0.56366 0.39255,-0.36236 0.79517,-0.83543 0.40261,-0.48314 0.7851,-1.02667 l 0.11072,0.0403 q -0.36236,0.51333 -0.76497,0.99647 -0.40262,0.47308 -0.77504,0.82537 -0.4932,0.463 -0.85556,0.67438 -0.35229,0.21137 -0.64418,0.21137 -0.31203,0 -0.45295,-0.14091 -0.13085,-0.14092 -0.13085,-0.37242 0,-0.21138 0.0705,-0.43282 0.0805,-0.2315 0.2617,-0.54353 0.18118,-0.32209 0.47308,-0.77503 0.30196,-0.45295 0.73477,-1.1072 0.44288,-0.66431 1.03674,-1.5702 0.59386,-0.91595 1.36889,-2.14393 z"
           id="path12756" />
        <path
           d="m 135.36644,187.09135 q -0.5536,0.79517 -0.93608,1.3387 -0.38249,0.54353 -0.62406,0.90588 -0.2315,0.36236 -0.34222,0.57373 -0.10066,0.21138 -0.10066,0.34223 0,0.2617 0.21138,0.2617 0.2013,0 0.46301,-0.14092 0.27176,-0.15098 0.56366,-0.38248 0.29189,-0.23151 0.58379,-0.5234 0.2919,-0.2919 0.54353,-0.57373 0.2617,-0.2919 0.45295,-0.5536 0.2013,-0.27177 0.29189,-0.44288 l 0.0805,0.0503 q -0.12079,0.20131 -0.33216,0.48314 -0.20131,0.28183 -0.46301,0.58379 -0.2617,0.2919 -0.5536,0.5838 -0.29189,0.29189 -0.59386,0.5234 -0.30196,0.2315 -0.59386,0.37242 -0.28183,0.14091 -0.5234,0.14091 -0.27176,0 -0.40261,-0.15098 -0.13085,-0.15098 -0.13085,-0.33216 0,-0.21137 0.0906,-0.44288 0.10065,-0.24156 0.31202,-0.58379 0.21138,-0.34222 0.54354,-0.82536 0.34222,-0.49321 0.81529,-1.20785 z m 0.58379,-1.87216 q 0.14092,0 0.23151,0.10065 0.0906,0.0906 0.0906,0.2315 0,0.14092 -0.0906,0.24157 -0.0906,0.0906 -0.23151,0.0906 -0.14091,0 -0.2315,-0.0906 -0.0906,-0.10065 -0.0906,-0.24157 0,-0.14091 0.0906,-0.2315 0.0906,-0.10065 0.2315,-0.10065 z"
           id="path12758" />
        <path
           d="m 139.89241,187.95698 q -0.30196,0.48313 -0.70458,0.96627 -0.39255,0.47308 -0.86562,0.85556 -0.47308,0.38249 -1.03674,0.62406 -0.5536,0.2315 -1.18772,0.2315 -0.24157,0 -0.45294,-0.0604 -0.21137,-0.0604 -0.37242,-0.18118 -0.15098,-0.12078 -0.24157,-0.30196 -0.10065,-0.19124 -0.10065,-0.44288 0,-0.2617 0.17111,-0.47307 0.17111,-0.21137 0.46301,-0.21137 0.15098,0 0.24157,0.0805 0.10065,0.0705 0.10065,0.22144 0,0.14091 -0.0705,0.24157 -0.0705,0.10065 -0.21137,0.10065 -0.11072,0 -0.18118,-0.0604 -0.0604,-0.0604 -0.0805,-0.15098 -0.11072,0.0604 -0.15098,0.18117 -0.0403,0.11072 -0.0403,0.23151 0,0.35229 0.2617,0.53346 0.27176,0.17112 0.60392,0.17112 0.21137,0 0.36236,-0.0805 0.16104,-0.0906 0.2617,-0.22144 0.11071,-0.14091 0.16104,-0.32209 0.0503,-0.18118 0.0503,-0.36235 0,-0.19125 -0.0705,-0.39255 -0.0604,-0.21138 -0.14091,-0.41268 -0.0805,-0.20131 -0.15099,-0.39256 -0.0705,-0.2013 -0.0705,-0.37241 0,-0.22144 0.0906,-0.39256 0.0906,-0.18117 0.24156,-0.30196 0.16105,-0.12078 0.36236,-0.18117 0.20131,-0.0705 0.42275,-0.0705 0.40261,0 0.65425,0.18117 0.25163,0.17112 0.25163,0.46301 0,0.2617 -0.20131,0.38249 -0.19124,0.12078 -0.43281,0.12078 0.0604,-0.11072 0.10066,-0.2617 0.0503,-0.16104 0.0503,-0.29189 0,-0.20131 -0.13085,-0.33216 -0.12078,-0.14092 -0.35229,-0.14092 -0.29189,0 -0.43281,0.18118 -0.14091,0.17111 -0.14091,0.42275 0,0.22144 0.0704,0.42274 0.0805,0.20131 0.18118,0.40262 0.0906,0.20131 0.16105,0.41268 0.0805,0.21137 0.0805,0.47307 0,0.19125 -0.0906,0.37242 -0.0805,0.17112 -0.22144,0.3221 -0.14091,0.14091 -0.32209,0.24157 -0.17111,0.10065 -0.35229,0.13085 l 0.0201,0.0201 q 0.54353,-0.0604 1.03674,-0.31203 0.4932,-0.2617 0.91595,-0.62405 0.43281,-0.37242 0.79517,-0.80524 0.36235,-0.44287 0.63412,-0.86562 z"
           id="path12760" />
        <path
           d="m 143.20377,183.58859 -3.56315,5.2944 0.0201,0.0201 q 0.20131,-0.25163 0.47307,-0.57373 0.27177,-0.33215 0.58379,-0.62405 0.3221,-0.2919 0.67439,-0.4932 0.35229,-0.20131 0.70457,-0.20131 0.61399,0 0.61399,0.61399 0,0.16104 -0.12078,0.38248 -0.11072,0.22144 -0.2919,0.47308 -0.17111,0.24157 -0.37242,0.4932 -0.20131,0.25164 -0.38248,0.49321 -0.17111,0.2315 -0.2919,0.44287 -0.11072,0.20131 -0.11072,0.34223 0,0.11072 0.0604,0.19124 0.0705,0.0705 0.18118,0.0705 0.23151,0 0.50327,-0.14092 0.28183,-0.15098 0.57373,-0.38248 0.30196,-0.24157 0.59386,-0.53347 0.29189,-0.2919 0.53346,-0.57373 0.25164,-0.29189 0.44288,-0.54353 0.20131,-0.2617 0.2919,-0.42275 l 0.0604,0.0201 q -0.11072,0.19125 -0.31203,0.46301 -0.2013,0.27177 -0.46301,0.57373 -0.25163,0.30196 -0.55359,0.60392 -0.2919,0.2919 -0.59386,0.53347 -0.2919,0.2315 -0.58379,0.38249 -0.2919,0.14091 -0.54354,0.14091 -0.2617,0 -0.43281,-0.16104 -0.16104,-0.16105 -0.16104,-0.44288 0,-0.20131 0.11072,-0.44288 0.12078,-0.24157 0.29189,-0.48314 0.18118,-0.25163 0.38249,-0.4932 0.2013,-0.25164 0.37242,-0.47308 0.18117,-0.22144 0.29189,-0.40261 0.12079,-0.19125 0.12079,-0.3221 0,-0.16104 -0.0906,-0.22144 -0.0906,-0.0604 -0.22144,-0.0604 -0.25163,0 -0.56366,0.19124 -0.30196,0.18118 -0.63412,0.48314 -0.32209,0.30197 -0.64419,0.68445 -0.32209,0.37242 -0.61399,0.75491 -0.28183,0.38248 -0.50327,0.72471 -0.21137,0.34222 -0.33216,0.58379 h -0.65425 q 0.5536,-0.86563 1.13739,-1.76145 0.5838,-0.89582 1.15753,-1.78157 0.58379,-0.88576 1.13739,-1.74132 0.55359,-0.86562 1.0468,-1.65072 z"
           id="path12762" />
        <path
           d="m 146.11629,187.41344 q 0,-0.14091 -0.0805,-0.21137 -0.0705,-0.0705 -0.18117,-0.0705 -0.21138,0 -0.46301,0.17111 -0.24157,0.16105 -0.48314,0.41269 -0.24157,0.24157 -0.44288,0.5234 -0.19124,0.28183 -0.2919,0.50327 0.22144,-0.0403 0.5536,-0.15098 0.33216,-0.12079 0.63412,-0.2919 0.31203,-0.17111 0.53347,-0.39255 0.22144,-0.23151 0.22144,-0.49321 z m 1.63059,0.53347 q -0.15098,0.25163 -0.38248,0.5536 -0.22144,0.30196 -0.51334,0.60392 -0.28183,0.2919 -0.61399,0.57373 -0.32209,0.27176 -0.67438,0.4932 -0.35229,0.21138 -0.71464,0.34223 -0.35229,0.12078 -0.69452,0.12078 -0.42274,0 -0.65425,-0.21137 -0.2315,-0.22144 -0.2315,-0.62406 0,-0.44287 0.2617,-0.92601 0.27176,-0.49321 0.68445,-0.90589 0.41268,-0.41268 0.90588,-0.68445 0.49321,-0.27176 0.94615,-0.27176 0.25163,0 0.39255,0.11072 0.14092,0.10065 0.14092,0.30196 0,0.24157 -0.2617,0.47307 -0.26171,0.22144 -0.64419,0.41268 -0.37242,0.18118 -0.80523,0.33216 -0.43281,0.14092 -0.76497,0.21138 -0.11072,0.2013 -0.18118,0.45294 -0.0705,0.25163 -0.0705,0.50327 0,0.12078 0.0201,0.24157 0.0302,0.11072 0.0805,0.21137 0.0604,0.0906 0.15098,0.15098 0.10065,0.0604 0.24157,0.0604 0.33215,0 0.77503,-0.21138 0.45295,-0.22144 0.91595,-0.58379 0.46301,-0.36236 0.88576,-0.82536 0.42275,-0.46301 0.72471,-0.95622 z"
           id="path12764" />
        <path
           d="m 153.27263,183.58859 q -0.39255,0.62406 -0.85556,1.31857 -0.46301,0.69451 -0.92602,1.37896 -0.46301,0.68445 -0.89582,1.32863 -0.42275,0.63412 -0.7549,1.16759 -0.33216,0.53346 -0.53347,0.92601 -0.19124,0.38249 -0.19124,0.56367 0,0.11072 0.0503,0.18117 0.0604,0.0604 0.17112,0.0604 0.25163,0 0.57372,-0.20131 0.3221,-0.20131 0.77504,-0.63412 0.39255,-0.38249 0.76497,-0.8455 0.37242,-0.47307 0.64419,-0.92601 l 0.0805,0.0403 q -0.0906,0.16105 -0.24157,0.38248 -0.14092,0.21138 -0.32209,0.44288 -0.17112,0.23151 -0.37242,0.47308 -0.20131,0.2315 -0.41269,0.44287 -0.40261,0.41269 -0.79516,0.68445 -0.39255,0.2617 -0.72471,0.2617 -0.32209,0 -0.48314,-0.13085 -0.15098,-0.14091 -0.15098,-0.35229 0,-0.19124 0.0805,-0.37242 0.0805,-0.18117 0.16105,-0.32209 l -0.0201,-0.0101 q -0.16105,0.18118 -0.36236,0.39255 -0.19124,0.20131 -0.41268,0.38249 -0.22144,0.18118 -0.47307,0.30196 -0.24157,0.11072 -0.50327,0.11072 -0.36236,0 -0.56366,-0.22144 -0.19125,-0.22144 -0.19125,-0.5234 0,-0.42274 0.2919,-0.92601 0.2919,-0.50327 0.72471,-0.93609 0.44288,-0.43281 0.94615,-0.72471 0.50327,-0.29189 0.93608,-0.29189 0.32209,0 0.51333,0.20131 0.19125,0.2013 0.18118,0.51333 h 0.0302 l 2.59687,-4.13688 z m -3.57322,4.14695 q 0,-0.24157 -0.0805,-0.42275 -0.0805,-0.18118 -0.37242,-0.18118 -0.20131,0 -0.45295,0.14092 -0.24157,0.14091 -0.4932,0.37242 -0.25164,0.2315 -0.49321,0.53346 -0.2315,0.2919 -0.41268,0.60393 -0.18117,0.30196 -0.29189,0.59386 -0.11072,0.29189 -0.11072,0.5234 0,0.21137 0.0805,0.35229 0.0805,0.14091 0.2919,0.14091 0.18117,0 0.41268,-0.14091 0.24157,-0.14092 0.50327,-0.36236 0.2617,-0.2315 0.51333,-0.5234 0.25164,-0.2919 0.45295,-0.58379 0.2013,-0.2919 0.32209,-0.56366 0.13085,-0.28184 0.13085,-0.48314 z"
           id="path12766" />
        <path
           d="m 158.51026,188.90312 q -0.15099,0.2919 -0.35229,0.60393 -0.19125,0.30196 -0.44288,0.55359 -0.25164,0.25164 -0.56366,0.41269 -0.31203,0.16104 -0.68445,0.16104 -0.20131,0 -0.41268,-0.10065 -0.20131,-0.11072 -0.42275,-0.22144 -0.22144,-0.11072 -0.45294,-0.21137 -0.23151,-0.10066 -0.49321,-0.10066 -0.29189,0 -0.4932,0.10066 -0.19124,0.0906 -0.31203,0.21137 -0.12078,0.12078 -0.20131,0.22144 -0.0704,0.10065 -0.12078,0.10065 -0.0503,0 -0.0604,-0.0302 0,-0.0302 0,-0.0705 0,-0.16105 0.69451,-0.59386 0.70458,-0.44288 2.14393,-1.09713 0.68445,-0.31203 1.11726,-0.60392 0.43281,-0.2919 0.67438,-0.5838 0.24157,-0.30196 0.33216,-0.59386 0.0906,-0.29189 0.0906,-0.60392 0,-0.51333 -0.27177,-0.83543 -0.2617,-0.32209 -0.77503,-0.32209 -0.22144,0 -0.46301,0.0805 -0.23151,0.0805 -0.42275,0.24157 -0.19124,0.15098 -0.32209,0.37242 -0.12079,0.22144 -0.12079,0.50327 0,0.2617 0.16105,0.47308 0.17111,0.2013 0.43281,0.2013 0.12079,0 0.19124,-0.0302 0.0805,-0.0302 0.19125,-0.0805 l 0.0403,0.0302 q -0.11072,0.20131 -0.30196,0.32209 -0.19125,0.12079 -0.43282,0.12079 -0.31202,0 -0.50327,-0.20131 -0.18117,-0.21137 -0.18117,-0.56366 0,-0.2617 0.12078,-0.54353 0.13085,-0.2919 0.37242,-0.53347 0.24157,-0.24157 0.59386,-0.39255 0.35229,-0.16105 0.80523,-0.16105 0.39255,0 0.67438,0.11072 0.2919,0.11072 0.48314,0.2919 0.19125,0.17111 0.28183,0.40262 0.0906,0.22143 0.0906,0.45294 0,0.4932 -0.2315,0.87569 -0.22144,0.37242 -0.60393,0.67438 -0.37242,0.2919 -0.86562,0.53347 -0.48314,0.2315 -0.99647,0.45294 -0.51334,0.21137 -1.01661,0.43281 -0.4932,0.22144 -0.89582,0.49321 l 0.0201,0.0403 q 0.15098,-0.0805 0.31203,-0.15098 0.16104,-0.0705 0.35229,-0.0705 0.17111,0 0.40261,0.0906 0.24157,0.0805 0.49321,0.18117 0.24157,0.10066 0.47307,0.19125 0.23151,0.0906 0.39255,0.0906 0.23151,0 0.44288,-0.14092 0.22144,-0.14092 0.40262,-0.34222 0.18117,-0.20131 0.32209,-0.43282 0.15098,-0.24157 0.24157,-0.42274 z"
           id="path12768" />
        <path
           d="m 159.57719,189.32587 q 0,-0.45294 0.16104,-0.92602 0.16105,-0.48314 0.43282,-0.93608 0.28183,-0.46301 0.64418,-0.86562 0.36236,-0.41269 0.77504,-0.71465 0.41268,-0.31202 0.83543,-0.48314 0.43281,-0.18117 0.83542,-0.18117 0.3221,0 0.54354,0.10065 0.2315,0.10065 0.37242,0.28183 0.14091,0.18118 0.2013,0.43281 0.0705,0.24157 0.0705,0.53347 0,0.41268 -0.17111,0.87569 -0.16105,0.46301 -0.44288,0.91595 -0.27176,0.45294 -0.64418,0.86563 -0.37242,0.40261 -0.7851,0.7247 -0.41269,0.31203 -0.8455,0.50327 -0.42275,0.18118 -0.82536,0.18118 -0.59386,0 -0.87569,-0.36235 -0.28183,-0.37242 -0.28183,-0.94615 z m 0.60392,0.0403 q 0,0.22144 0.0302,0.42275 0.0403,0.20131 0.12078,0.35229 0.0906,0.15098 0.22144,0.24157 0.14092,0.0906 0.35229,0.0906 0.49321,0 1.00654,-0.34223 0.5234,-0.35229 0.94615,-0.91595 0.43281,-0.56366 0.70458,-1.27831 0.28183,-0.71464 0.28183,-1.43935 0,-0.22144 -0.0503,-0.42274 -0.0403,-0.20131 -0.15098,-0.35229 -0.10065,-0.16105 -0.2617,-0.25164 -0.16105,-0.0906 -0.40262,-0.0906 -0.44287,0 -0.93608,0.36236 -0.4932,0.36235 -0.90589,0.93608 -0.41268,0.57373 -0.68444,1.28837 -0.27177,0.70458 -0.27177,1.39909 z"
           id="path12770" />
        <path
           d="m 168.57565,188.90312 q -0.15098,0.2919 -0.35228,0.60393 -0.19125,0.30196 -0.44288,0.55359 -0.25164,0.25164 -0.56366,0.41269 -0.31203,0.16104 -0.68445,0.16104 -0.20131,0 -0.41268,-0.10065 -0.20131,-0.11072 -0.42275,-0.22144 -0.22144,-0.11072 -0.45294,-0.21137 -0.23151,-0.10066 -0.49321,-0.10066 -0.29189,0 -0.4932,0.10066 -0.19124,0.0906 -0.31203,0.21137 -0.12078,0.12078 -0.20131,0.22144 -0.0705,0.10065 -0.12078,0.10065 -0.0503,0 -0.0604,-0.0302 0,-0.0302 0,-0.0705 0,-0.16105 0.69451,-0.59386 0.70458,-0.44288 2.14393,-1.09713 0.68445,-0.31203 1.11726,-0.60392 0.43281,-0.2919 0.67438,-0.5838 0.24157,-0.30196 0.33216,-0.59386 0.0906,-0.29189 0.0906,-0.60392 0,-0.51333 -0.27177,-0.83543 -0.2617,-0.32209 -0.77504,-0.32209 -0.22143,0 -0.463,0.0805 -0.23151,0.0805 -0.42275,0.24157 -0.19124,0.15098 -0.32209,0.37242 -0.12079,0.22144 -0.12079,0.50327 0,0.2617 0.16105,0.47308 0.17111,0.2013 0.43281,0.2013 0.12079,0 0.19124,-0.0302 0.0805,-0.0302 0.19125,-0.0805 l 0.0403,0.0302 q -0.11072,0.20131 -0.30196,0.32209 -0.19125,0.12079 -0.43282,0.12079 -0.31202,0 -0.50327,-0.20131 -0.18117,-0.21137 -0.18117,-0.56366 0,-0.2617 0.12078,-0.54353 0.13085,-0.2919 0.37242,-0.53347 0.24157,-0.24157 0.59386,-0.39255 0.35229,-0.16105 0.80523,-0.16105 0.39255,0 0.67438,0.11072 0.2919,0.11072 0.48314,0.2919 0.19124,0.17111 0.28183,0.40262 0.0906,0.22143 0.0906,0.45294 0,0.4932 -0.2315,0.87569 -0.22144,0.37242 -0.60393,0.67438 -0.37242,0.2919 -0.86562,0.53347 -0.48314,0.2315 -0.99648,0.45294 -0.51333,0.21137 -1.0166,0.43281 -0.49321,0.22144 -0.89582,0.49321 l 0.0201,0.0403 q 0.15098,-0.0805 0.31203,-0.15098 0.16104,-0.0705 0.35229,-0.0705 0.17111,0 0.40261,0.0906 0.24157,0.0805 0.49321,0.18117 0.24157,0.10066 0.47307,0.19125 0.2315,0.0906 0.39255,0.0906 0.23151,0 0.44288,-0.14092 0.22144,-0.14092 0.40261,-0.34222 0.18118,-0.20131 0.3221,-0.43282 0.15098,-0.24157 0.24157,-0.42274 z"
           id="path12772" />
        <path
           d="m 171.27318,187.73554 q 0.24157,-0.0302 0.53347,-0.0503 0.30196,-0.0302 0.59386,-0.0705 0.30196,-0.0503 0.57372,-0.14091 0.28184,-0.0906 0.49321,-0.24157 0.22144,-0.16105 0.35229,-0.40262 0.13085,-0.24157 0.13085,-0.59386 0,-0.39255 -0.21138,-0.66431 -0.2013,-0.27177 -0.62405,-0.27177 -0.19124,0 -0.39255,0.0604 -0.19124,0.0604 -0.34222,0.18118 -0.15099,0.11072 -0.25164,0.28183 -0.0906,0.16105 -0.0906,0.37242 0,0.22144 0.11072,0.41268 0.12079,0.18118 0.36236,0.18118 0.11072,0 0.18117,-0.0101 0.0705,-0.0201 0.17111,-0.0705 -0.0101,0.19124 -0.2013,0.32209 -0.18118,0.12078 -0.41268,0.12078 -0.2919,0 -0.45295,-0.19124 -0.16104,-0.19124 -0.16104,-0.45294 0,-0.27177 0.13085,-0.51334 0.13085,-0.25163 0.35229,-0.44288 0.22143,-0.19124 0.51333,-0.30196 0.30196,-0.11072 0.64419,-0.11072 0.33215,0 0.56366,0.0906 0.24157,0.0805 0.40261,0.23151 0.16105,0.15098 0.23151,0.35228 0.0805,0.20131 0.0805,0.42275 0,0.36236 -0.20131,0.62406 -0.2013,0.25163 -0.5234,0.42274 -0.32209,0.17112 -0.72471,0.28183 -0.40261,0.10066 -0.80523,0.15099 v 0.0201 q 0.49321,0.0302 0.79517,0.30196 0.31203,0.2617 0.31203,0.7851 0,0.40262 -0.22144,0.74484 -0.22144,0.33216 -0.59386,0.57373 -0.36236,0.2315 -0.83543,0.36235 -0.46301,0.13085 -0.95621,0.13085 -0.33216,0 -0.64419,-0.0805 -0.31203,-0.0906 -0.55359,-0.25164 -0.24157,-0.17111 -0.39256,-0.40261 -0.14091,-0.24157 -0.14091,-0.54353 0,-0.40262 0.2315,-0.69452 0.24157,-0.30196 0.66432,-0.30196 0.14092,0 0.2919,0.0604 0.15098,0.0604 0.25163,0.16105 l -0.0101,0.0403 q -0.0805,-0.0201 -0.14092,-0.0201 -0.30196,0 -0.5234,0.24157 -0.22144,0.24157 -0.22144,0.69451 0,0.49321 0.34222,0.73478 0.34223,0.24157 0.85556,0.24157 0.38249,0 0.73478,-0.12079 0.36235,-0.12078 0.63412,-0.34222 0.28183,-0.22144 0.45294,-0.53347 0.17111,-0.32209 0.17111,-0.71464 0,-0.45294 -0.25163,-0.69451 -0.25164,-0.25164 -0.70458,-0.25164 -0.14092,0 -0.2919,0.0101 -0.14091,0.0101 -0.28183,0.0302 z"
           id="path12774" />
      </g>
      <g
         id="g12630"
         transform="matrix(0.57845289,0,0,0.57845289,91.349576,103.28885)">
        <path
           id="rect9233"
           style="fill:#ffffff;fill-rule:evenodd;stroke:#000000;stroke-width:1.32292"
           d="m 21.351853,98.774483 h 14.125451 c 2.833682,0 5.114951,2.281267 5.114951,5.114947 v 14.12545 c 0,2.83369 -2.281269,5.11496 -5.114951,5.11496 H 21.351853 c -2.833683,0 -5.114951,-2.28127 -5.114951,-5.11496 v -14.12545 c 0,-2.83368 2.281268,-5.114947 5.114951,-5.114947 z" />
        <g
           aria-label="P"
           id="text9735"
           style="font-size:16.9333px;line-height:1.25;font-family:College;-inkscape-font-specification:'College, Normal';stroke-width:0.264583">
          <path
             d="m 24.693873,116.73991 v -1.65365 h 0.826822 v -8.26821 h -0.826822 v -1.65364 h 6.118478 l 1.322914,1.32291 v 3.96874 l -1.322914,1.32292 h -3.638014 v 3.30728 h 0.826822 v 1.65365 z m 2.480464,-6.61457 h 3.307285 v -3.30729 h -3.307285 z"
             id="path12778" />
        </g>
      </g>
      <g
         id="g12650"
         transform="matrix(0.57823563,0,0,0.57873078,130.7679,156.00846)">
        <path
           id="rect9233-2"
           style="fill:#ffffff;fill-rule:evenodd;stroke:#000000;stroke-width:1.32292"
           d="m 10.527252,8.7949886 h 14.12545 c 2.833683,0 5.114951,2.2812684 5.114951,5.1149514 v 14.12545 c 0,2.833683 -2.281268,5.114951 -5.114951,5.114951 h -14.12545 c -2.8336827,0 -5.1149509,-2.281268 -5.1149509,-5.114951 V 13.90994 c 0,-2.833683 2.2812682,-5.1149514 5.1149509,-5.1149514 z" />
        <g
           id="g12644"
           transform="matrix(0.03806405,0,0,0.03806405,7.8455805,11.228268)">
          <path
             d="m 314.56,48 c 0,0 -22.78,8 -58.56,8 -35.78,0 -58.56,-8 -58.56,-8 a 31.94,31.94 0 0 0 -10.57,1.8 L 32,104 l 16.63,88 48.88,5.52 A 24,24 0 0 1 118.8,222.1 L 112,464 h 288 l -6.8,-241.9 a 24,24 0 0 1 21.29,-24.58 L 463.37,192 480,104 325.13,49.8 A 31.94,31.94 0 0 0 314.56,48 Z"
             style="fill:none;stroke:#000000;stroke-width:32px;stroke-linecap:round;stroke-linejoin:round"
             id="path12632" />
          <path
             d="m 333.31,52.66 a 80,80 0 0 1 -154.62,0"
             style="fill:none;stroke:#000000;stroke-width:32px;stroke-linecap:round;stroke-linejoin:round"
             id="path12634" />
        </g>
      </g>
      <g
         id="g12690"
         transform="matrix(0.58616159,0,0,0.57897238,28.176994,125.94961)">
        <path
           id="rect9233-1"
           style="fill:#ffffff;fill-rule:evenodd;stroke:#000000;stroke-width:1.32292"
           d="m 235.13773,59.535309 h 14.12545 c 2.83369,0 5.11495,2.281268 5.11495,5.114951 v 14.12545 c 0,2.833683 -2.28126,5.114951 -5.11495,5.114951 h -14.12545 c -2.83368,0 -5.11495,-2.281268 -5.11495,-5.114951 V 64.65026 c 0,-2.833683 2.28127,-5.114951 5.11495,-5.114951 z" />
        <g
           id="g12681"
           transform="matrix(0.03715437,0,0,0.03715437,232.94902,62.15428)">
          <path
             d="M 314.21,482.32 257.44,367.58 212.55,310.19 A 72.82,72.82 0 0 1 202.42,273.14 V 144 h 15.67 a 40.22,40.22 0 0 1 40.23,40.22 v 183.36"
             style="fill:none;stroke:#000000;stroke-width:32px;stroke-linecap:round;stroke-linejoin:round"
             id="path12660" />
          <path
             d="m 127.9,293.05 v -74.52 c 0,0 37.26,-74.53 74.52,-74.53"
             style="fill:none;stroke:#000000;stroke-width:32px;stroke-linecap:round;stroke-linejoin:round"
             id="path12662" />
          <path
             id="line12664"
             style="fill:none;stroke:#000000;stroke-width:32px;stroke-linecap:round;stroke-linejoin:round"
             d="M 370.10001,274.42001 304,231" />
          <path
             id="line12666"
             style="fill:none;stroke:#000000;stroke-width:32px;stroke-linecap:round;stroke-linejoin:round"
             d="M 170.53,478.35999 224,400" />
          <path
             id="circle12668"
             style="fill:none;stroke:#000000;stroke-width:32px;stroke-linecap:round;stroke-linejoin:round"
             d="m 295.58001,69.480003 a 37.259998,37.259998 0 0 1 -37.26,37.259997 37.259998,37.259998 0 0 1 -37.26,-37.259997 37.259998,37.259998 0 0 1 37.26,-37.259998 37.259998,37.259998 0 0 1 37.26,37.259998 z" />
        </g>
      </g>
    </g>
  </g>
</svg>
