<?xml version="1.0" encoding="UTF-8" standalone="no"?>
<!-- Created with Inkscape (http://www.inkscape.org/) -->

<svg
   width="1122.5197"
   height="793.70081"
   viewBox="0 0 297 210"
   version="1.1"
   id="svg5"
   inkscape:version="1.1.2 (b8e25be8, 2022-02-05)"
   sodipodi:docname="logo.svg"
   xmlns:inkscape="http://www.inkscape.org/namespaces/inkscape"
   xmlns:sodipodi="http://sodipodi.sourceforge.net/DTD/sodipodi-0.dtd"
   xmlns="http://www.w3.org/2000/svg"
   xmlns:svg="http://www.w3.org/2000/svg">
  <sodipodi:namedview
     id="namedview7"
     pagecolor="#ffffff"
     bordercolor="#cccccc"
     borderopacity="1"
     inkscape:pageshadow="0"
     inkscape:pageopacity="1"
     inkscape:pagecheckerboard="0"
     inkscape:document-units="px"
     showgrid="false"
     units="px"
     inkscape:zoom="0.39108446"
     inkscape:cx="484.55007"
     inkscape:cy="423.18225"
     inkscape:window-width="1280"
     inkscape:window-height="703"
     inkscape:window-x="0"
     inkscape:window-y="25"
     inkscape:window-maximized="0"
     inkscape:current-layer="layer1" />
  <defs
     id="defs2">
    <filter
       inkscape:label="Black Light"
       inkscape:menu="Color"
       inkscape:menu-tooltip="Light areas turn to black"
       style="color-interpolation-filters:sRGB;"
       id="filter1480"
       x="-0.0053337595"
       y="-0.0029431858"
       width="1.0124401"
       height="1.0058864">
      <feColorMatrix
         type="luminanceToAlpha"
         result="result2"
         id="feColorMatrix1472" />
      <feComposite
         in2="SourceGraphic"
         operator="arithmetic"
         in="result2"
         k3="2"
         result="result4"
         id="feComposite1474" />
      <feBlend
         in="result4"
         mode="multiply"
         result="result3"
         in2="result2"
         id="feBlend1476" />
      <feComposite
         in2="SourceGraphic"
         operator="in"
         in="result3"
         id="feComposite1478" />
    </filter>
    <filter
       inkscape:label="Blend Opposites"
       inkscape:menu="Color"
       inkscape:menu-tooltip="Blend an image with its hue opposite"
       style="color-interpolation-filters:sRGB;"
       id="filter1616"
       x="-0.0053337595"
       y="-0.0029431858"
       width="1.0124401"
       height="1.0058864">
      <feColorMatrix
         type="hueRotate"
         values="180"
         result="fbSourceGraphic"
         in="SourceGraphic"
         id="feColorMatrix1598" />
      <feColorMatrix
         values="1 0 0 0 0 0 1 0 0 0 0 0 1 0 0 -0.2125 -0.7154 -0.0721 1 0 "
         in="SourceGraphic"
         result="result1"
         id="feColorMatrix1600" />
      <feColorMatrix
         type="hueRotate"
         values="0"
         id="feColorMatrix1602" />
      <feColorMatrix
         values="1 0 0 0 0 0 1 0 0 0 0 0 1 0 0 0 0 0 1 0 "
         result="result3"
         id="feColorMatrix1604" />
      <feComposite
         in2="result3"
         result="result6"
         operator="atop"
         id="feComposite1606" />
      <feComposite
         in2="result6"
         operator="arithmetic"
         k2="0.5"
         k1="0.5"
         k3="0.5"
         in="result6"
         result="result4"
         id="feComposite1608" />
      <feBlend
         in2="fbSourceGraphic"
         mode="normal"
         result="result2"
         in="result4"
         id="feBlend1610" />
      <feComposite
         in2="result2"
         operator="arithmetic"
         k2="1"
         result="result5"
         id="feComposite1612" />
      <feComposite
         in2="SourceGraphic"
         operator="in"
         result="result5"
         id="feComposite1614" />
    </filter>
    <filter
       inkscape:label="Soft Colors"
       inkscape:menu="Color"
       inkscape:menu-tooltip="Adds a colorizable edges glow inside objects and pictures"
       style="color-interpolation-filters:sRGB;"
       id="filter2038"
       x="-0.17446326"
       y="-0.096269391"
       width="1.3506991"
       height="1.1925388">
      <feColorMatrix
         type="saturate"
         values="1"
         result="result91"
         id="feColorMatrix2018" />
      <feComposite
         in2="result91"
         result="result15"
         operator="arithmetic"
         k2="0.4"
         k1="0.3"
         k3="0.3"
         id="feComposite2020" />
      <feGaussianBlur
         in="result15"
         result="result8"
         stdDeviation="5"
         id="feGaussianBlur2022" />
      <feColorMatrix
         values="1 0 0 0 0 0 1 0 0 0 0 0 1 0 0 0 0 0 50 0 "
         id="feColorMatrix2024" />
      <feComposite
         in2="SourceGraphic"
         operator="in"
         result="result13"
         id="feComposite2026" />
      <feComposite
         in2="result13"
         k3="0.3"
         k1="0.3"
         k2="0.4"
         operator="arithmetic"
         in="result15"
         result="result6"
         id="feComposite2028" />
      <feFlood
         flood-color="rgb(128,172,0)"
         flood-opacity="1"
         result="result10"
         id="feFlood2030" />
      <feBlend
         in2="result10"
         result="result12"
         in="result6"
         mode="darken"
         id="feBlend2032" />
      <feBlend
         in2="result6"
         result="result14"
         mode="screen"
         id="feBlend2034" />
      <feComposite
         in2="SourceGraphic"
         in="result14"
         operator="in"
         id="feComposite2036" />
    </filter>
    <filter
       inkscape:label="Simulate CMY"
       inkscape:menu="Color"
       inkscape:menu-tooltip="Render Cyan, Magenta and Yellow channels with a colorizable background"
       style="color-interpolation-filters:sRGB"
       id="filter2072"
       x="-0.0031865301"
       y="-0.0043501418"
       width="1.0063731"
       height="1.0087003">
      <feFlood
         flood-color="rgb(255,255,255)"
         result="result6"
         flood-opacity="0"
         id="feFlood2058" />
      <feColorMatrix
         result="result3"
         values="0 0 0 0 0 0 0 0 0 1 0 0 0 0 1 -1 0 0 1 0 "
         in="SourceGraphic"
         id="feColorMatrix2060" />
      <feBlend
         mode="multiply"
         in2="result6"
         result="result7"
         in="result3"
         id="feBlend2062" />
      <feColorMatrix
         result="result2"
         in="SourceGraphic"
         values="0 0 0 0 1 0 0 0 0 0 0 0 0 0 1 0 -1 0 1 0 "
         id="feColorMatrix2064" />
      <feBlend
         result="result4"
         in="result2"
         in2="result7"
         mode="multiply"
         id="feBlend2066" />
      <feColorMatrix
         result="result1"
         values="0 0 0 0 1 0 0 0 0 1 0 0 0 0 0 0 0 -1 1 0 "
         in="SourceGraphic"
         id="feColorMatrix2068" />
      <feBlend
         in2="result4"
         mode="multiply"
         result="result5"
         in="result1"
         id="feBlend2070" />
    </filter>
    <filter
       inkscape:label="Soft Colors"
       inkscape:menu="Color"
       inkscape:menu-tooltip="Adds a colorizable edges glow inside objects and pictures"
       style="color-interpolation-filters:sRGB;"
       id="filter2210"
       x="-0.10551693"
       y="-0.14404809"
       width="1.2110339"
       height="1.2880962">
      <feColorMatrix
         type="saturate"
         values="1"
         result="result91"
         id="feColorMatrix2190" />
      <feComposite
         in2="result91"
         result="result15"
         operator="arithmetic"
         k2="0.4"
         k1="0.3"
         k3="0.3"
         id="feComposite2192" />
      <feGaussianBlur
         in="result15"
         result="result8"
         stdDeviation="5"
         id="feGaussianBlur2194" />
      <feColorMatrix
         values="1 0 0 0 0 0 1 0 0 0 0 0 1 0 0 0 0 0 50 0 "
         id="feColorMatrix2196" />
      <feComposite
         in2="SourceGraphic"
         operator="in"
         result="result13"
         id="feComposite2198" />
      <feComposite
         in2="result13"
         k3="0.3"
         k1="0.3"
         k2="0.4"
         operator="arithmetic"
         in="result15"
         result="result6"
         id="feComposite2200" />
      <feFlood
         flood-color="rgb(128,172,0)"
         flood-opacity="1"
         result="result10"
         id="feFlood2202" />
      <feBlend
         in2="result10"
         result="result12"
         in="result6"
         mode="darken"
         id="feBlend2204" />
      <feBlend
         in2="result6"
         result="result14"
         mode="screen"
         id="feBlend2206" />
      <feComposite
         in2="SourceGraphic"
         in="result14"
         operator="in"
         id="feComposite2208" />
    </filter>
  </defs>
  <g
     inkscape:label="Layer 1"
     inkscape:groupmode="layer"
     id="layer1">
    <g
       id="g2245">
      <path
         d="m 161.8522,42.976747 c -9.56767,0 -18.4211,0.910447 -26.56132,2.728869 v 9.117641 c 7.71765,-2.664549 16.24757,-3.998552 25.59119,-3.998552 5.55234,0 11.08451,0.450767 16.59492,1.35171 -0.75318,-2.459894 -2.22103,-4.540619 -4.467,-6.374608 a 3.0871392,2.4739764 0 0 1 -0.0225,-0.01674 c -1.28048,-1.066923 -2.69118,-1.93438 -4.23978,-2.632018 -2.2722,-0.11291 -4.56855,-0.176045 -6.89509,-0.176045 z m 31.35234,3.795462 c 0.818,2.701527 1.23896,5.632826 1.23896,8.777511 0,0.291565 -0.0237,0.570241 -0.0301,0.858315 4.51375,1.536846 8.61224,3.27983 12.28793,5.233068 V 50.929874 c -4.44821,-1.634522 -8.94705,-3.020492 -13.49647,-4.158159 z m -74.54249,4.34453 c -3.01007,1.330874 -5.89394,2.82259 -8.64768,4.480006 -13.719476,8.34267 -20.580249,18.558941 -20.580249,30.647988 0,12.443176 7.377373,22.800277 22.133069,31.072127 2.30065,1.29225 4.66666,2.47332 7.09476,3.54889 v -12.75696 c -8.61007,-6.36604 -12.91892,-13.794643 -12.91892,-22.288849 0,-4.666213 1.29445,-9.049286 3.88306,-13.149794 2.15587,-3.252406 5.17026,-6.303863 9.03606,-9.156348 z m 88.03896,59.837451 c -7.89543,3.32291 -15.66178,5.79746 -23.29741,7.4235 -7.50718,1.55537 -14.88487,2.33299 -22.13307,2.33299 -9.55697,0 -18.21658,-1.32125 -25.97965,-3.9615 v 9.57307 c 7.57705,1.70247 15.65459,2.55411 24.23158,2.55411 14.10793,0 29.83445,-2.54488 47.17855,-7.63532 z"
         stroke-width="0.747351"
         id="path824"
         style="fill:#000000;stroke:#ffffff;filter:url(#filter2210)" />
      <path
         d="M 120.28723,15.873231 V 144.45098 h 10.17282 V 85.246014 h 14.93674 c 7.72606,0 13.26276,1.968266 16.61071,5.904297 3.86303,4.154727 7.55426,12.955769 11.0738,26.404539 l 1.27518,5.12201 c 1.74717,-0.34128 3.50294,-0.73626 5.26891,-1.19268 1.50767,-0.40075 3.02274,-0.84972 4.54402,-1.33918 l -5.8086,-19.97465 c -1.71687,-6.341486 -4.07793,-11.151802 -7.08248,-14.432744 -0.68675,-0.874685 -1.58787,-1.639871 -2.70385,-2.29586 -1.11598,-0.765346 -2.40386,-1.530873 -3.86323,-2.29626 8.15526,-3.170744 14.07875,-7.434769 17.76969,-12.791775 3.69133,-5.357406 5.537,-12.245785 5.537,-20.664638 0,-12.245785 -4.07773,-20.992632 -12.23279,-26.24054 -5.83749,-3.717434 -13.21976,-5.576102 -22.14761,-5.576102 z m 10.17282,11.315802 h 25.10956 c 6.95348,0 12.53378,2.186661 16.73971,6.560085 3.86303,3.936031 5.79449,8.910843 5.79449,14.924738 0,3.170744 -0.60124,6.28689 -1.80306,9.348236 -1.11598,3.061446 -2.57516,5.630801 -4.37793,7.708165 -2.66115,3.280042 -6.13769,5.6855 -10.42981,7.216173 -4.20643,1.421375 -9.40004,2.132063 -15.58073,2.132063 h -15.45273 z m 57.96398,107.588117 c -3.55633,0.95498 -7.04197,1.76276 -10.45381,2.41545 l 1.80776,7.26108 h 11.4608 z"
         stroke-width="0.756877"
         id="path826"
         style="fill-opacity:1;fill:#000000;stroke:#ffffff;filter:url(#filter2038)" />
      <path
         d="m 62.419607,179.6339 q -2.687614,0 -4.703324,-0.83188 -2.01571,-0.83188 -3.359517,-2.27167 -1.311811,-1.47179 -1.983715,-3.42351 -0.639908,-1.98372 -0.639908,-4.25539 0,-1.88773 0.639908,-3.80745 0.671904,-1.91973 1.983715,-3.45551 1.343807,-1.56777 3.359517,-2.52763 2.01571,-0.99186 4.703324,-0.99186 1.055848,0 1.919724,0.064 0.895871,0.032 1.695756,0.15998 0.799885,0.096 1.567774,0.28796 0.76789,0.15997 1.59977,0.38394 0.032,0.86388 0.223968,2.1117 0.191973,1.24782 0.511926,2.52763 -0.255963,0.12799 -0.511926,0.12799 -0.255963,0 -0.479931,-0.064 -0.191972,-0.064 -0.255963,-0.35194 -0.575917,-2.1117 -1.823738,-3.00757 -1.24782,-0.89587 -3.61548,-0.89587 -1.983715,0 -3.519494,0.6399 -1.503784,0.63991 -2.559632,1.79175 -1.023853,1.15183 -1.567774,2.7836 -0.511927,1.59977 -0.511927,3.58348 0,2.20768 0.671904,4.06342 0.671903,1.85573 1.791742,3.19954 1.151834,1.3438 2.655618,2.0797 1.535779,0.73589 3.263531,0.73589 1.375802,0 2.303669,-0.25596 0.959862,-0.28796 1.567774,-0.79989 0.639908,-0.51192 1.055848,-1.24782 0.447936,-0.76789 0.831881,-1.72775 0.223968,-0.47993 0.767889,-0.47993 0.159977,0 0.319954,0.064 0.191973,0.032 0.287959,0.096 -0.383945,1.11984 -0.76789,2.46364 -0.383944,1.34381 -0.639908,2.68762 -1.567774,0.25596 -3.19954,0.38394 -1.631765,0.15998 -3.583484,0.15998 z"
         id="path1090"
         style="font-size:31.9954px;line-height:1.25;font-family:Athelas;stroke-width:0.166647;fill:#ff0000;fill-opacity:1;stroke:#000000" />
      <path
         d="m 72.879602,172.49892 q 0,-1.47178 0.543922,-2.78359 0.575917,-1.31182 1.535779,-2.27168 0.959862,-0.95986 2.239678,-1.50378 1.311812,-0.57592 2.815595,-0.57592 1.567775,0 2.879586,0.54392 1.311812,0.51193 2.239678,1.4398 0.959862,0.92786 1.471789,2.27167 0.543921,1.31181 0.543921,2.87958 0,1.50379 -0.575917,2.8156 -0.543921,1.27982 -1.503783,2.23968 -0.959862,0.95986 -2.271674,1.53578 -1.279816,0.54392 -2.7836,0.54392 -1.567774,0 -2.879586,-0.51193 -1.311811,-0.54392 -2.271673,-1.47179 -0.927866,-0.92786 -1.471788,-2.23967 -0.511927,-1.31182 -0.511927,-2.91159 z m 3.007568,-1.05584 q 0,1.18383 0.255963,2.43165 0.255963,1.24782 0.76789,2.27167 0.543921,0.99186 1.375802,1.66376 0.83188,0.63991 2.01571,0.63991 1.823738,0 2.815595,-1.27982 1.023853,-1.27981 1.023853,-3.29552 0,-1.18383 -0.255963,-2.46365 -0.223968,-1.31181 -0.76789,-2.36766 -0.511926,-1.08784 -1.375802,-1.79174 -0.83188,-0.7039 -2.079701,-0.7039 -1.695756,0 -2.751604,1.18383 -1.023853,1.15183 -1.023853,3.71147 z"
         id="path1092"
         style="font-size:31.9954px;line-height:1.25;font-family:Athelas;stroke-width:0.166647;stroke:#000000;fill:#ff0000" />
      <path
         d="m 102.74981,178.38608 q 0.35195,0 0.38394,0.6719 -0.83188,0.57592 -2.11169,0.57592 -0.7039,0 -1.215829,-0.22397 -0.511926,-0.19197 -0.863875,-0.54392 -0.35195,-0.35195 -0.543922,-0.79989 -0.191973,-0.44793 -0.255963,-0.92786 -0.799885,1.43979 -1.919724,1.98371 -1.087844,0.51193 -2.527637,0.51193 -0.639908,0 -1.375802,-0.12798 -0.703899,-0.096 -1.343807,-0.44794 -0.639908,-0.35195 -1.055848,-0.99186 -0.41594,-0.6399 -0.41594,-1.69575 0,-1.18383 0.543922,-1.98372 0.575917,-0.83188 1.439793,-1.3438 0.895871,-0.54393 1.919723,-0.86388 1.055849,-0.31995 2.015711,-0.54392 0.543921,-0.096 0.991857,-0.19197 0.479931,-0.12798 0.83188,-0.25597 0.447936,-0.12798 0.543922,-0.35195 0.127982,-0.22396 0.127982,-0.86387 0,-1.50379 -0.575917,-2.46365 -0.575918,-0.99185 -2.047706,-0.99185 -0.543922,0 -0.927867,0.12798 -0.383944,0.12798 -0.639908,0.41594 -0.255963,0.25596 -0.447935,0.7039 -0.191973,0.44793 -0.383945,1.05584 -0.09599,0.35195 -0.447935,0.51193 -0.319954,0.15998 -1.119839,0.38395 -0.191973,0.064 -0.479931,0.12798 -0.287959,0.064 -0.479931,0.064 -0.319954,0 -0.319954,-0.67191 0,-0.70389 0.543921,-1.40779 0.543922,-0.7039 1.375803,-1.24782 0.863875,-0.54393 1.855733,-0.86388 0.991857,-0.35195 1.887728,-0.35195 1.119839,0 2.01571,0.19197 0.895872,0.19198 1.53578,0.7039 0.639908,0.51193 0.95986,1.3758 0.35195,0.86388 0.35195,2.23968 v 5.50321 q 0,1.11984 0.064,1.63177 0.096,0.47993 0.25596,0.76789 0.22397,0.44793 0.47994,0.60791 0.28795,0.12798 0.57591,0.12798 0.35195,0 0.47993,-0.064 0.15998,-0.064 0.31996,-0.064 z m -4.831307,-6.2391 -1.023853,0.15997 q -0.83188,0.15998 -1.631765,0.38395 -0.76789,0.22397 -1.375803,0.63991 -0.607912,0.38394 -0.991857,0.99185 -0.351949,0.60792 -0.351949,1.50379 0,1.21582 0.607912,1.85573 0.639908,0.63991 1.567775,0.63991 0.607912,0 1.18383,-0.25597 0.607912,-0.28795 1.023852,-0.76789 0.447936,-0.51192 0.703899,-1.18382 0.287959,-0.67191 0.287959,-1.47179 z"
         id="path1094"
         style="font-size:31.9954px;line-height:1.25;font-family:Athelas;stroke-width:0.166647;stroke:#000000;fill:#ff0000" />
      <path
         d="m 113.20131,169.29938 q -0.25597,0 -0.38395,-0.096 -0.096,-0.12798 -0.12798,-0.25596 -0.22397,-1.31182 -1.05585,-1.85574 -0.79988,-0.57591 -2.01571,-0.57591 -0.92787,0 -1.66376,0.54392 -0.7039,0.51192 -0.7039,1.43979 0,0.83188 0.63991,1.4078 0.6719,0.54392 2.39965,1.08784 0.92787,0.28796 1.69576,0.63991 0.79989,0.35195 1.34381,0.86387 0.57591,0.47994 0.89587,1.21583 0.31995,0.7039 0.31995,1.69576 0,0.83188 -0.31995,1.59977 -0.28796,0.76789 -0.92787,1.3438 -0.60791,0.57592 -1.56777,0.92787 -0.92787,0.35195 -2.23968,0.35195 -1.02385,0 -2.30367,-0.25596 -1.24782,-0.22397 -2.27167,-0.79989 -0.064,-0.83188 -0.12798,-1.72775 -0.032,-0.92787 -0.032,-1.85573 h 0.31995 q 0.31996,0 0.54393,0.12798 0.22396,0.096 0.25596,0.35195 0.12798,1.3438 1.02385,2.17568 0.92787,0.79989 2.55963,0.79989 1.31182,0 2.01571,-0.57592 0.7039,-0.60791 0.7039,-1.63176 0,-1.05585 -0.76789,-1.59977 -0.76789,-0.57592 -2.27167,-1.02386 -1.88773,-0.57591 -2.97557,-1.50378 -1.05585,-0.92787 -1.05585,-2.71961 0,-0.83188 0.31995,-1.56777 0.31996,-0.7359 0.89587,-1.27982 0.57592,-0.54392 1.4078,-0.86388 0.83188,-0.31995 1.85574,-0.31995 1.27981,0 2.39965,0.35195 1.15183,0.31995 1.79174,0.7039 0.032,0.25596 0.064,0.63991 0.032,0.35195 0.032,0.76789 0.032,0.38394 0.032,0.79988 0.032,0.38395 0.032,0.7039 z"
         id="path1096"
         style="font-size:31.9954px;line-height:1.25;font-family:Athelas;stroke-width:0.166647;fill:#ffcc00" />
      <path
         d="m 124.42269,177.36223 q 0.15998,-0.15998 0.25597,-0.19198 0.12798,-0.032 0.19197,-0.032 0.28796,0 0.51193,0.41594 -0.83188,0.92786 -1.79175,1.50378 -0.95986,0.57592 -2.0477,0.57592 -0.63991,0 -1.21583,-0.15998 -0.57591,-0.12798 -0.99186,-0.54392 -0.41594,-0.41594 -0.6719,-1.11984 -0.22397,-0.73589 -0.22397,-1.88773 v -8.83073 h -1.91972 v -0.35195 q 0,-0.22396 0.064,-0.41594 0.096,-0.19197 0.35195,-0.19197 0.86388,0 1.4078,-0.44794 0.54392,-0.44793 0.89587,-1.15183 0.38394,-0.76789 0.6719,-1.43979 0.28796,-0.67191 0.63991,-0.67191 h 0.57592 v 3.32753 h 3.74346 q 0,0.6719 -0.15998,1.02385 -0.12798,0.31995 -0.51192,0.31995 h -3.07156 v 7.93486 q 0,1.02385 0.096,1.66376 0.096,0.60791 0.28796,0.95986 0.19197,0.31996 0.44794,0.41594 0.25596,0.096 0.57591,0.096 0.54393,0 0.99186,-0.22397 0.47993,-0.25596 0.89587,-0.57591 z"
         id="path1098"
         style="font-size:31.9954px;line-height:1.25;font-family:Athelas;stroke-width:0.166647;fill:#ffcc00" />
      <path
         d="m 141.7827,169.9073 h -2.36766 v 7.03899 q 0,0.70389 0.63991,0.95986 0.6719,0.25596 2.01571,0.41594 0.38394,0.064 0.38394,0.54392 0,0.22397 -0.064,0.54392 -0.86388,-0.064 -2.1117,-0.12798 -1.21582,-0.032 -2.39965,-0.032 -0.83188,0 -1.91972,0.032 -1.08785,0.064 -2.04771,0.12798 -0.064,-0.31995 -0.064,-0.51193 0,-0.44793 0.35195,-0.51192 1.21582,-0.19197 1.69575,-0.44794 0.51193,-0.28796 0.51193,-0.92786 v -16.28566 q 0,-0.60791 -0.47993,-0.89587 -0.44794,-0.31996 -1.79174,-0.47993 -0.31996,-0.032 -0.31996,-0.54393 0,-0.19197 0.064,-0.51192 0.95987,0.064 1.98372,0.12798 1.02385,0.032 1.95172,0.032 h 4.31938 q 3.4555,0 5.21525,1.53578 1.75974,1.50379 1.75974,4.09541 0,0.7039 -0.25596,1.47179 -0.22397,0.76789 -0.73589,1.50379 -0.47993,0.73589 -1.27982,1.3758 -0.76789,0.60791 -1.82374,0.99186 l 5.34324,7.42293 q 0.60791,0.83188 1.3438,1.15183 0.7359,0.31996 1.3758,0.47993 0.28796,0.064 0.28796,0.44794 0,0.25596 -0.064,0.57592 -0.73589,-0.064 -1.79174,-0.12798 -1.05585,-0.032 -1.95172,-0.032 -0.6719,0 -1.3758,-0.57592 -0.67191,-0.57591 -1.27982,-1.47179 z m -0.67191,-1.31181 q 2.23968,0 3.45551,-0.92787 1.21582,-0.95986 1.21582,-3.32752 0,-0.99186 -0.25596,-1.82374 -0.25596,-0.83188 -0.83188,-1.43979 -0.54392,-0.60792 -1.47179,-0.95986 -0.89587,-0.35195 -2.20768,-0.35195 h -1.59977 v 8.83073 z"
         id="path1100"
         style="font-size:31.9954px;line-height:1.25;font-family:Athelas;stroke-width:0.166647" />
      <path
         d="m 165.44582,176.27438 q 0.22397,-0.22397 0.47993,-0.22397 0.31995,0 0.60791,0.54393 -0.41594,0.57591 -0.95986,1.11984 -0.54392,0.54392 -1.31181,0.99185 -0.7359,0.41594 -1.69576,0.67191 -0.95986,0.25596 -2.20768,0.25596 -1.27982,0 -2.43165,-0.41594 -1.15183,-0.41594 -2.04771,-1.27982 -0.86387,-0.86387 -1.40779,-2.14369 -0.51193,-1.27981 -0.51193,-3.00757 0,-1.63176 0.60791,-3.00756 0.63991,-1.37581 1.63177,-2.33567 0.99186,-0.99186 2.17569,-1.53578 1.21582,-0.54392 2.33566,-0.54392 2.97557,0 4.31938,1.72775 1.3758,1.72775 1.3758,4.51135 0,0.19198 -0.19197,0.19198 l -9.27867,0.41594 q 0,1.24782 0.35195,2.30367 0.35195,1.05584 0.99186,1.82373 0.63991,0.76789 1.53578,1.21583 0.92786,0.41594 2.0797,0.41594 1.02385,0 1.95172,-0.47993 0.95986,-0.47993 1.59977,-1.21583 z m -5.18326,-9.75859 q -1.59977,0 -2.49564,1.24782 -0.89587,1.24782 -0.89587,3.26353 l 6.04713,-0.28796 q 0.47993,0 0.47993,-0.41594 0,-0.60791 -0.19197,-1.27982 -0.19197,-0.6719 -0.57592,-1.21582 -0.38394,-0.57592 -0.99185,-0.92787 -0.57592,-0.38394 -1.37581,-0.38394 z"
         id="path1102"
         style="font-size:31.9954px;line-height:1.25;font-family:Athelas;stroke-width:0.166647;fill:#ffcc00" />
      <path
         d="m 173.28416,176.65833 q 0.79989,0.83188 1.75975,1.3438 0.95986,0.47993 2.17569,0.47993 0.92786,0 1.63176,-0.41594 0.7039,-0.41594 1.15184,-1.11983 0.47993,-0.7359 0.7039,-1.72776 0.25596,-1.02385 0.25596,-2.20768 0,-1.21582 -0.28796,-2.30367 -0.25596,-1.11984 -0.79988,-1.95172 -0.51193,-0.83188 -1.27982,-1.31181 -0.7359,-0.47993 -1.66376,-0.47993 -0.63991,0 -1.27982,0.38395 -0.63991,0.35195 -1.18383,0.92786 -0.51192,0.57592 -0.86387,1.31181 -0.31996,0.7039 -0.31996,1.4398 z m -2.68761,-8.09484 q 0,-0.89587 -0.31995,-1.27982 -0.28796,-0.38394 -1.37581,-0.47993 -0.41594,-0.064 -0.41594,-0.41594 0,-0.19197 0.064,-0.44793 0.41594,0 1.11984,-0.032 0.7359,-0.064 1.21583,-0.15997 0.7039,-0.096 1.24782,-0.22397 0.57592,-0.15998 0.83188,-0.15998 0.41594,0 0.41594,0.47993 0,0.38395 -0.064,0.92787 -0.032,0.51192 -0.032,1.53578 0.95986,-1.24782 2.14369,-2.0797 1.21583,-0.86388 2.97558,-0.86388 1.08784,0 2.0797,0.44794 1.02385,0.44793 1.79174,1.3438 0.76789,0.86388 1.21583,2.14369 0.47993,1.27982 0.47993,2.91159 0,1.79174 -0.67191,3.16754 -0.6719,1.3758 -1.66376,2.33567 -0.99186,0.92786 -2.17569,1.43979 -1.15183,0.47993 -2.14369,0.47993 -1.02385,0 -2.01571,-0.19197 -0.95986,-0.19198 -2.01571,-0.67191 v 5.79117 q 0,0.83188 0.7359,1.11984 0.73589,0.31995 2.39965,0.47993 0.35195,0.064 0.35195,0.41594 0,0.19197 -0.064,0.51193 -0.73589,-0.064 -2.01571,-0.12798 -1.27982,-0.032 -2.39965,-0.032 -0.83189,0 -1.75975,0.032 -0.92787,0.064 -1.75975,0.12798 -0.064,-0.31996 -0.064,-0.51193 0,-0.31995 0.28796,-0.38394 0.7039,-0.15998 1.15183,-0.38395 0.44794,-0.22397 0.44794,-0.73589 z"
         id="path1104"
         style="font-size:31.9954px;line-height:1.25;font-family:Athelas;stroke-width:0.166647;fill:#ffcc00" />
      <path
         d="m 187.96606,168.69147 q 0,-1.05585 -0.31996,-1.4078 -0.28796,-0.38394 -1.3758,-0.47993 -0.41594,-0.064 -0.41594,-0.41594 0,-0.19197 0.064,-0.44793 0.41594,0 1.08785,-0.032 0.70389,-0.064 1.18383,-0.15997 0.70389,-0.096 1.21582,-0.22397 0.54392,-0.15998 0.79989,-0.15998 0.44793,0 0.44793,0.47993 v 7.99885 q 0,0.79989 0.096,1.47179 0.096,0.6719 0.35195,1.18383 0.25596,0.47993 0.73589,0.76789 0.47993,0.25596 1.21583,0.25596 0.79988,0 1.56777,-0.25596 0.76789,-0.28796 1.34381,-0.79989 0.60791,-0.54392 0.95986,-1.31181 0.35195,-0.76789 0.35195,-1.79174 v -4.67133 q 0,-1.02385 -0.31996,-1.4078 -0.28795,-0.38394 -1.40779,-0.47993 -0.41594,-0.064 -0.41594,-0.41594 0,-0.19197 0.064,-0.44793 0.41594,0 1.08784,-0.032 0.7039,-0.064 1.21583,-0.15997 0.7039,-0.096 1.21582,-0.22397 0.51193,-0.15998 0.76789,-0.15998 0.44794,0 0.44794,0.47993 v 10.39851 q 0,0.54392 0.064,0.89587 0.064,0.31995 0.25596,0.54392 0.19197,0.19197 0.51193,0.31995 0.35195,0.096 0.89587,0.12799 0.41594,0.064 0.41594,0.41594 0,0.19197 -0.064,0.44793 -0.60791,0 -1.27982,0.096 -0.6719,0.096 -1.27981,0.19197 -0.60792,0.096 -1.08785,0.19197 -0.44793,0.096 -0.63991,0.096 -0.44793,0 -0.44793,-0.47993 v -2.65562 q -0.096,0.096 -0.54392,0.60791 -0.44794,0.51193 -1.18383,1.08785 -0.7039,0.57591 -1.66376,1.05584 -0.92787,0.44794 -2.01571,0.44794 -1.95172,0 -2.94358,-1.11984 -0.95986,-1.11984 -0.95986,-3.16754 z"
         id="path1106"
         style="font-size:31.9954px;line-height:1.25;font-family:Athelas;stroke-width:0.166647;fill:#44aa00" />
      <path
         d="m 208.55809,176.69032 q 0.79988,0.83188 1.75974,1.31181 0.95987,0.47993 2.20769,0.47993 1.82374,0 2.7516,-1.53577 0.95986,-1.53578 0.95986,-3.93544 0,-1.21582 -0.28795,-2.30367 -0.25597,-1.11984 -0.79989,-1.95172 -0.51193,-0.83188 -1.24782,-1.31181 -0.73589,-0.47993 -1.69576,-0.47993 -0.6399,0 -1.27981,0.38395 -0.63991,0.35195 -1.18383,0.92786 -0.51193,0.57592 -0.86388,1.31181 -0.31995,0.7039 -0.31995,1.4398 z m -2.65562,-16.50962 q 0,-0.95987 -0.35195,-1.34381 -0.31995,-0.41594 -1.43979,-0.51193 -0.41594,-0.064 -0.41594,-0.44793 0,-0.19198 0.064,-0.44794 0.41594,0 1.15183,-0.032 0.76789,-0.064 1.24782,-0.12799 0.7359,-0.096 1.31181,-0.25596 0.57592,-0.15998 0.83188,-0.15998 0.44794,0 0.44794,0.47994 0,0.54392 -0.096,1.24782 -0.096,0.70389 -0.096,1.72775 v 7.99885 q 1.18383,-1.56778 2.33566,-2.23968 1.15184,-0.7039 2.8156,-0.7039 1.08784,0 2.0797,0.44794 1.02385,0.44793 1.79174,1.3438 0.76789,0.86388 1.21583,2.14369 0.47993,1.27982 0.47993,2.91159 0,1.79174 -0.67191,3.16754 -0.6719,1.3758 -1.66376,2.33567 -0.99185,0.92786 -2.17568,1.43979 -1.18383,0.47993 -2.17569,0.47993 -1.21583,0 -2.33567,-0.28796 -1.11984,-0.28796 -2.01571,-0.73589 -0.35195,0.032 -0.6719,0.19197 -0.31995,0.15998 -0.57592,0.35195 -0.25596,0.15998 -0.47993,0.28796 -0.19197,0.15997 -0.31995,0.15997 -0.25597,0 -0.47993,-0.12798 0.032,-0.51192 0.064,-0.89587 0.032,-0.41594 0.064,-0.79988 0.032,-0.38395 0.032,-0.76789 0.032,-0.41594 0.032,-0.92787 z"
         id="path1108"
         style="font-size:31.9954px;line-height:1.25;font-family:Athelas;stroke-width:0.166647;fill:#44aa00" />
      <path
         d="m 228.48873,179.40993 q -0.83188,-0.064 -1.69576,-0.12798 -0.86388,-0.032 -1.72775,-0.032 -0.86388,0 -1.79174,0.032 -0.89587,0.064 -1.69576,0.12798 -0.064,-0.31995 -0.064,-0.51193 0,-0.31995 0.28796,-0.38394 0.7039,-0.12798 1.31181,-0.35195 0.60791,-0.25596 0.60791,-0.76789 V 160.1807 q 0,-1.02386 -0.41594,-1.37581 -0.38394,-0.38394 -1.50378,-0.47993 -0.41594,-0.064 -0.41594,-0.44793 0,-0.19198 0.064,-0.44794 0.41594,0 1.15183,-0.032 0.7359,-0.064 1.34381,-0.12799 0.73589,-0.096 1.31181,-0.25596 0.57592,-0.15998 0.83188,-0.15998 0.28796,0 0.38395,0.12799 0.096,0.12798 0.096,0.35195 0,0.54392 -0.096,1.27981 -0.096,0.7039 -0.096,1.66376 v 17.11754 q 0,0.51193 0.57592,0.76789 0.60791,0.22397 1.3438,0.35195 0.25597,0.064 0.25597,0.38394 0,0.19198 -0.064,0.51193 z"
         id="path1110"
         style="font-size:31.9954px;line-height:1.25;font-family:Athelas;stroke-width:0.166647;fill:#44aa00" />
      <path
         d="m 233.93594,179.24995 q -0.54392,0 -1.11984,0 -0.54392,0.032 -1.02385,0.064 -0.47993,0.032 -0.83188,0.064 -0.35195,0.032 -0.44794,0.032 0,-0.032 -0.032,-0.22397 -0.032,-0.19197 -0.032,-0.28796 0,-0.31995 0.28796,-0.38394 0.83188,-0.15998 1.34381,-0.38394 0.51192,-0.22397 0.51192,-0.7359 v -8.70275 q 0,-0.95986 -0.35195,-1.3758 -0.31995,-0.41594 -1.43979,-0.51193 -0.41594,-0.064 -0.41594,-0.44793 0,-0.15998 0.064,-0.41594 0.41594,0 1.15184,-0.032 0.76789,-0.064 1.24782,-0.12798 0.73589,-0.12798 1.31181,-0.25596 0.57592,-0.15998 0.83188,-0.15998 0.44793,0 0.44793,0.47993 0,0.44794 -0.096,1.08785 -0.096,0.60791 -0.096,1.63176 v 8.83073 q 0,0.51193 0.47993,0.7359 0.51193,0.22396 1.4078,0.38394 0.25596,0.064 0.25596,0.38394 0,0.096 -0.032,0.28796 0,0.19198 -0.032,0.22397 -0.096,0 -0.44793,-0.032 -0.31996,-0.032 -0.79989,-0.064 -0.47993,-0.032 -1.05585,-0.064 -0.54392,0 -1.08784,0 z m -1.85573,-19.22923 q 0,-0.76789 0.51192,-1.31181 0.54393,-0.57592 1.34381,-0.57592 0.76789,0 1.27982,0.57592 0.51192,0.54392 0.51192,1.31181 0,0.83188 -0.51192,1.34381 -0.51193,0.51192 -1.27982,0.51192 -0.79988,0 -1.34381,-0.51192 -0.51192,-0.51193 -0.51192,-1.34381 z"
         id="path1112"
         style="font-size:31.9954px;line-height:1.25;font-family:Athelas;stroke-width:0.166647;fill:#44aa00" />
      <path
         d="m 245.66026,166.57978 q -1.50378,0 -2.46364,1.31181 -0.92787,1.31181 -0.92787,3.55149 0,3.10355 1.3758,4.8313 1.4078,1.72775 3.71147,1.72775 1.02385,0 1.69575,-0.31995 0.7039,-0.31995 1.21583,-0.63991 0.096,-0.064 0.22397,-0.12798 0.12798,-0.096 0.25596,-0.096 0.15998,0 0.35195,0.22397 0.19197,0.22397 0.25596,0.35195 -0.31995,0.38395 -0.79988,0.76789 -0.47993,0.38395 -1.15184,0.73589 -0.6719,0.31996 -1.59977,0.51193 -0.89587,0.22397 -2.0477,0.22397 -1.31181,0 -2.49564,-0.41594 -1.15184,-0.44794 -2.04771,-1.31181 -0.86388,-0.86388 -1.3758,-2.14369 -0.51193,-1.31182 -0.51193,-3.03957 0,-1.63176 0.60791,-2.97557 0.63991,-1.3758 1.59977,-2.33566 0.99186,-0.95987 2.17569,-1.50379 1.21583,-0.54392 2.36766,-0.54392 1.18383,0 2.14369,0.25596 0.95986,0.25597 1.63177,0.67191 0.6719,0.41594 1.02385,0.99185 0.38395,0.54393 0.38395,1.15184 0,0.19197 -0.31996,0.31995 -0.31995,0.12798 -0.73589,0.22397 -0.38395,0.064 -0.76789,0.096 -0.35195,0.032 -0.41594,0.032 -0.41594,0 -0.67191,-0.38394 -0.22396,-0.41594 -0.51192,-0.86388 -0.28796,-0.47993 -0.79989,-0.86387 -0.47993,-0.41594 -1.3758,-0.41594 z"
         id="path1114"
         style="font-size:31.9954px;line-height:1.25;font-family:Athelas;stroke-width:0.166647;fill:#44aa00" />
    </g>
  </g>
</svg>
