<?xml version="1.0" encoding="UTF-8"?>
<!-- Created with Inkscape (http://www.inkscape.org/) -->
<svg width="1122.5" height="793.7" version="1.1" viewBox="0 0 297 210" xmlns="http://www.w3.org/2000/svg">
 <path d="m154.82 25.851c-9.31 0-17.925 1.1055-25.846 3.3135v11.071c7.5098-3.2354 15.81-4.8552 24.902-4.8552 5.4028 0 10.786 0.54734 16.148 1.6413-0.73289-2.9869-2.1612-5.5134-4.3467-7.7403a3.004 3.004 0 0 1-0.0219-0.02032c-1.246-1.2955-2.6187-2.3488-4.1256-3.1959-2.211-0.1371-4.4455-0.21376-6.7094-0.21376zm30.508 4.6086c0.79597 3.2803 1.2056 6.8396 1.2056 10.658 0 0.35403-0.0231 0.69241-0.0293 1.0422 4.3922 1.8661 8.3803 3.9825 11.957 6.3542v-13.006c-4.3284-1.9847-8.7061-3.6676-13.133-5.049zm-72.535 5.2753c-2.929 1.616-5.7352 3.4273-8.4148 5.4398-13.35 10.13-20.026 22.535-20.026 37.214 0 15.109 7.1787 27.685 21.537 37.729 2.2387 1.5691 4.541 3.0032 6.9037 4.3092v-15.49c-8.3782-7.7299-12.571-16.75-12.571-27.064 0-5.6659 1.2596-10.988 3.7785-15.967 2.0978-3.9492 5.031-7.6544 8.7927-11.118zm85.668 72.657c-7.6828 4.0348-15.24 7.0395-22.67 9.0139-7.305 1.8886-14.484 2.8328-21.537 2.8328-9.2996 0-17.726-1.6043-25.28-4.8102v11.624c7.373 2.0672 15.233 3.1013 23.579 3.1013 13.728 0 29.031-3.0901 45.908-9.2711z" stroke-width=".81236"/>
 <path d="m115.8 9.3009v128.58h10.173v-59.206h14.937c7.7262 0 13.263 1.9683 16.611 5.9044 3.8631 4.1548 7.5544 12.956 11.074 26.405l1.2752 5.1221c1.7472-0.34128 3.503-0.73627 5.269-1.1927 1.5077-0.40076 3.0228-0.84973 4.5441-1.3392l-5.8087-19.975c-1.7169-6.3416-4.078-11.152-7.0826-14.433-0.68677-0.8747-1.5879-1.6399-2.7039-2.2959-1.116-0.76536-2.4039-1.5309-3.8633-2.2963 8.1554-3.1708 14.079-7.4349 17.77-12.792 3.6914-5.3575 5.5371-12.246 5.5371-20.665 0-12.246-4.0778-20.993-12.233-26.241-5.8376-3.7175-13.22-5.5762-22.148-5.5762zm10.173 11.316h25.11c6.9536 0 12.534 2.1867 16.74 6.5602 3.8631 3.9361 5.7946 8.911 5.7946 14.925 0 3.1708-0.60125 6.287-1.8031 9.3484-1.116 3.0615-2.5752 5.6309-4.378 7.7083-2.6612 3.2801-6.1378 5.6856-10.43 7.2163-4.2065 1.4214-9.4002 2.1321-15.581 2.1321h-15.453zm57.965 107.59c-3.5564 0.955-7.0421 1.7628-10.454 2.4155l1.8078 7.2612h11.461z" stroke-width=".75689"/>
 <text x="45.804893" y="172.6805" font-family="Athelas" font-size="31.996px" stroke-width=".16665" style="line-height:1.25" xml:space="preserve"><tspan x="45.804893" y="172.6805" font-family="Athelas" stroke-width=".16665">Coast Republic</tspan></text>
</svg>
