<svg width="32" height="32" viewBox="0 0 32 32" fill="none" xmlns="http://www.w3.org/2000/svg">
<path d="M28 13H4C3.60218 13 3.22064 12.842 2.93934 12.5607C2.65804 12.2794 2.5 11.8978 2.5 11.5C2.5 11.1022 2.65804 10.7206 2.93934 10.4393C3.22064 10.158 3.60218 10 4 10H28C28.3978 10 28.7794 10.158 29.0607 10.4393C29.342 10.7206 29.5 11.1022 29.5 11.5C29.5 11.8978 29.342 12.2794 29.0607 12.5607C28.7794 12.842 28.3978 13 28 13ZM28 22H14C13.6022 22 13.2206 21.842 12.9393 21.5607C12.658 21.2794 12.5 20.8978 12.5 20.5C12.5 20.1022 12.658 19.7206 12.9393 19.4393C13.2206 19.158 13.6022 19 14 19H28C28.3978 19 28.7794 19.158 29.0607 19.4393C29.342 19.7206 29.5 20.1022 29.5 20.5C29.5 20.8978 29.342 21.2794 29.0607 21.5607C28.7794 21.842 28.3978 22 28 22Z" fill="#383838"/>
</svg>
