<?xml version="1.0" encoding="iso-8859-1"?>
<!-- Uploaded to: SVG Repo, www.svgrepo.com, Generator: SVG Repo Mixer Tools -->
<!DOCTYPE svg PUBLIC "-//W3C//DTD SVG 1.1//EN" "http://www.w3.org/Graphics/SVG/1.1/DTD/svg11.dtd">
<svg fill="#000000" height="800px" width="800px" version="1.1" id="Capa_1" xmlns="http://www.w3.org/2000/svg" xmlns:xlink="http://www.w3.org/1999/xlink" 
	 viewBox="0 0 420.613 420.613" xml:space="preserve">
<path d="M418.214,258.672c-3.101-6.1-8.799-10.225-15.634-11.318l-43.847-7.013c-45.33-7.258-86.785-27.932-119.881-59.786
	C194.415,137.779,134.663,78.881,102.348,41.208c-7.412-8.638-13.056-15.793-16.775-21.266c-0.811-1.194-2.098-1.979-3.531-2.153
	c-1.433-0.173-2.872,0.279-3.944,1.242c-25.59,22.97-74.806,80.114-76.889,82.535c-1.776,2.065-1.573,5.172,0.458,6.988
	l21.412,19.151c-9.099,7.535-15.349,12.836-16.116,13.488c-2.076,1.763-2.359,4.863-0.637,6.973l39.538,48.438
	c22.11,27.086,32.772,61.199,30.023,96.056c-1.166,14.786,3.608,29.043,13.444,40.144c9.835,11.102,23.413,17.56,38.231,18.184
	l27.874,1.175c34.17,1.44,67.476,11.917,96.318,30.297c21.29,13.568,45.593,20.399,69.947,20.399
	c21.537,0,43.115-5.343,62.68-16.096c7.579-4.165,11.785-12.102,10.976-20.712c-0.809-8.61-6.42-15.624-14.642-18.305
	l-42.222-13.765c-25.076-8.174-48.193-20.535-68.589-36.515c3.606,1.323,7.179,2.742,10.701,4.274
	c16.678,7.265,34.369,10.88,52.03,10.88c20.209,0,40.379-4.738,58.923-14.163c7.291-3.706,14.265-8.126,20.724-13.135
	C420.515,278.955,422.954,267.995,418.214,258.672z M80.659,30.275c2.981,4.022,6.678,8.653,11.029,13.827
	c-22.584,21.842-55.836,59.78-66.506,72.068L12.001,104.38C22.841,91.909,58.598,51.127,80.659,30.275z M96.551,83.151
	c2.374,4.546,5.319,9.712,8.737,15.382c-25.733,18.07-64.476,50.354-76.921,60.822l-11.183-13.7
	C29.834,135.025,71.51,100.314,96.551,83.151z M96.816,326.173c-8.018-9.051-11.91-20.673-10.96-32.727
	c0.606-7.688,0.595-15.341,0.005-22.904c24.434-2.949,48.601,9.743,59.902,31.976c6.23,12.258,7.972,26.122,5.052,39.442
	l-22.832-0.963C115.903,340.488,104.834,335.224,96.816,326.173z M377.616,357.255c4.438,1.447,7.349,5.085,7.786,9.733
	c0.437,4.648-1.745,8.765-5.836,11.013c-38.486,21.151-85.402,19.629-122.437-3.973c-28.895-18.415-62.055-29.263-96.199-31.557
	c2.929-15.071,0.778-30.653-6.252-44.483c-13.195-25.96-41.401-40.794-69.938-37.382c-3.793-25.612-14.407-49.841-31.128-70.325
	l-18.917-23.175c12.079-10.149,50.636-42.264,75.852-60.044c26.211,41.689,72.49,104.517,110.877,155.22
	c28.971,38.266,68.381,66.347,113.971,81.209L377.616,357.255z M406.159,277.419c-5.965,4.625-12.402,8.705-19.131,12.126
	c-32.079,16.305-69.412,17.411-102.431,3.029c-10.675-4.644-21.77-8.379-32.996-11.13c-7.964-7.783-15.388-16.195-22.206-25.199
	c-39.901-52.703-109.377-146.498-126.381-182.536c-0.616-1.305-1.765-2.28-3.153-2.675s-2.877-0.172-4.089,0.613
	c-14.349,9.301-35.779,26.033-54.003,40.763C56.31,95.904,80.7,68.708,98.212,51.705c33.222,38.029,90.641,94.6,133.705,136.055
	c34.575,33.276,77.88,54.873,125.236,62.456l43.848,7.013c4.983,0.797,7.338,4.085,8.299,5.975
	C411.371,267.278,411.272,273.463,406.159,277.419z"/>
</svg>